<?xml version="1.0" encoding="utf-8"?>
<!-- Generator: Adobe Illustrator 27.5.0, SVG Export Plug-In . SVG Version: 6.00 Build 0)  -->
<svg version="1.1" id="_x3C_Layer_x3E_" xmlns="http://www.w3.org/2000/svg" xmlns:xlink="http://www.w3.org/1999/xlink" x="0px"
	 y="0px" viewBox="0 0 3000 2000" style="enable-background:new 0 0 3000 2000;" xml:space="preserve">
<rect style="fill:#FFFFFF;" width="3000" height="2000"/>
<g>
	<g>
		<path style="fill:#DAEBE8;" d="M2802.847,438.256v1119.311c0,179.486-153.834,300.548-339.701,324.985
			c-47.88,6.295-96.066,10.622-147.024,13.218c-11.957,0.618-24.073,1.133-36.377,1.556c-24.034,0.824-48.771,1.298-74.438,1.442
			c-74.448,0.422-156.765-1.916-252.692-6.439c-37.298-1.762-76.665-3.853-118.417-6.243
			c-79.813-4.574-168.385-10.23-268.065-16.741c-34.101-2.225-72.765-3.678-114.804-4.492h-0.01
			c-20.084-0.391-40.941-0.639-62.421-0.762c-0.01,0-0.01,0-0.02,0c-114.3-0.669-246.565,2.184-376.86,5.831
			c-6.89,0.186-13.769,0.381-20.639,0.577c-94.116,2.709-186.629,5.759-269.985,8.128h-0.01
			c-11.393,0.319-22.618,0.639-33.645,0.938c-12.7,0.33-25.152,0.659-37.328,0.948c-41.525,1.02-79.763,1.751-113.547,2.04
			c-187.609,1.597-339.711-145.499-339.711-324.985V438.256c0-179.486,152.419-335.545,339.711-324.985
			c173.929,9.808,429.749,48.617,696.428,24.849c317.182-28.27,919.206-52.284,1229.854-24.849
			C2649.963,129.765,2802.847,258.77,2802.847,438.256z"/>
	</g>
	<g>
		<ellipse style="fill:#B8D5DC;" cx="1524.126" cy="1554.09" rx="1033.616" ry="96.112"/>
	</g>
	<g>
		<g>
			<path style="fill:#B8D5DC;" d="M1796.311,754.933l30.574,15.783c11.688,6.034,26.132,1.538,32.268-10.043l19.513-36.83
				c6.139-11.587,1.636-25.878-10.057-31.917l-21.624-11.167c-9.328-4.817-14.352-15.117-12.36-25.359
				c0.38-1.955,0.726-3.918,1.036-5.891c1.513-9.613,9.011-17.248,18.624-19.29l21.681-4.604
				c12.92-2.744,21.173-15.329,18.433-28.105l-8.712-40.613c-2.738-12.765-15.415-20.891-28.325-18.156l-21.705,4.598
				c-9.6,2.034-19.558-1.88-24.877-10.024c-1.087-1.664-2.202-3.306-3.346-4.926c-6.032-8.542-5.676-20,0.871-28.198l15.156-18.979
				c8.198-10.266,6.452-25.14-3.898-33.222l-32.92-25.705c-10.348-8.08-25.378-6.312-33.576,3.948l-21.453,26.85
				c-5.782,7.236-15.256,10.439-24.321,8.369c-7.624-1.741-15.412-2.963-23.314-3.637c-10.547-0.899-19.303-8.373-21.497-18.617
				l-5.632-26.294c-2.737-12.776-15.43-20.907-28.347-18.158l-41.052,8.735c-12.913,2.748-21.161,15.327-18.424,28.099l7.579,35.367
				c1.924,8.978-1.479,18.347-8.905,23.875c-1.794,1.336-3.558,2.704-5.291,4.105c-7.376,5.96-17.653,6.919-26.071,2.566
				l-34.492-17.835c-11.689-6.044-26.144-1.551-32.283,10.036l-19.528,36.857c-6.138,11.585-1.637,25.874,10.052,31.915
				l29.638,15.315c9.095,4.7,14.095,14.628,12.479,24.672c-0.017,0.109-0.035,0.218-0.052,0.326
				c-1.535,9.664-8.976,17.383-18.643,19.435l-30.749,6.527c-12.921,2.743-21.177,15.329-18.435,28.107l8.72,40.64
				c2.741,12.775,15.436,20.901,28.353,18.149l30.721-6.547c9.667-2.06,19.627,1.958,24.989,10.158
				c0.068,0.103,0.135,0.206,0.203,0.309c5.595,8.515,5.099,19.615-1.283,27.604l-20.774,26.007
				c-8.203,10.269-6.454,25.152,3.906,33.233l32.946,25.697c10.353,8.075,25.385,6.298,33.577-3.969l24.184-30.313
				c5.901-7.397,15.677-10.7,24.854-8.256c2.152,0.573,4.32,1.104,6.501,1.592c9.043,2.024,15.987,9.193,17.907,18.169l7.568,35.376
				c2.733,12.777,15.423,20.911,28.341,18.166l41.08-8.728c12.916-2.744,21.168-15.324,18.432-28.098l-5.636-26.31
				c-2.193-10.237,2.73-20.612,11.979-25.724c6.926-3.828,13.523-8.113,19.758-12.803
				C1778.083,751.61,1788.057,750.672,1796.311,754.933z M1687.33,717.106c-47.697,10.137-108.691-33.808-118.798-80.98
				c-10.092-47.116,31.37-94.591,79.047-104.692c47.66-10.157,93.875,34.822,103.982,81.994
				C1761.689,660.564,1735.028,706.968,1687.33,717.106z"/>
		</g>
		<g>
			<path style="fill:#366F90;" d="M1670.786,884.093c-11.355,0.001-21.567-7.837-24.011-19.261l-7.568-35.376
				c-1.875-8.763-8.691-15.68-17.365-17.621c-2.17-0.486-4.367-1.024-6.528-1.6c-8.875-2.361-18.342,0.78-24.113,8.011
				l-24.184,30.312c-8.42,10.554-23.929,12.39-34.573,4.087l-32.946-25.697c-5.161-4.026-8.423-9.804-9.184-16.271
				c-0.762-6.47,1.07-12.853,5.159-17.971l20.774-26.006c6.18-7.737,6.68-18.493,1.243-26.766l-0.152-0.233
				c-5.206-7.962-14.948-11.92-24.293-9.929l-30.721,6.547c-13.28,2.827-26.382-5.557-29.201-18.698l-8.719-40.639
				c-1.356-6.32-0.158-12.801,3.373-18.248c3.584-5.529,9.129-9.332,15.613-10.708l30.748-6.526
				c9.342-1.983,16.61-9.557,18.086-18.848l0.052-0.328c1.57-9.758-3.293-19.372-12.101-23.923l-29.638-15.315
				c-5.839-3.017-10.129-8.11-12.079-14.34c-1.94-6.2-1.328-12.785,1.723-18.544l19.528-36.858
				c6.312-11.913,21.224-16.55,33.242-10.335l34.491,17.835c8.232,4.255,18.159,3.279,25.294-2.487
				c1.745-1.41,3.533-2.797,5.313-4.122c7.123-5.303,10.511-14.39,8.633-23.152l-7.579-35.367
				c-1.354-6.317-0.157-12.794,3.371-18.239c3.582-5.527,9.122-9.329,15.603-10.708l41.052-8.735
				c13.28-2.826,26.38,5.566,29.194,18.708l5.632,26.293c2.124,9.916,10.506,17.172,20.859,18.055
				c7.855,0.67,15.732,1.899,23.413,3.652c8.796,2.008,18.06-1.179,23.604-8.119l21.454-26.851
				c8.427-10.548,23.937-12.372,34.573-4.065l32.92,25.705c5.157,4.026,8.415,9.804,9.175,16.268
				c0.76,6.468-1.072,12.846-5.158,17.963l-15.156,18.979c-6.397,8.01-6.737,18.997-0.846,27.34
				c1.147,1.623,2.278,3.288,3.361,4.948c5.09,7.792,14.789,11.694,24.131,9.716l21.704-4.598
				c13.271-2.815,26.356,5.579,29.172,18.706l8.713,40.613c1.355,6.32,0.158,12.8-3.372,18.247
				c-3.584,5.528-9.128,9.331-15.61,10.707l-21.682,4.605c-9.359,1.988-16.619,9.503-18.066,18.702
				c-0.314,1.992-0.664,3.982-1.041,5.917c-1.946,9.999,2.872,19.88,11.987,24.586l21.624,11.167
				c5.84,3.017,10.132,8.11,12.083,14.341c1.94,6.2,1.329,12.787-1.723,18.546l-19.513,36.829
				c-6.308,11.905-21.212,16.543-33.228,10.345l-30.575-15.783c-7.914-4.086-17.69-3.222-24.899,2.201
				c-6.289,4.731-12.965,9.057-19.842,12.858c-9.076,5.016-13.747,15.042-11.626,24.949l5.636,26.31
				c1.353,6.317,0.155,12.796-3.374,18.241c-3.584,5.527-9.127,9.329-15.608,10.706l-41.08,8.728
				C1674.227,883.915,1672.493,884.093,1670.786,884.093z M1609.391,808.03c2.095,0,4.208,0.268,6.29,0.824
				c2.144,0.571,4.321,1.105,6.473,1.586c9.217,2.063,16.459,9.409,18.45,18.717l7.568,35.377
				c2.648,12.373,14.981,20.273,27.493,17.616l41.08-8.728c6.108-1.298,11.33-4.88,14.706-10.086
				c3.321-5.124,4.45-11.22,3.177-17.164l-5.636-26.31c-2.255-10.527,2.702-21.176,12.331-26.499
				c6.82-3.769,13.439-8.058,19.675-12.749c7.646-5.753,18.016-6.667,26.415-2.33l30.575,15.783
				c11.322,5.845,25.367,1.474,31.308-9.743l19.513-36.83c2.871-5.42,3.448-11.617,1.621-17.45
				c-1.835-5.864-5.875-10.658-11.374-13.498l-21.624-11.167c-9.685-5.001-14.802-15.502-12.735-26.13
				c0.374-1.918,0.722-3.891,1.033-5.866c1.539-9.779,9.246-17.768,19.181-19.877l21.682-4.605
				c6.109-1.297,11.332-4.88,14.708-10.087c3.322-5.126,4.45-11.224,3.175-17.169l-8.713-40.614
				c-2.651-12.357-14.986-20.254-27.478-17.607l-21.704,4.598c-9.916,2.1-20.216-2.05-25.625-10.333
				c-1.073-1.645-2.194-3.295-3.331-4.904c-6.262-8.868-5.901-20.544,0.897-29.057l15.156-18.979
				c3.846-4.816,5.57-10.819,4.854-16.904c-0.714-6.083-3.781-11.519-8.634-15.309l-32.92-25.705
				c-10.025-7.826-24.637-6.108-32.578,3.831l-21.453,26.851c-5.885,7.365-15.712,10.75-25.039,8.62
				c-7.616-1.739-15.427-2.957-23.216-3.621c-10.983-0.936-19.879-8.644-22.135-19.18l-5.632-26.293
				c-2.652-12.373-14.987-20.27-27.5-17.609l-41.052,8.735c-6.106,1.299-11.326,4.882-14.7,10.088
				c-3.32,5.124-4.448,11.219-3.174,17.162l7.579,35.367c1.996,9.307-1.607,18.963-9.177,24.598
				c-1.765,1.314-3.538,2.689-5.268,4.087c-7.577,6.122-18.117,7.16-26.848,2.645l-34.492-17.835
				c-11.324-5.857-25.376-1.49-31.322,9.735l-19.528,36.857c-2.871,5.419-3.447,11.615-1.621,17.448
				c1.835,5.864,5.873,10.657,11.37,13.498l29.638,15.315c9.358,4.835,14.524,15.051,12.857,25.42l-0.052,0.326
				c-1.568,9.87-9.284,17.916-19.2,20.021l-30.749,6.526c-6.11,1.297-11.334,4.88-14.71,10.088
				c-3.323,5.126-4.45,11.224-3.174,17.17l8.72,40.64c2.654,12.371,14.997,20.263,27.505,17.6l30.721-6.547
				c9.92-2.113,20.26,2.093,25.736,10.466l0.204,0.312c5.774,8.788,5.244,20.218-1.324,28.44l-20.774,26.007
				c-3.848,4.818-5.573,10.823-4.856,16.911c0.717,6.085,3.786,11.523,8.644,15.311l32.946,25.697
				c10.026,7.822,24.64,6.096,32.578-3.852l24.184-30.312C1594.854,811.376,1602.007,808.03,1609.391,808.03z"/>
		</g>
	</g>
	<g>
		<g>
			<g>
				<path style="fill:#F5FBFA;" d="M1343.769,1019.566L883.41,1149.772c-6.772,1.915-13.78-2.171-15.449-9.008L728.286,568.56
					c-1.627-6.665,2.457-13.387,9.122-15.014l369.292-90.144l89.904,43.529l155.639,496.969
					C1354.334,1010.576,1350.501,1017.662,1343.769,1019.566z"/>
			</g>
			<g>
				<path style="fill:#EF8062;" d="M810.007,595.512c-0.1,0-0.201,0-0.301,0l-1.598-0.027c-8.205,0.368-14.959-1.986-19.72-6.64
					c-4.433-4.333-6.821-10.579-6.72-17.593l0.435-39.72c0.013-1.291,1.063-2.327,2.354-2.327c0.007,0,0.02,0,0.027,0
					c1.297,0.013,2.34,1.077,2.327,2.38l-0.435,39.727c-0.08,5.717,1.805,10.746,5.303,14.17c3.811,3.725,9.576,5.67,16.383,5.296
					l1.718,0.027c0.08,0,0.161,0,0.234,0c9.348,0,17.112-7.536,17.352-16.911l1.705-65.966c0.107-4.146-3.183-7.61-7.329-7.717
					l-14.49-0.375c-0.067,0-0.134,0-0.194,0c-4.066,0-7.416,3.243-7.523,7.329l-0.983,38.196c-0.053,2.006,0.682,3.919,2.066,5.376
					c1.384,1.458,3.257,2.287,5.263,2.34c2.026,0.007,3.919-0.682,5.376-2.066c1.458-1.384,2.287-3.25,2.34-5.263l0.629-24.367
					c0.033-1.297,1.183-2.16,2.414-2.294c1.297,0.033,2.327,1.117,2.294,2.414l-0.629,24.367c-0.087,3.27-1.438,6.306-3.805,8.559
					c-2.367,2.24-5.47,3.357-8.74,3.357c-3.27-0.087-6.306-1.438-8.559-3.805c-2.247-2.374-3.444-5.477-3.357-8.74l0.983-38.196
					c0.174-6.64,5.624-11.923,12.224-11.923c0.107,0,0.214,0.007,0.321,0.007l14.491,0.374c6.747,0.174,12.09,5.804,11.916,12.545
					l-1.705,65.967C831.772,585.929,821.903,595.512,810.007,595.512z"/>
			</g>
			<g>
				<g>
					<g>
						<path style="fill:#B8D5DC;" d="M1076.14,658.08l-233.616,56.18c-3.644,0.876-7.045-1.054-7.091-4.025l-0.055-3.54
							c-0.036-2.33,2.042-4.514,4.909-5.16l233.671-52.64c2.127-0.479,4.29-0.014,5.652,1.215l0,0
							C1082.439,652.664,1080.542,657.021,1076.14,658.08z"/>
					</g>
					<g>
						<path style="fill:#B8D5DC;" d="M994.964,710.841l-147.246,36.723c-2.297,0.573-4.657-1.592-4.922-4.514l-0.315-3.481
							c-0.208-2.291,0.969-4.272,2.78-4.68l147.562-33.242c1.343-0.303,2.784,0.325,3.766,1.64l0,0
							C998.626,706.02,997.738,710.149,994.964,710.841z"/>
					</g>
					<g>
						<path style="fill:#B8D5DC;" d="M1057.605,727.788l-201.84,49.021c-3.149,0.765-6.167-1.252-6.293-4.205l-0.151-3.518
							c-0.099-2.316,1.647-4.425,4.126-4.983l201.991-45.503c1.838-0.414,3.736,0.111,4.958,1.372l0,0
							C1062.935,722.59,1061.409,726.864,1057.605,727.788z"/>
					</g>
					<g>
						<path style="fill:#B8D5DC;" d="M1168.189,671.818l-147.246,36.723c-2.297,0.573-4.657-1.592-4.922-4.514l-0.315-3.481
							c-0.208-2.291,0.969-4.272,2.78-4.68l147.562-33.242c1.343-0.302,2.784,0.325,3.766,1.64l0,0
							C1171.852,666.997,1170.964,671.126,1168.189,671.818z"/>
					</g>
				</g>
				<g>
					<g>
						<path style="fill:#B8D5DC;" d="M1071.59,577.845l-183.55,44.901c-2.863,0.7-5.661-1.366-5.834-4.308L882,614.932
							c-0.135-2.307,1.42-4.374,3.675-4.882l183.755-41.395c1.672-0.377,3.417,0.183,4.559,1.462l0,0
							C1076.361,572.773,1075.049,576.999,1071.59,577.845z"/>
					</g>
					<g>
						<path style="fill:#B8D5DC;" d="M983.047,626.731l-136.635,34.332c-2.131,0.535-4.364-1.658-4.655-4.574l-0.347-3.474
							c-0.229-2.287,0.837-4.242,2.518-4.621l136.982-30.858c1.247-0.281,2.6,0.367,3.534,1.693l0,0
							C986.385,621.982,985.622,626.084,983.047,626.731z"/>
					</g>
					<g>
						<path style="fill:#B8D5DC;" d="M1144.27,590.412l-136.635,34.332c-2.131,0.536-4.364-1.658-4.656-4.574l-0.347-3.474
							c-0.229-2.287,0.837-4.242,2.518-4.621l136.982-30.858c1.247-0.281,2.599,0.367,3.534,1.692h0
							C1147.609,585.663,1146.845,589.765,1144.27,590.412z"/>
					</g>
				</g>
			</g>
		</g>
		<g>
			<g>
				<path style="fill:#B8D5DC;" d="M929.616,996.039c-12.993,0-24.882-8.744-28.29-21.892l-29.771-114.86
					c-4.042-15.596,5.358-31.574,20.954-35.617l106.031-27.482c7.557-1.957,15.421-0.857,22.148,3.1
					c6.727,3.958,11.51,10.298,13.468,17.854l29.771,114.86c1.958,7.555,0.857,15.42-3.1,22.148
					c-3.958,6.727-10.298,11.51-17.854,13.468L936.943,995.1C934.495,995.735,932.036,996.039,929.616,996.039z M1005.911,802.084
					c-1.885,0-3.781,0.24-5.654,0.726l-106.031,27.482c-11.945,3.096-19.144,15.333-16.048,27.278l29.771,114.86
					c3.096,11.945,15.333,19.141,27.278,16.048l106.031-27.483c5.786-1.5,10.642-5.163,13.674-10.315
					c3.031-5.152,3.874-11.176,2.374-16.963l-29.771-114.86c-1.5-5.787-5.163-10.642-10.315-13.674
					C1013.735,803.134,1009.85,802.084,1005.911,802.084z"/>
			</g>
		</g>
		<g>
			<path style="fill:#EF8062;" d="M971.75,945.144c-5.737,0-15.46-6.948-62.53-41.573c-5.242-3.852-6.366-11.227-2.508-16.47
				c3.858-5.236,11.241-6.353,16.47-2.508c15.6,11.475,32.699,23.819,43.325,31.208c7.984-18.182,26.54-59.895,69.992-157.069
				c2.648-5.945,9.636-8.626,15.561-5.945c5.938,2.655,8.606,9.622,5.945,15.56c-28.928,64.696-72.593,162.566-75.108,168.731
				c-1.177,3.23-3.731,5.844-6.988,7.061C974.418,944.696,973.214,945.144,971.75,945.144z"/>
		</g>
		<g>
			<path style="fill:#B8D5DC;" d="M1106.701,463.402l12.89,52.331c1.28,5.196,6.524,8.376,11.723,7.109l65.291-15.911
				L1106.701,463.402z"/>
		</g>
	</g>
	<g>
		<path style="fill:#331832;" d="M714.918,1439.255l-46.902-85.693l0.709-0.508l689.095-493.248l0.589,0.582l189.334,185.141
			l470.686-356.514l-84.101-111.03l2.354,0.328l301.741,41.706l-0.134,0.976l-41.793,303.125l-1.431-1.899l-82.65-109.124
			l-593.746,449.729l-0.595-0.776l-199.344-259.132L714.918,1439.255z M670.584,1354.15l44.99,82.202l603.555-436.148l0.582,0.756
			l199.331,259.112l593.745-449.729l0.595,0.782l81.815,108.007l41.004-297.428l-297.435-41.111l82.416,108.796l-0.782,0.595
			l-472.819,358.138l-189.962-185.749L670.584,1354.15z"/>
	</g>
	<g>
		<polygon style="fill:#6DA49A;" points="2246.854,665.791 1933.804,622.52 2020.463,736.929 1529.03,1109.163 1323.091,841.456 
			568.914,1386.451 640.597,1532.019 1290.955,1062.048 1499.048,1332.554 2117.052,864.45 2203.7,978.844 		"/>
	</g>
	<g>
		<g>
			<path style="fill:#331832;" d="M1341.13,597.136c-2.962,0-5.8-1.663-7.08-4.449l-4.187-9.111
				c-1.027-2.235-3.348-3.72-5.912-3.784c-2.367-0.058-4.75-0.28-7.085-0.658c-2.907-0.473-5.724,0.892-7.01,3.393l-3.605,7.007
				c-1.888,3.668-6.511,5.159-10.313,3.321l-11.225-5.427c-1.876-0.907-3.264-2.47-3.91-4.401c-0.625-1.871-0.472-3.867,0.432-5.622
				l4.849-9.419c1.134-2.203,0.854-4.85-0.715-6.745c-0.423-0.511-0.835-1.029-1.234-1.555c-1.547-2.03-4.203-2.969-6.77-2.395
				l-11.317,2.536c-4.127,0.929-8.28-1.577-9.259-5.576l-2.886-11.796c-0.467-1.908-0.151-3.88,0.888-5.555
				c1.08-1.74,2.8-2.95,4.844-3.407l9.715-2.171c2.74-0.611,4.757-2.843,5.021-5.552l0.011-0.111
				c0.256-2.57-1.197-5.083-3.616-6.251l-8.397-4.054c-1.877-0.906-3.266-2.469-3.913-4.4c-0.626-1.87-0.474-3.866,0.428-5.622
				l5.565-10.826c1.888-3.672,6.515-5.164,10.316-3.323l8.401,4.063c2.427,1.174,5.385,0.783,7.362-0.973
				c2.145-1.897,2.773-4.792,1.635-7.271l-4.056-8.835c-0.827-1.802-0.891-3.81-0.177-5.651c0.732-1.891,2.186-3.379,4.095-4.19
				l11.453-4.866c3.873-1.647,8.43,0.071,10.154,3.828l4.718,10.285c1.058,2.307,3.403,3.789,5.984,3.789c0.02,0,0.04,0,0.061,0
				c0.678-0.007,1.35,0.001,2.025,0.02c2.515,0.075,4.884-1.308,6.022-3.52l4.845-9.42c1.887-3.668,6.513-5.158,10.311-3.324
				l11.219,5.42c1.876,0.907,3.265,2.47,3.911,4.401c0.625,1.87,0.473,3.867-0.43,5.622l-3.603,7.003
				c-1.283,2.492-0.713,5.481,1.417,7.438c1.719,1.58,3.34,3.294,4.818,5.094c1.593,1.941,4.213,2.843,6.68,2.29l10.031-2.241
				c4.13-0.918,8.28,1.583,9.256,5.582l2.879,11.793c0.465,1.907,0.149,3.879-0.891,5.553c-1.08,1.739-2.8,2.948-4.842,3.405
				l-7.089,1.586c-2.836,0.634-4.859,2.941-5.034,5.742c-0.036,0.582-0.083,1.164-0.141,1.746c-0.254,2.54,1.198,5.033,3.615,6.203
				l5.928,2.871c1.874,0.908,3.261,2.47,3.906,4.4c0.624,1.869,0.472,3.864-0.43,5.617l-5.562,10.819
				c-1.887,3.671-6.515,5.163-10.315,3.324l-5.924-2.865c-2.429-1.174-5.376-0.797-7.33,0.943c-0.446,0.397-0.9,0.787-1.359,1.167
				c-2.196,1.819-2.88,4.764-1.703,7.328l2.96,6.445c0.828,1.803,0.892,3.81,0.179,5.652c-0.732,1.891-2.186,3.379-4.095,4.19
				l-11.445,4.863C1343.204,596.935,1342.159,597.136,1341.13,597.136z M1315.724,577.903c0.437,0,0.88,0.036,1.325,0.107
				c2.284,0.37,4.616,0.588,6.93,0.644c2.995,0.074,5.711,1.819,6.918,4.446l4.187,9.111c1.472,3.2,5.361,4.659,8.673,3.251
				l11.445-4.863c1.623-0.689,2.859-1.951,3.479-3.553c0.601-1.553,0.547-3.245-0.152-4.766l-2.961-6.445
				c-1.374-2.992-0.547-6.561,2.011-8.68c0.449-0.372,0.892-0.752,1.328-1.141c2.293-2.042,5.743-2.491,8.583-1.117l5.924,2.865
				c3.249,1.571,7.2,0.306,8.807-2.819l5.562-10.819c0.76-1.479,0.889-3.161,0.363-4.736c-0.547-1.637-1.727-2.964-3.322-3.737
				l-5.928-2.871c-2.845-1.377-4.554-4.327-4.252-7.341c0.057-0.567,0.102-1.136,0.138-1.703c0.207-3.311,2.586-6.037,5.922-6.783
				l7.089-1.586c1.742-0.389,3.206-1.417,4.123-2.894c0.877-1.412,1.144-3.075,0.752-4.683l-2.879-11.793
				c-0.83-3.4-4.375-5.526-7.901-4.74l-10.031,2.241c-2.881,0.642-5.944-0.408-7.808-2.679c-1.444-1.759-3.028-3.433-4.709-4.977
				c-2.512-2.308-3.178-5.843-1.658-8.798l3.603-7.003c0.762-1.48,0.89-3.163,0.363-4.74c-0.548-1.638-1.73-2.965-3.327-3.737
				l-11.219-5.42c-3.249-1.572-7.197-0.305-8.803,2.819l-4.845,9.42c-1.339,2.599-4.138,4.212-7.068,4.137
				c-0.66-0.02-1.318-0.027-1.981-0.02c-0.023,0.001-0.047,0.001-0.071,0.001c-3.026,0-5.776-1.742-7.02-4.453l-4.718-10.285
				c-1.469-3.202-5.358-4.663-8.674-3.255l-11.453,4.866c-1.623,0.689-2.858,1.952-3.478,3.553
				c-0.601,1.552-0.548,3.245,0.151,4.766l4.056,8.835c1.348,2.937,0.608,6.366-1.842,8.532c-2.389,2.122-5.85,2.582-8.686,1.211
				l-8.401-4.063c-3.251-1.573-7.2-0.307-8.807,2.819l-5.565,10.826c-0.761,1.48-0.889,3.164-0.361,4.74
				c0.549,1.638,1.731,2.965,3.328,3.736l8.397,4.054c2.847,1.374,4.557,4.345,4.254,7.391c-0.322,3.306-2.695,5.94-5.916,6.659
				l-9.715,2.171c-1.743,0.39-3.208,1.418-4.125,2.896c-0.877,1.413-1.143,3.076-0.749,4.684l2.886,11.796
				c0.832,3.402,4.376,5.522,7.904,4.736l11.317-2.536c3.003-0.672,6.11,0.434,7.925,2.816c0.391,0.513,0.793,1.02,1.205,1.518
				c1.86,2.246,2.193,5.383,0.85,7.992l-4.849,9.419c-0.762,1.48-0.891,3.163-0.364,4.74c0.548,1.638,1.729,2.965,3.326,3.738
				l11.225,5.427c3.247,1.568,7.198,0.306,8.805-2.818l3.605-7.007C1310.158,579.45,1312.821,577.903,1315.724,577.903z"/>
		</g>
		<g>
			<path style="fill:#331832;" d="M1323.069,558.177c-3.8,0-7.652-0.84-11.307-2.606v-0.001
				c-6.004-2.903-10.963-9.101-13.605-17.005c-2.813-8.416-2.531-17.254,0.756-23.644c6.745-13.106,26.044-15.993,38.792-9.819
				c5.243,2.531,9.102,7.118,11.159,13.266c2.643,7.897,1.893,17.453-1.958,24.94C1342.06,552.74,1332.736,558.177,1323.069,558.177
				z M1312.257,554.545c12.394,5.992,27.169,0.828,33.635-11.758c3.716-7.223,4.441-16.441,1.892-24.058
				c-1.958-5.85-5.615-10.208-10.575-12.602c-12.278-5.946-30.832-3.225-37.285,9.315c-3.15,6.122-3.407,14.631-0.689,22.762
				C1301.782,545.819,1306.528,551.776,1312.257,554.545L1312.257,554.545z"/>
		</g>
	</g>
	<g>
		<g>
			<path style="fill:#EF8062;" d="M1249.766,814.411l-0.724,15.416c-0.277,5.893,4.237,10.883,10.083,11.148l18.593,0.841
				c5.849,0.265,10.818-4.301,11.096-10.198l0.514-10.904c0.222-4.704,3.472-8.715,8.003-9.873c0.865-0.221,1.727-0.458,2.586-0.71
				c4.187-1.231,8.683,0.342,11.301,3.846l5.904,7.902c3.518,4.709,10.166,5.639,14.847,2.077l14.879-11.321
				c4.677-3.558,5.62-10.254,2.107-14.96l-5.906-7.912c-2.612-3.5-2.875-8.285-0.555-12.003c0.474-0.759,0.934-1.527,1.379-2.301
				c2.348-4.083,7.069-6.136,11.618-5.056l10.53,2.5c5.695,1.352,11.414-2.208,12.772-7.953l4.319-18.27
				c1.358-5.743-2.156-11.494-7.85-12.847l-14.899-3.542c-4.016-0.955-7.079-4.179-7.925-8.249
				c-0.711-3.423-1.663-6.813-2.859-10.144c-1.597-4.446-0.189-9.427,3.564-12.282l9.635-7.326
				c4.681-3.56,5.623-10.262,2.104-14.969l-11.185-14.958c-3.518-4.705-10.163-5.634-14.843-2.075l-12.958,9.856
				c-3.29,2.502-7.729,2.92-11.356,0.972c-0.876-0.471-1.76-0.923-2.652-1.356c-3.793-1.845-6.095-5.825-5.892-10.071l0.83-17.397
				c0.281-5.896-4.233-10.891-10.083-11.155l-18.606-0.842c-5.849-0.265-10.817,4.3-11.096,10.195l-0.708,14.947
				c-0.217,4.587-3.321,8.517-7.702,9.789c-0.047,0.014-0.095,0.028-0.142,0.042c-4.212,1.232-8.732-0.302-11.364-3.826
				l-8.371-11.207c-3.518-4.71-10.167-5.64-14.848-2.078l-14.889,11.329c-4.68,3.561-5.62,10.264-2.099,14.97l8.375,11.192
				c2.635,3.522,2.855,8.328,0.522,12.074c-0.029,0.047-0.059,0.094-0.088,0.141c-2.418,3.9-7.02,5.829-11.453,4.776l-14.43-3.429
				c-5.698-1.354-11.419,2.21-12.775,7.958l-4.311,18.279c-1.355,5.744,2.163,11.494,7.858,12.843l16.814,3.984
				c4.103,0.972,7.263,4.3,7.977,8.487c0.168,0.982,0.355,1.962,0.563,2.94c0.86,4.052-0.761,8.241-4.05,10.741l-12.964,9.853
				c-4.682,3.558-5.626,10.26-2.108,14.968l11.188,14.971c3.518,4.707,10.163,5.638,14.844,2.078l9.64-7.331
				c3.751-2.852,8.882-2.848,12.679-0.081c2.844,2.072,5.812,3.923,8.877,5.549C1247.725,806.387,1249.961,810.249,1249.766,814.411
				z M1244.861,762.997c-12.991-17.382-6.484-50.525,10.8-63.669c17.265-13.127,44.265-5.434,57.238,11.946
				c12.992,17.363,3.316,44.716-13.968,57.86C1281.664,782.28,1257.852,780.379,1244.861,762.997z"/>
		</g>
	</g>
	<g>
		<g>
			<path style="fill:#331832;" d="M1211.984,1005.521c-0.301,0-0.602-0.027-0.903-0.073l-40.209-6.633
				c-3.009-0.495-5.049-3.337-4.554-6.346c0.502-3.016,3.397-4.968,6.346-4.554l40.208,6.633c3.009,0.495,5.049,3.337,4.554,6.346
				C1216.98,1003.601,1214.639,1005.521,1211.984,1005.521z"/>
		</g>
		<g>
			<path style="fill:#331832;" d="M1752.556,1094.711c-0.321,0-0.649-0.027-0.983-0.087l-42.93-7.697
				c-3.002-0.542-4.995-3.41-4.46-6.413c0.542-2.996,3.377-5.015,6.413-4.46l42.93,7.697c3.002,0.542,4.995,3.41,4.46,6.413
				C1757.504,1092.832,1755.177,1094.711,1752.556,1094.711z"/>
		</g>
	</g>
	<g>
		<g>
			<path style="fill:#502A53;" d="M1568.095,764.218l-43.974-12.594c-16.032-4.591-25.306-21.31-20.714-37.342l15.613-54.514
				c4.591-16.032,21.31-25.306,37.342-20.715l43.973,12.594c16.032,4.591,25.306,21.31,20.715,37.342l-15.613,54.514
				C1600.845,759.535,1584.127,768.809,1568.095,764.218z"/>
		</g>
		<g>
			<path style="fill:#EF8062;" d="M1618.1,692.512l-98.444-28.194c-13.093-3.75-20.667-17.404-16.917-30.497l0-0.001
				c3.75-13.093,17.404-20.667,30.497-16.918l98.444,28.194c13.093,3.75,20.668,17.404,16.917,30.497v0
				C1644.848,688.688,1631.193,696.262,1618.1,692.512z"/>
		</g>
		<g>
			
				<ellipse transform="matrix(0.2753 -0.9613 0.9613 0.2753 61.8043 2150.967)" style="fill:#764678;" cx="1457.65" cy="1034.488" rx="333.947" ry="339.378"/>
		</g>
		<g>
			
				<ellipse transform="matrix(0.2753 -0.9614 0.9614 0.2753 61.8142 2150.9795)" style="fill:#E6F1EF;" cx="1457.65" cy="1034.488" rx="303.056" ry="307.985"/>
		</g>
		<g>
			<g>
				<path style="fill:#331832;" d="M1518.453,832.349c-0.455,0-0.923-0.06-1.378-0.201c-2.601-0.762-4.086-3.484-3.323-6.078
					l12.11-41.252c0.762-2.608,3.491-4.153,6.078-3.323c2.601,0.762,4.086,3.484,3.323,6.078l-12.11,41.252
					C1522.525,830.965,1520.573,832.349,1518.453,832.349z"/>
			</g>
		</g>
		<g>
			<g>
				<path style="fill:#331832;" d="M1387.797,1288.558c-0.455,0-0.923-0.06-1.378-0.201c-2.601-0.762-4.086-3.484-3.323-6.078
					l12.11-41.252c0.756-2.608,3.491-4.153,6.078-3.323c2.601,0.762,4.086,3.484,3.323,6.078l-12.11,41.252
					C1391.87,1287.174,1389.917,1288.558,1387.797,1288.558z"/>
			</g>
		</g>
		<g>
			<g>
				<path style="fill:#331832;" d="M1540.761,1285.328c-2.053,0-3.965-1.297-4.647-3.35l-5.416-16.263
					c-0.856-2.568,0.528-5.343,3.096-6.199c2.561-0.863,5.343,0.522,6.199,3.096l5.417,16.263c0.856,2.568-0.528,5.343-3.096,6.199
					C1541.797,1285.248,1541.276,1285.328,1540.761,1285.328z"/>
			</g>
			<g>
				<path style="fill:#331832;" d="M1384.246,814.983c-2.053,0-3.965-1.297-4.647-3.35l-6.901-20.729
					c-0.856-2.575,0.528-5.35,3.103-6.199c2.514-0.889,5.336,0.528,6.192,3.096l6.901,20.729c0.856,2.575-0.528,5.35-3.103,6.199
					C1385.283,814.903,1384.761,814.983,1384.246,814.983z"/>
			</g>
		</g>
		<g>
			<g>
				<path style="fill:#331832;" d="M1646.755,1218.285c-1.217,0-2.427-0.448-3.377-1.351l-11.127-10.592
					c-1.966-1.866-2.04-4.968-0.174-6.927c1.872-1.966,4.975-2.033,6.928-0.174l11.127,10.592c1.966,1.866,2.04,4.968,0.174,6.928
					C1649.343,1217.777,1648.052,1218.285,1646.755,1218.285z"/>
			</g>
			<g>
				<path style="fill:#331832;" d="M1283.99,872.979c-1.217,0-2.434-0.448-3.377-1.351l-12.11-11.528
					c-1.966-1.866-2.04-4.968-0.174-6.928c1.872-1.966,4.975-2.026,6.928-0.174l12.11,11.528c1.966,1.866,2.039,4.968,0.174,6.928
					C1286.577,872.471,1285.287,872.979,1283.99,872.979z"/>
			</g>
		</g>
		<g>
			<g>
				<path style="fill:#331832;" d="M1266.57,1212.528c-1.498,0-2.982-0.682-3.939-1.979c-1.618-2.173-1.164-5.242,1.01-6.854
					l17.139-12.725c2.187-1.625,5.263-1.15,6.854,1.01c1.618,2.173,1.164,5.243-1.01,6.854l-17.139,12.725
					C1268.609,1212.214,1267.58,1212.528,1266.57,1212.528z"/>
			</g>
			<g>
				<path style="fill:#331832;" d="M1636.832,880.856c-1.344,0-2.682-0.548-3.651-1.632c-1.805-2.019-1.638-5.115,0.381-6.921
					l15.239-13.648c2.019-1.799,5.116-1.638,6.921,0.381s1.638,5.116-0.381,6.921l-15.24,13.648
					C1639.166,880.442,1637.995,880.856,1636.832,880.856z"/>
			</g>
		</g>
		<g>
			<g>
				<path style="fill:#331832;" d="M1209.932,1108.941c-2.153,0-4.119-1.424-4.721-3.591c-0.722-2.608,0.802-5.31,3.41-6.032
					l12.518-3.471c2.675-0.695,5.316,0.816,6.032,3.41c0.722,2.608-0.802,5.309-3.41,6.032l-12.518,3.47
					C1210.801,1108.88,1210.36,1108.941,1209.932,1108.941z"/>
			</g>
			<g>
				<path style="fill:#331832;" d="M1689.973,975.984c-2.153,0-4.119-1.424-4.721-3.591c-0.722-2.608,0.802-5.31,3.41-6.032
					l18.73-5.189c2.688-0.722,5.309,0.823,6.032,3.41c0.722,2.608-0.802,5.309-3.41,6.032l-18.73,5.189
					C1690.842,975.924,1690.401,975.984,1689.973,975.984z"/>
			</g>
		</g>
		<g>
			<path style="fill:#331832;" d="M1466.342,1045.99c-1.739,0-3.424-0.923-4.313-2.561L1361.11,857.987
				c-1.291-2.374-0.415-5.349,1.966-6.647c2.367-1.291,5.349-0.415,6.647,1.966l100.919,185.442
				c1.291,2.374,0.415,5.349-1.966,6.647C1467.933,1045.796,1467.131,1045.99,1466.342,1045.99z"/>
		</g>
		<g>
			<path style="fill:#EF8062;" d="M1468.462,1043.054c-2.782,0-5.557-1.13-7.583-3.35c-3.812-4.193-3.504-10.672,0.682-14.484
				l128.409-116.814c4.186-3.798,10.659-3.511,14.484,0.682c3.812,4.193,3.504,10.672-0.682,14.484l-128.409,116.814
				C1473.397,1042.172,1470.929,1043.054,1468.462,1043.054z"/>
		</g>
		<g>
			
				<ellipse transform="matrix(0.5899 -0.8075 0.8075 0.5899 -232.5761 1605.5477)" style="fill:#502A53;" cx="1464.309" cy="1031.736" rx="24.876" ry="24.876"/>
		</g>
	</g>
	<g>
		<g>
			<g>
				<path style="fill:#331832;" d="M1675.07,1534.213c0,0,0.268,10.702,7.51,13.721c7.241,3.018,28.223,5.742,20.383,12.623
					c-4.499,3.948-25.7,1.397-31.685,1.397c-5.986,0-11.606,2.609-16.054-1.397c-4.894-4.407,0-26.344,0-26.344
					s5.165,2.691,9.811,2.57C1671.728,1536.609,1675.07,1534.213,1675.07,1534.213z"/>
			</g>
			<g>
				<path style="fill:#73B3CE;" d="M1737.546,1211.247c0,0,1.445,48.297-13.968,140.947
					c-11.127,66.887-24.263,134.287-30.708,166.599c-2.305,11.558-12.026,20.01-23.547,20.472l-6.191,0.248
					c-12.457,0.5-22.567-10.201-21.658-22.922l15.634-218.608l3.853-71.952L1737.546,1211.247z"/>
			</g>
			<g>
				<path style="fill:#331832;" d="M1606.486,1534.213c0,0,0.268,10.702,7.51,13.721c7.241,3.018,28.223,5.742,20.383,12.623
					c-4.499,3.948-25.7,1.397-31.686,1.397c-5.986,0-11.606,2.609-16.054-1.397c-4.894-4.407,0-26.344,0-26.344
					s5.165,2.691,9.811,2.57C1603.145,1536.609,1606.486,1534.213,1606.486,1534.213z"/>
			</g>
			<g>
				<path style="fill:#73B3CE;" d="M1668.962,1211.247c0,0,1.445,48.297-13.968,140.947
					c-11.127,66.887-24.263,134.287-30.708,166.599c-2.305,11.558-12.026,20.01-23.547,20.472l-6.191,0.248
					c-12.457,0.5-22.567-10.201-21.657-22.922l15.634-218.608l3.853-71.952L1668.962,1211.247z"/>
			</g>
			<g>
				<path style="fill:#331832;" d="M1584.805,1264.177c0.149,5.827,35.384,8.141,78.963,6.782
					c43.579-1.359,78.403-7.386,78.254-13.213c-0.149-5.827-35.215-9.248-78.794-7.889
					C1619.65,1251.217,1584.656,1258.35,1584.805,1264.177z"/>
			</g>
			<g>
				<path style="fill:#366F90;" d="M1595.473,1099.21c0,0,7.706-30.542,64.563-30.852c81.993-0.447,74.401,74.892,81.988,189.387
					c0,0-80.764-11.422-157.259,4.997C1584.765,1262.743,1577.669,1145.878,1595.473,1099.21z"/>
			</g>
			<g>
				<path style="fill:#366F90;" d="M1574.486,1094.83l37.135,20.546c0,0,81.31,7.384,102.895,3.828
					c21.585-3.556,27.507-19.406,27.507-19.406s-22.99-23.787-62.065-30.138c-3.671-0.602-7.479-1.043-11.427-1.3
					c-6.627-0.427-13.265-0.338-19.752,0.393C1599.255,1074.335,1574.486,1094.83,1574.486,1094.83z"/>
			</g>
			<g>
				<path style="fill:#FFB27D;" d="M1652.219,1061.368l4.292-13.851l1.249-4.033l7.345-23.711l0.967,23.585l0.578,14.157
					l0.183,4.481c0.124,3.042,0.693,6.076,2.95,8.72c0.914,1.071,4.445,7.397-2.221,10.271c-5.366,2.313-20.104-4.046-25.983-11.295
					C1641.625,1069.682,1650.832,1065.845,1652.219,1061.368z"/>
			</g>
			<g>
				<path style="fill:#73B3CE;" d="M1735.161,1262.459c0,0-47.219-13.893-145.011,5.177l-0.754,14.068l143.356,5.067
					L1735.161,1262.459z"/>
			</g>
			<g>
				<path style="fill:#331832;" d="M1573.713,1095.687c-3.129,4.469,3.93,15.027,15.766,23.584
					c11.836,8.557,23.968,11.87,27.096,7.402s-3.93-15.027-15.766-23.584C1588.974,1094.532,1576.842,1091.218,1573.713,1095.687z"
					/>
			</g>
			<g>
				<path style="fill:#331832;" d="M1727.4,1116.43c-2.354-8.492-10.264-19.171-10.345-19.278l0.749-0.562
					c0.08,0.107,8.098,10.933,10.492,19.586L1727.4,1116.43z"/>
			</g>
			<g>
				<path style="fill:#331832;" d="M1666.65,1057.516c0,0-8.134-1.523-11.291-6.282l11.933,2.582L1666.65,1057.516z"/>
			</g>
			<g>
				<path style="fill:#5C305D;" d="M1684.007,1010.87c0,0,1.498,5.739,0,12.935c-1.498,7.196-8.816-10.492-8.816-10.492
					L1684.007,1010.87z"/>
			</g>
			<g>
				
					<ellipse transform="matrix(0.9915 -0.1302 0.1302 0.9915 -119.7354 225.3465)" style="fill:#FFB27D;" cx="1663.985" cy="1028.624" rx="21.071" ry="25.408"/>
			</g>
			<g>
				<path style="fill:#331832;" d="M1642.567,1024.093l10.2-1.058c2.243-0.233,4.294-1.437,5.508-3.337
					c2.089-3.271,4.605-4.95,14.119-4.593c12.048,0.452,20.003-6.73,21.304-13.034c1.328-6.434-4.837-10.795-10.888-7.728
					c-6.051,3.068-3.454-4.456-9.273-5.254c-10.874-1.492-12.911,6.89-21.813,6.617c-11.673-0.357-32.583,8.513-22.666,29.062
					L1642.567,1024.093z"/>
			</g>
			<g>
				<path style="fill:#080435;" d="M1665.094,1027.559c0.109-0.069,0.186-0.187,0.198-0.326c0.019-0.235-0.155-0.441-0.389-0.461
					c-0.138-0.012-3.32-0.581-4.923,2.802c-0.101,0.213-0.019,0.468,0.192,0.573c0.211,0.105,0.424-0.008,0.573-0.192
					c1.488-1.837,3.972-2.341,4.087-2.332C1664.927,1027.632,1665.018,1027.607,1665.094,1027.559z"/>
			</g>
			<g>
				<path style="fill:#080435;" d="M1663.242,1033.039c0.268,0.983,1.064,1.623,1.778,1.428c0.714-0.195,1.074-1.15,0.806-2.133
					c-0.268-0.983-1.064-1.623-1.778-1.428C1663.335,1031.1,1662.974,1032.055,1663.242,1033.039z"/>
			</g>
			<g>
				<path style="fill:#080435;" d="M1680.896,1026.291c0.099-0.017,0.186-0.092,0.231-0.213c0.076-0.204,0.002-0.462-0.166-0.578
					c-0.099-0.068-2.291-1.899-4.355,0.495c-0.13,0.151-0.137,0.415-0.009,0.597c0.128,0.182,0.314,0.168,0.472,0.064
					c1.575-1.044,3.535-0.471,3.617-0.415C1680.755,1026.288,1680.828,1026.303,1680.896,1026.291z"/>
			</g>
			<g>
				<path style="fill:#080435;" d="M1677.001,1030.669c-0.126,1.011,0.366,1.906,1.1,1.998c0.734,0.092,1.431-0.654,1.558-1.665
					c0.127-1.011-0.366-1.906-1.1-1.998C1677.825,1028.912,1677.127,1029.657,1677.001,1030.669z"/>
			</g>
			<g>
				<path style="fill:#5C305D;" d="M1629.057,1024.767c0,0,7.042,15.2,17.031,16.315c0,0-5.59-13.298,8.947-18.643
					C1655.035,1022.439,1639.405,1019.98,1629.057,1024.767z"/>
			</g>
			<g>
				<path style="fill:#FFB27D;" d="M1643.47,1033.664c1.642,2.549,4.516,3.622,6.418,2.397c1.902-1.225,2.112-4.285,0.47-6.835
					c-1.642-2.549-4.516-3.622-6.418-2.397C1642.038,1028.055,1641.827,1031.115,1643.47,1033.664z"/>
			</g>
			<g>
				<path style="fill:#FFFFFF;" d="M1678.831,1040.358c0,0-6.568,1.778-13.745,1.083c0,0,1.053,6.646,8.315,5.322
					C1677.624,1045.992,1678.831,1040.358,1678.831,1040.358z"/>
			</g>
			<g>
				<path style="fill:#331832;" d="M1681.521,993.337c-3.163,0-3.45-2.728-3.457-2.755l0.575-0.053
					c0.007,0.094,0.254,2.233,2.882,2.233c0.047,0,0.1,0,0.154,0l0.013,0.575C1681.634,993.337,1681.574,993.337,1681.521,993.337z"
					/>
			</g>
			<g>
				<path style="fill:#FFFFFF;" d="M1675.81,1011.733l-0.08-0.281c0.127-0.033,12.946-3.838,13.481-10.438
					c0.147-1.866-0.167-3.103-0.956-3.785c-1.257-1.083-3.571-0.562-5.617-0.08c-0.321,0.073-0.629,0.14-0.923,0.207l-0.067-0.281
					c0.301-0.067,0.609-0.134,0.923-0.207c2.1-0.502,4.494-1.05,5.871,0.141c0.863,0.749,1.21,2.066,1.05,4.032
					C1688.943,1007.834,1676.345,1011.572,1675.81,1011.733z"/>
			</g>
			<g>
				<path style="fill:#FFFFFF;" d="M1650.56,998.346c-1.204,0-2.488-0.08-3.845-0.268l0.04-0.281
					c1.344,0.181,2.615,0.261,3.805,0.261c9.93,0,14.745-5.61,14.791-5.677l0.227,0.187
					C1665.519,992.628,1660.631,998.346,1650.56,998.346z"/>
			</g>
			<g>
				<path style="fill:#331832;" d="M1652.299,1370.386l-0.722-0.147c0.12-0.582,12.284-58.063,18.877-71.256
					c6.667-13.334,17.199-14.163,17.299-14.17l0.053,0.735c-0.107,0.007-10.224,0.829-16.697,13.768
					C1664.563,1312.424,1652.419,1369.811,1652.299,1370.386z"/>
			</g>
		</g>
		<g>
			<g>
				<circle style="fill:#EF8062;" cx="1889.024" cy="1304.733" r="251.665"/>
			</g>
			<g>
				<circle style="fill:#F5FBFA;" cx="1889.024" cy="1304.733" r="202.17"/>
			</g>
			<g>
				
					<ellipse transform="matrix(0.7071 -0.7071 0.7071 0.7071 -369.3035 1717.8889)" style="fill:#EF8062;" cx="1889.024" cy="1304.733" rx="146.493" ry="146.493"/>
			</g>
			<g>
				
					<ellipse transform="matrix(0.7071 -0.7071 0.7071 0.7071 -369.3035 1717.8889)" style="fill:#F5FBFA;" cx="1889.024" cy="1304.733" rx="98.372" ry="98.372"/>
			</g>
			<g>
				<circle style="fill:#EF8062;" cx="1889.024" cy="1304.733" r="48.035"/>
			</g>
		</g>
		<g>
			<g>
				<g>
					<g>
						<path style="fill:#FFB27D;" d="M1686.193,1177.567c0,0,10.227-14.407,20.506-15.544c10.279-1.138,24.269,5.181,18.047,7.239
							s-14.899,2.492-14.899,2.492s18.581-0.055,16.712,4.296c-1.869,4.351-18.029,4.243-18.029,4.243s22.115,1.696,19.019,5.235
							c-3.097,3.538-19.888,2.131-19.888,2.131s20.513,2.401,16.82,6.427s-16.939-2.094-18.808,2.257s-10.765,21.001-23.494,17.283
							L1686.193,1177.567z"/>
					</g>
				</g>
				<g>
					<path style="fill:#E9845C;" d="M1702.658,1173.623l-0.562-0.522c2.294-2.501,7.596-1.765,7.804-1.725l-0.107,0.749
						C1709.74,1172.119,1704.684,1171.417,1702.658,1173.623z"/>
				</g>
				<g>
					<path style="fill:#E9845C;" d="M1699.836,1182.524l-0.455-0.615c3.872-2.849,8.981-2.046,9.208-1.993l-0.12,0.749
						C1708.415,1180.658,1703.447,1179.882,1699.836,1182.524z"/>
				</g>
				<g>
					<path style="fill:#E9845C;" d="M1699.582,1189.699l-0.602-0.468c2.227-2.869,8.479-1.993,8.733-1.946l-0.107,0.749
						C1707.54,1188.04,1701.541,1187.171,1699.582,1189.699z"/>
				</g>
			</g>
			<g>
				<g>
					<path style="fill:#FFB27D;" d="M1685.697,1214.161c7.06-0.489,2.565-37.111,2.565-37.111
						c-40.944,7.204-59.388-1.614-67.65-10.278c-16.675-17.487-10.288-46.078-10.215-46.401c0,0,0.899-5.287-12.37-11.604
						c-6.376-3.035-11.531-3.766-15.031-3.761c-2.958,0.004-5.489,2.111-6.02,5.021c-2.453,13.439-7.393,54.483,17.719,81.049
						C1611.87,1209.248,1651.387,1216.538,1685.697,1214.161z"/>
				</g>
			</g>
			<g style="opacity:0.5;">
				<path style="fill:#EC865C;" d="M1614.538,1196.151c-1.953,0-4.099-0.548-6.105-1.605c-5.042-2.641-7.643-7.436-5.925-10.926
					c0.635-1.284,1.792-2.227,3.337-2.735c2.514-0.816,5.804-0.368,8.8,1.204c5.042,2.641,7.643,7.443,5.918,10.933
					c-0.635,1.284-1.792,2.227-3.337,2.728C1616.396,1196.018,1615.487,1196.151,1614.538,1196.151z M1608.553,1182.356
					c-0.762,0-1.478,0.1-2.127,0.314c-0.735,0.241-1.725,0.742-2.233,1.779c-1.224,2.481,1.117,6.346,5.109,8.439l0,0
					c2.561,1.351,5.329,1.759,7.342,1.077c0.736-0.234,1.725-0.736,2.234-1.772c1.23-2.487-1.103-6.353-5.102-8.445
					C1612.03,1182.831,1610.191,1182.356,1608.553,1182.356z"/>
			</g>
		</g>
		<g>
			<g>
				<path style="fill:#FFB27D;" d="M1777.84,1066.606c0,0,7.243-5.423,12.147,1.224c6.247,8.468,5.911,25.008,1.879,19.697
					c-3.575-4.709-7.051-12.614-7.051-12.614s8.557,20.222,3.751,20.563c-4.806,0.341-11.928-17.147-11.928-17.147
					s6.474,20.473,1.829,19.325c-4.645-1.148-11.21-16.987-11.21-16.987s7.405,19.668,2.041,18.208s-7.132-12.406-8.94-16.873
					c-1.709-4.221,0.458-6.689,4.648-8.046c0,0,3.386-3.775,6.346-3.97c1.135-0.075,1.745-1.429,2.447-1.816
					C1775.142,1067.43,1777.84,1066.606,1777.84,1066.606z"/>
			</g>
		</g>
	</g>
	<g>
		<g>
			<g>
				<path style="fill:#FFB27D;" d="M1039.108,1109.432c0,0,29.55,56.053,34.919,52.969c7.936-4.559,16.552-48.886,16.552-48.886
					l28.539,5.126c0,0-2.007,78.416-34.411,90.72c-31.018,11.778-60.285-39.958-60.285-39.958l-5.325-50.138L1039.108,1109.432z"/>
			</g>
			<g>
				<g>
					<path style="fill:#331832;" d="M1100.589,1134.594l-0.008,0.002c-5.126,1.083-10.16-2.194-11.245-7.32l-9.911-46.835
						c-1.085-5.129,2.194-10.166,7.323-11.249l0.008-0.002c5.126-1.083,10.16,2.194,11.244,7.32l9.911,46.835
						C1108.997,1128.473,1105.718,1133.51,1100.589,1134.594z"/>
				</g>
				<g>
					<g>
						<path style="fill:#73B3CE;" d="M1092.1,1031.365c0,0,70.801-52.779,99.248-113.826l55.833,223.258
							c0,0-92.644-58.558-143.833-64.453c0,0-14.782-6.314-17.336-20.767C1083.258,1039.994,1092.1,1031.365,1092.1,1031.365z"/>
					</g>
					<g>
						
							<ellipse transform="matrix(0.9701 -0.2427 0.2427 0.9701 -212.5633 329.2237)" style="fill:#EF8062;" cx="1229.985" cy="1027.373" rx="44.9" ry="116.527"/>
					</g>
					<g>
						<path style="fill:#764678;" d="M1202.629,1008.345l38.516,1.267c4.95,0.063,9.235,3.451,10.435,8.248l2.005,8.017
							c1.424,5.694-1.195,11.629-6.363,14.421l-35.015,18.912C1212.206,1059.21,1191.262,1037.038,1202.629,1008.345z"/>
					</g>
					<g>
						<path style="fill:#331832;" d="M1247.017,1040.66c-0.08-0.047-8.078-4.801-10.411-15.835
							c-2.354-11.134,4.246-15.52,4.313-15.56l0.455,0.695c-0.254,0.167-6.179,4.146-3.952,14.691
							c2.253,10.679,9.937,15.246,10.01,15.286L1247.017,1040.66z"/>
					</g>
					<g>
						<path style="fill:#EF8062;" d="M1092.1,1031.365l-28.879,12.411c-5.959,2.561-9.18,9.059-7.608,15.346l2.84,11.355
							c1.632,6.526,7.909,10.786,14.583,9.898l30.313-4.032c0,0-9.249-3.523-13.196-20.777
							C1087.09,1042.178,1092.1,1031.365,1092.1,1031.365z"/>
					</g>
					<g>
						<path style="fill:#331832;" d="M1103.088,1076.669c-22.468-17.948-11.481-45.19-11.368-45.464l0.762,0.321
							c-0.107,0.267-10.853,26.942,11.127,44.488L1103.088,1076.669z"/>
					</g>
					<g>
						<path style="fill:#331832;" d="M1133.447,1084.119c-33.482-37.246-18.262-72.239-18.108-72.593l0.762,0.348
							c-0.161,0.341-15.146,34.859,17.961,71.684L1133.447,1084.119z"/>
					</g>
				</g>
			</g>
			<g>
				<g>
					<path style="fill:#FFB27D;" d="M1118.041,1114.467c0,0,4.6,10.006-4.572,14.137c-11.686,5.263-23.283,1.634-19.034-2.261
						c0.839-0.769,11.926-5.706,11.926-5.706s-26.276,5-25.449-0.805c0.826-5.805,23.478-9.798,23.478-9.798
						s-26.04,2.457-23.482-2.775c2.558-5.232,23.103-8.985,23.103-8.985s-25.32,3.771-22.206-2.236
						c3.114-6.007,16.602-5.306,22.385-6.314c5.464-0.952,7.848,2.259,8.389,7.59c0,0,3.628,4.995,3.101,8.567
						c-0.202,1.37,1.255,2.442,1.535,3.376C1117.752,1111.046,1118.041,1114.467,1118.041,1114.467z"/>
				</g>
			</g>
			<g>
				<path style="fill:#E28E57;" d="M1106.351,1131.228l-0.12-0.816c13.36-1.973,12.545-9.643,12.498-9.97l0.829-0.107
					C1119.564,1120.422,1120.561,1129.135,1106.351,1131.228z"/>
			</g>
		</g>
		<g>
			<path style="fill:#331832;" d="M993.949,1543.974c0,0,0.288,11.495,8.066,14.738c7.778,3.242,30.315,6.169,21.894,13.559
				c-4.832,4.24-27.605,1.5-34.034,1.5c-6.43,0-12.467,2.802-17.244-1.501c-5.256-4.734,0.001-28.296,0.001-28.296
				s5.548,2.89,10.538,2.761C990.36,1546.548,993.949,1543.974,993.949,1543.974z"/>
		</g>
		<g>
			<path style="fill:#331832;" d="M904.623,1543.972c0,0,0.288,11.495,8.066,14.738c7.778,3.242,30.315,6.169,21.893,13.559
				c-4.832,4.24-27.605,1.5-34.034,1.5c-6.43,0-12.466,2.802-17.244-1.501c-5.256-4.734,0.001-28.296,0.001-28.296
				s5.548,2.89,10.538,2.761C901.034,1546.545,904.623,1543.972,904.623,1543.972z"/>
		</g>
		<g>
			<path style="fill:#EF8062;" d="M1051.76,1228.855c0,0,1.438,48.116-13.92,140.42c-11.087,66.637-24.176,133.785-30.597,165.977
				c-2.297,11.515-11.982,19.935-23.46,20.395l-6.168,0.247c-12.41,0.498-22.483-10.163-21.576-22.837l15.581-217.792l3.841-71.683
				L1051.76,1228.855z"/>
		</g>
		<g>
			<path style="fill:#331832;" d="M911.277,1271.198c0.708,5.856,33.822,5.145,74.366,0.013
				c40.544-5.132,72.102-13.915,71.394-19.771c-0.708-5.856-33.415-6.568-73.958-1.436
				C942.535,1255.135,910.569,1265.342,911.277,1271.198z"/>
		</g>
		<g>
			<path style="fill:#EF8062;" d="M1005.212,1263.222l-86.559,278.056c-3.623,11.639-14.102,19.614-26.038,19.818l-5.203,0.089
				c-12.284,0.21-21.674-11.149-19.434-23.508l47.35-261.269c0.688-3.106,2.98-5.575,5.975-6.439
				C937.537,1265.286,1006.806,1251.723,1005.212,1263.222z"/>
		</g>
		<g>
			<path style="fill:#764678;" d="M924.814,1111.11c0,0,11.517-32.403,52.544-30.929c41.027,1.474,72.005,55.387,79.68,171.259
				c0,0-67.181-14.731-145.88,19.635C911.157,1271.075,906.795,1158.339,924.814,1111.11z"/>
		</g>
		<g>
			<path style="fill:#764678;" d="M892.814,1104.273l32.254,23.49c0,0,74.711,7.475,94.544,3.876
				c19.833-3.598,25.275-19.639,25.275-19.639s-21.123-24.073-57.027-30.501c-3.374-0.609-6.872-1.056-10.5-1.316
				c-6.09-0.432-12.179-0.246-18.149,0.397C923.74,1084.41,892.814,1104.273,892.814,1104.273z"/>
		</g>
		<g>
			<path style="fill:#331832;" d="M891.912,1105.201c-3.166,4.511,3.379,14.753,14.619,22.876
				c11.239,8.123,22.917,11.051,26.083,6.54c3.166-4.511-3.379-14.753-14.619-22.876
				C906.756,1103.618,895.078,1100.69,891.912,1105.201z"/>
		</g>
		<g>
			<path style="fill:#020202;" d="M966.521,1387.505l-1.378-0.455l18.616-56.591c4.293-13.066,13.14-23.973,24.902-30.713
				l0.722,1.257c-11.448,6.567-20.061,17.192-24.247,29.911L966.521,1387.505z"/>
		</g>
		<g>
			<path style="fill:#EF8062;" d="M1051.03,1256.686c0,0-18.844-2.62-47.141-0.53c-43.827,3.238-81.048,13.385-81.048,13.385
				l13.911,2.338l87.113,3.45l17.535-14.382L1051.03,1256.686z"/>
		</g>
		<g>
			<polygon style="fill:#331832;" points="1031.738,1128.433 1022.062,1110.351 1022.945,1109.884 1032.621,1127.965 			"/>
		</g>
		<g>
			<g>
				<g>
					<path style="fill:#331832;" d="M1003.151,1067.605l-0.172-0.458c0.052-0.019,5.205-1.999,6.246-5.818
						c0.54-1.983-0.114-4.137-1.943-6.404c-0.86-1.066-1.65-2.029-2.374-2.91c-4.989-6.078-6.856-8.352-6.412-13.906l0.488,0.039
						c-0.428,5.356,1.268,7.423,6.302,13.556c0.724,0.882,1.516,1.846,2.376,2.913c1.934,2.397,2.618,4.699,2.034,6.842
						C1008.589,1065.52,1003.373,1067.522,1003.151,1067.605z"/>
				</g>
			</g>
			<g>
				<g>
					<path style="fill:#331832;" d="M998.74,1038.129c0,0-0.779,8.609,5.889,16.664c6.668,8.054,1.449,15.231-6.497,12.821
						c-7.946-2.41-9.586,7.537-19.87,3.47C967.979,1067.016,998.74,1038.129,998.74,1038.129z"/>
				</g>
			</g>
			<g>
				<path style="fill:#FFB27D;" d="M967.628,1072.654l3.613-12.59l1.055-3.679l6.206-21.634l1.187,21.446l0.711,12.872l0.2,3.626
					c0.166,3.002,2.897,7.576,6.99,8.756c0,0,3.366,4.066-2.853,6.957c-7.308,3.399-20.572-1.252-25.903-7.793
					C958.833,1080.615,966.499,1079.617,967.628,1072.654z"/>
			</g>
			<g>
				<path style="fill:#F09962;" d="M971.173,1059.715c0.019,0.117,0.041,0.233,0.067,0.349c1.382,6.786,9.119,9.048,9.119,9.048
					l0.04-0.043l-0.711-12.872c-2.345-0.534-5.643-0.97-7.393,0.188C971.38,1056.99,970.89,1058.029,971.173,1059.715z"/>
			</g>
			<g>
				
					<ellipse transform="matrix(0.9919 -0.1268 0.1268 0.9919 -123.7493 132.6751)" style="fill:#FFB27D;" cx="979.901" cy="1038.026" rx="20.128" ry="24.832"/>
			</g>
			<g>
				<path style="fill:#FFB27D;" d="M963.08,1043.953c2.538,1.87,5.728,1.687,7.126-0.409c1.398-2.096,0.474-5.311-2.063-7.182
					c-2.538-1.87-5.728-1.687-7.126,0.409C959.619,1038.868,960.543,1042.083,963.08,1043.953z"/>
			</g>
			<g>
				<g>
					<path style="fill:#080435;" d="M981.862,1038.017c0.128-0.053,0.231-0.164,0.268-0.308c0.063-0.245-0.083-0.494-0.327-0.558
						c-0.144-0.037-3.402-1.219-5.712,2.063c-0.146,0.207-0.106,0.491,0.098,0.64c0.204,0.15,0.45,0.069,0.64-0.098
						c1.906-1.668,4.623-1.748,4.742-1.718C981.673,1038.063,981.773,1038.054,981.862,1038.017z"/>
				</g>
			</g>
			<g>
				<path style="fill:#080435;" d="M978.907,1043.467c0.104,1.088,0.828,1.908,1.617,1.833c0.789-0.076,1.345-1.019,1.241-2.106
					c-0.104-1.088-0.828-1.908-1.617-1.833C979.358,1041.437,978.803,1042.38,978.907,1043.467z"/>
			</g>
			<g>
				<g>
					<path style="fill:#080435;" d="M998.375,1038.312c0.139,0,0.276-0.063,0.366-0.183c0.152-0.202,0.112-0.488-0.09-0.64
						c-0.119-0.089-2.681-2.422-6.067-0.269c-0.213,0.136-0.285,0.413-0.153,0.629c0.132,0.216,0.39,0.235,0.629,0.153
						c2.398-0.817,4.94,0.145,5.039,0.218C998.182,1038.282,998.279,1038.312,998.375,1038.312z"/>
				</g>
			</g>
			<g>
				<path style="fill:#080435;" d="M993.566,1042.225c-0.318,1.045,0.039,2.08,0.797,2.311c0.758,0.231,1.631-0.429,1.949-1.475
					c0.318-1.045-0.039-2.08-0.797-2.311C994.757,1040.52,993.884,1041.18,993.566,1042.225z"/>
			</g>
			<g>
				<g>
					<path style="fill:#331832;" d="M985.8,1016.775c0,0,0.662,8.601-9.824,11.423c-10.486,2.822-17.27,8.279-14.853,15.784
						c2.417,7.505,21.66,21.256,9.806,29.051c-11.854,7.795-10.636-4.069-24.002,0.354c-13.366,4.424-18.179-13.564-10.099-25.394
						c8.08-11.83,0.663-39.451,36.216-42.731c35.553-3.28,26.197,26.617,26.197,26.617S986.985,1026.216,985.8,1016.775z"/>
				</g>
			</g>
			<g>
				<path style="fill:#FFFFFF;" d="M967.49,1075.078l-0.147-0.254c2.481-1.384,3.825-3.076,4.119-5.169
					c0.802-5.784-6.934-13.534-13.755-20.368c-1.812-1.812-3.524-3.531-5.055-5.176c-4.266-4.601-5.356-10.592-2.842-15.647
					c2.795-5.604,9.061-8.64,16.383-7.891c13.548,1.391,18.021-7.242,18.068-7.336l0.254,0.134c-0.04,0.08-3.972,7.643-15.487,7.643
					c-0.909,0-1.859-0.047-2.862-0.147c-7.182-0.729-13.361,2.22-16.095,7.73c-2.494,5.015-1.451,10.739,2.795,15.313
					c1.531,1.645,3.237,3.357,5.042,5.169c6.874,6.887,14.665,14.691,13.842,20.616
					C971.449,1071.855,970.018,1073.66,967.49,1075.078z"/>
			</g>
			<g>
				<g>
					<path style="fill:#EF8062;" d="M990.841,1046.089c0.093-0.094,0.184-0.197,0.277-0.291c-0.491-1.917-0.7-4.038-0.593-6.21
						c-0.11-0.071-0.378-0.204-0.764-0.338C989.749,1041.643,990.143,1043.989,990.841,1046.089z M989.901,1044.255
						c0.129,0.786,0.303,1.554,0.513,2.297c1.016,3.563,2.949,6.415,5.46,7.569c0.021,0.006,0.032,0.014,0.053,0.021
						c1.03,0.461,2.08,0.624,3.121,0.493c0.712-0.097,1.406-0.309,2.085-0.666c0.662-0.344,1.286-0.801,1.872-1.369
						c0.485-0.463,0.948-1.001,1.37-1.612c1.254-1.779,2.19-4.117,2.67-6.774c1.384-7.537-1.266-15.379-5.903-17.494
						c-0.298-0.138-0.603-0.256-0.901-0.335c-1.013-0.297-2.036-0.297-3.035-0.025c-0.443,0.122-0.887,0.293-1.314,0.51
						c-0.489,0.257-0.96,0.57-1.409,0.949c-0.242,0.207-0.48,0.433-0.716,0.678c-1.811,1.861-3.172,4.73-3.798,8.119
						c-0.053,0.275-0.097,0.547-0.132,0.819c-0.007,0.021-0.002,0.05-0.007,0.08c0,0,0,0-0.01,0.002
						c-0.075,0.563-0.13,1.133-0.165,1.7C989.545,1040.938,989.638,1042.645,989.901,1044.255z M1006.424,1042.162
						c-0.054,0.629-0.147,1.264-0.261,1.893c-0.44,2.424-1.272,4.557-2.37,6.203c-0.395,0.596-0.821,1.118-1.277,1.577
						c-0.557,0.563-1.162,1.017-1.797,1.347c-1.42,0.704-2.901,0.789-4.317,0.195c-0.051-0.011-0.094-0.034-0.147-0.055
						c-2.415-1.11-4.251-3.969-5.137-7.523c-0.491-1.917-0.7-4.038-0.593-6.21c0.032-0.586,0.083-1.175,0.173-1.77
						c0.043-0.341,0.096-0.675,0.158-1.02c0.593-3.295,1.905-6.039,3.639-7.769c0.567-0.565,1.172-1.018,1.815-1.359
						c0.427-0.218,0.844-0.374,1.272-0.464c0.235-0.068,0.465-0.106,0.698-0.124c0.009-0.002,0.009-0.002,0.019-0.003
						c0.621-0.052,1.232,0.015,1.845,0.21c0.207,0.064,0.418,0.148,0.63,0.241c3.903,1.782,6.252,8.079,5.653,14.583
						C1006.429,1042.132,1006.431,1042.141,1006.424,1042.162z"/>
				</g>
			</g>
			<g style="opacity:0.3;">
				<path style="fill:#FFFFFF;" d="M966.276,1034.875c-0.703,7.238,2.823,14.462,7.875,16.135
					c5.052,1.673,9.717-2.838,10.419-10.076c0.703-7.238-2.823-14.462-7.875-16.135
					C971.643,1023.126,966.978,1027.637,966.276,1034.875z"/>
			</g>
			<g style="opacity:0.3;">
				<path style="fill:#FFFFFF;" d="M989.859,1037.237c-0.703,7.271,2.415,14.659,6.964,16.502c4.549,1.843,8.806-2.557,9.509-9.828
					s-2.415-14.659-6.965-16.501C994.819,1025.566,990.562,1029.966,989.859,1037.237z"/>
			</g>
			<g>
				<g>
					<path style="fill:#EF8062;" d="M965.864,1039.155c0.353,2.156,1.041,4.198,1.981,5.973c1.472,2.741,3.56,4.859,6.008,5.807
						c0.16,0.073,0.327,0.134,0.493,0.185c1.104,0.37,2.213,0.474,3.283,0.339c0.597-0.078,1.192-0.234,1.772-0.477
						c0.472-0.185,0.943-0.43,1.407-0.722c2.879-1.888,4.79-5.546,5.242-10.058c0.041-0.41,0.071-0.828,0.082-1.243
						c0.024-0.575,0.019-1.145-0.005-1.711c-0.208-4.581-1.967-8.898-4.643-11.658c-1.189-1.252-2.58-2.176-4.087-2.667
						c-2.242-0.715-4.467-0.42-6.478,0.883c-2.596,1.694-4.402,4.853-5.052,8.757c-0.07,0.415-0.127,0.847-0.175,1.278
						c-0.043,0.46-0.076,0.918-0.082,1.362C965.566,1036.547,965.654,1037.87,965.864,1039.155z M982.507,1047.413
						c-0.638,0.852-1.378,1.564-2.195,2.101c-0.312,0.199-0.638,0.37-0.959,0.511c-1.504,0.669-3.123,0.757-4.731,0.252
						c-0.177-0.06-0.354-0.119-0.523-0.19c-2.191-0.881-4.067-2.788-5.395-5.248c-1.459-2.664-2.287-5.982-2.215-9.389
						c0.006-0.503,0.041-1.01,0.088-1.51c0.071-0.71,0.186-1.388,0.333-2.052c0.1-0.469,0.221-0.932,0.376-1.37
						c-0.002-0.01-0.003-0.019,0.005-0.03c0.238-0.767,0.542-1.496,0.886-2.162c0.828-1.611,1.932-2.924,3.239-3.777
						c0.888-0.588,1.843-0.941,2.827-1.063c0.944-0.125,1.914-0.028,2.879,0.277c1.341,0.44,2.576,1.251,3.641,2.347
						c2.591,2.607,4.303,6.814,4.484,11.291c0.025,0.576,0.021,1.148-0.013,1.724c-0.006,0.326-0.031,0.654-0.065,0.985
						c-0.286,2.822-1.22,5.356-2.598,7.215C982.556,1047.356,982.532,1047.389,982.507,1047.413z"/>
				</g>
			</g>
			<g>
				<g>
					<path style="fill:#EF8062;" d="M991.137,1039.749c-0.186,0.024-0.381-0.016-0.551-0.125l0,0
						c-0.1-0.066-2.466-1.473-6.086-0.292c-0.428,0.12-0.912-0.092-1.06-0.53c-0.147-0.438,0.092-0.912,0.532-1.047
						c4.361-1.51,7.376,0.375,7.509,0.449c0.384,0.251,0.503,0.771,0.252,1.155C991.599,1039.585,991.375,1039.719,991.137,1039.749
						z"/>
				</g>
			</g>
			<g>
				<path style="fill:#FFFFFF;" d="M988.265,1054.163c0,1.463-0.948,2.648-2.117,2.648s-2.117-1.185-2.117-2.648
					c0-1.462,0.948-2.648,2.117-2.648S988.265,1052.701,988.265,1054.163z"/>
			</g>
		</g>
		<g>
			<g>
				<g>
					<path style="fill:#FFB27D;" d="M873.048,1285.6c6.962-38.841,21.214-86.459,43.277-129.074
						c5.112-9.874,7.203-13.566,10.975-18.863c3.035-4.263-0.781-14.64-7.783-20.086c-6.57-5.111-17.487-5.427-19.401-3.394
						c-3.255,3.458-7.014,10.322-12.884,21.23c-20.395,37.902-32.32,78.112-42.321,143.539L873.048,1285.6z"/>
				</g>
			</g>
			<g>
				<path style="fill:#FFB27D;" d="M840.335,1289.294c3.256-10.286,7.016-16.339,7.016-16.339s21.972,0.908,22.97,2.956
					c2.303,4.724,4.815,15.103,7.03,19.872c0.96,2.068,3.728,9.251,1.875,10.513c-1.61,1.097-6.421-3.53-8.455-6.018
					c-2.309,14.943-12.129,35.67-9.485,3.987c-0.017-0.001-0.034-0.003-0.051-0.005c-0.553,3.178-3.635,23.263-7.433,20.829
					c-3.352-2.148-1.65-17.307-0.795-22.544c-0.046-0.014-0.092-0.028-0.138-0.041c-1.315,5.245-5.25,20.41-7.8,17.299
					c-3.2-3.904,0.045-19.821,0.045-19.821s-2.399,14.371-6.624,10.336c-2.881-2.752-0.013-14.14,1.176-19.144
					C839.839,1290.455,840.066,1289.837,840.335,1289.294z"/>
			</g>
		</g>
	</g>
	<g>
		<g>
			<path style="fill:#EF8062;" d="M1146.33,1312.826c-17.276-53.626,7.554-105.704,58.619-129.509
				c54.548-25.428,115.697,5.228,132.973,58.855c17.277,53.626-12.191,111.104-65.817,128.381
				C1218.479,1387.83,1163.607,1366.453,1146.33,1312.826z"/>
		</g>
		<g>
			<g>
				<path style="fill:#FFFFFF;" d="M1247.051,1320.348c-2.08,0-4.146-0.629-5.898-1.852l-54.057-37.835
					c-4.647-3.256-5.777-9.669-2.528-14.323c3.27-4.654,9.676-5.764,14.323-2.528l41.934,29.356l19.947-76.746
					c1.424-5.503,7.028-8.84,12.538-7.362c5.497,1.431,8.793,7.041,7.362,12.538l-23.672,91.063
					c-0.849,3.256-3.236,5.898-6.399,7.061C1249.451,1320.141,1248.248,1320.348,1247.051,1320.348z"/>
			</g>
		</g>
	</g>
	<g>
		<g>
			<g>
				
					<rect x="1684.557" y="1061.936" transform="matrix(0.2346 -0.9721 0.9721 0.2346 73.8436 2601.6633)" style="fill:#331832;" width="8.96" height="384.007"/>
			</g>
		</g>
		<g>
			<polygon style="fill:#331832;" points="1851.627,1262.743 1900.012,1307.512 1829.373,1310.77 1867.319,1295.996 			"/>
		</g>
		<g>
			<polygon style="fill:#EF8062;" points="1530.011,1186.682 1548.605,1220.042 1519.963,1232.843 1502.88,1230.283 
				1511.316,1222.763 1494.88,1227.723 1473.952,1222.922 1500,1206.282 1501.341,1181.321 1513.12,1183.561 1518.88,1195.082 
				1520.161,1183.241 			"/>
		</g>
		<g>
			
				<rect x="1511.946" y="1182.442" transform="matrix(0.9729 -0.2311 0.2311 0.9729 -235.6586 382.0037)" style="fill:#331832;" width="1.278" height="28.729"/>
		</g>
		<g>
			<polygon style="fill:#331832;" points="1511.693,1232.027 1510.863,1231.051 1530.469,1214.594 1531.299,1215.57 			"/>
		</g>
		<g>
			
				<rect x="1523.662" y="1187.904" transform="matrix(0.2724 -0.9622 0.9622 0.2724 -58.217 2349.3386)" style="fill:#331832;" width="1.279" height="50.518"/>
		</g>
	</g>
	<g>
		<g>
			<g>
				
					<rect x="1504.024" y="1404.989" transform="matrix(0.9089 -0.4171 0.4171 0.9089 -433.2897 835.7781)" style="fill:#331832;" width="384.007" height="8.96"/>
			</g>
		</g>
		<g>
			<polygon style="fill:#331832;" points="1828.232,1323.386 1897.276,1319.677 1848.145,1358.863 1852.198,1337.081 			"/>
		</g>
		<g>
			<polygon style="fill:#EF8062;" points="1529.476,1455.008 1564.723,1469.715 1550.139,1497.491 1535.134,1506.048 
				1537.109,1494.921 1527.264,1508.986 1507.853,1518.161 1518.023,1488.973 1503.635,1468.532 1514.275,1463.005 
				1525.928,1468.493 1519.608,1458.399 			"/>
		</g>
		<g>
			<polygon style="fill:#331832;" points="1532.91,1483.174 1510.402,1465.314 1511.191,1464.311 1533.699,1482.171 			"/>
		</g>
		<g>
			<polygon style="fill:#331832;" points="1543.141,1501.971 1541.884,1501.717 1547.1,1476.655 1548.357,1476.909 			"/>
		</g>
		<g>
			<polygon style="fill:#331832;" points="1518.266,1489.561 1517.785,1488.384 1564.479,1469.125 1564.961,1470.302 			"/>
		</g>
	</g>
	<g>
		<g>
			<g>
				<path style="fill:#366F90;" d="M1399.793,1441.403l-0.24-32.898c-0.118-4.469-3.539-8.363-8.132-9.179l-26.48-4.701
					c-4.188-0.746-8.375,1.185-10.439,4.807l-17.344,33.866l-7.202-3.688l17.454-34.077c3.734-6.656,11.348-10.224,18.945-8.877
					l26.48,4.703c8.359,1.487,14.587,8.64,14.807,17.01l0.242,32.975L1399.793,1441.403z"/>
			</g>
		</g>
		<g>
			<path style="fill:#6DA49A;" d="M1431.902,1551.143l-138.992-2.821c-9.796-0.199-17.588-8.117-17.454-17.735l1.364-97.403
				c0.143-10.202,9.103-18.131,19.453-17.214l167.148,14.81c11.494,1.018,18.984,12.324,15.274,23.056l-29.52,85.414
				C1446.675,1546.487,1439.683,1551.301,1431.902,1551.143z"/>
		</g>
		<g>
			<path style="fill:#331832;" d="M1375.821,1490.931c-0.08,0-0.16-0.02-0.234-0.047l-99.274-37.775
				c-0.341-0.127-0.515-0.508-0.381-0.849c0.134-0.341,0.542-0.515,0.849-0.381l99.087,37.701l97.937-22.662
				c0.334-0.107,0.709,0.134,0.789,0.495c0.08,0.354-0.14,0.709-0.495,0.789l-98.131,22.709
				C1375.921,1490.925,1375.868,1490.931,1375.821,1490.931z"/>
		</g>
		<g>
			<g>
				<path style="fill:#331832;" d="M1376.437,1499.195L1376.437,1499.195c-3.167-0.36-5.456-3.198-5.087-6.307l0.648-5.46
					c0.369-3.109,3.262-5.358,6.429-4.999h0c3.167,0.36,5.456,3.198,5.086,6.307l-0.648,5.46
					C1382.496,1497.306,1379.604,1499.555,1376.437,1499.195z"/>
			</g>
		</g>
	</g>
	<g>
		<g>
			<g>
				<path style="fill:#FFB27D;" d="M2168.838,1117.647c0,0-15.352,1.301-21.363-4.64c-6.011-5.941-9.163-18.04-4.649-15.143
					c4.514,2.897,9.251,8.181,9.251,8.181s-9.586-11.761-5.844-12.794c3.742-1.034,11.98,9.274,11.98,9.274
					s-10.284-14.896-6.43-14.737c3.854,0.16,11.585,11.531,11.585,11.531s-9.01-14.239-4.538-13.95s7.369,11.815,11.111,10.781
					c3.742-1.034,13.458,0.582,13.463,11.518L2168.838,1117.647z"/>
			</g>
		</g>
		<g>
			<path style="fill:#68A1BF;" d="M2331.228,1173.376c-0.632-38.511,3.315-47.391-34.513-62.572
				c-5.008-2.011-29.208-7.085-34.678-7.555c-31.835-2.737-55.539,35.242-59.095,43.626c-0.029,0.064-0.052,0.125-0.081,0.191
				c-0.594,1.406-1.178,2.829-1.775,4.345c-0.534,1.357-1.016,2.633-1.472,3.892c-0.225,0.616-0.443,1.216-0.661,1.841
				c-0.714,2.065-9.531-43.416-15.01-49.423c-3.358-3.683-23.471,9.206-23.471,9.206c-2.172,8.153-0.63,53.06,3.432,67.849
				c8.722,31.756,39.668,25.867,43.382,22.095c-0.357,8.344-1.231,33.973-1.142,43.483c0,0,60.379-14.76,129.301,16.09
				C2335.564,1264.925,2331.835,1210.336,2331.228,1173.376z"/>
		</g>
		<g>
			<path style="fill:#331832;" d="M2259.957,1536.937c0,0-0.278,11.016-7.789,14.124s-29.275,5.912-21.143,12.994
				c4.666,4.064,26.658,1.438,32.866,1.438c6.209,0,12.039,2.685,16.653-1.439c5.076-4.537-0.001-27.117-0.001-27.117
				s-5.358,2.77-10.176,2.646C2263.423,1539.404,2259.957,1536.937,2259.957,1536.937z"/>
		</g>
		<g>
			<path style="fill:#366F90;" d="M2213.616,1258.76c0,0-7.232,22.938,7.599,111.397c10.707,63.861,19.702,127.57,25.904,158.421
				c2.218,11.036,11.571,19.105,22.655,19.546l5.957,0.237c11.985,0.477,21.712-9.74,20.836-21.886l-15.046-208.721l-3.709-68.698
				L2213.616,1258.76z"/>
		</g>
		<g>
			<path style="fill:#331832;" d="M2335.432,1267.935c-1.874,8-31.747,16.391-67.504,7.912
				c-35.758-8.479-63.659-17.493-61.785-25.493s32.813-11.957,68.57-3.477S2337.305,1259.935,2335.432,1267.935z"/>
		</g>
		<g>
			<path style="fill:#331832;" d="M2346.219,1536.935c0,0-0.278,11.016-7.789,14.124c-7.511,3.107-29.275,5.912-21.143,12.994
				c4.666,4.064,26.658,1.438,32.866,1.438c6.209,0,12.039,2.685,16.653-1.439c5.076-4.537-0.001-27.118-0.001-27.118
				s-5.358,2.77-10.176,2.646C2349.685,1539.401,2346.219,1536.935,2346.219,1536.935z"/>
		</g>
		<g>
			<path style="fill:#366F90;" d="M2213.616,1258.76l66.973,122.364l52.081,153.229c3.499,11.154,13.618,18.797,25.145,18.993
				l5.024,0.085c11.863,0.201,20.931-10.684,18.768-22.529l-50.853-257.829c-0.664-2.976-12.075-6.894-14.997-7.614
				C2287.564,1258.511,2212.077,1247.739,2213.616,1258.76z"/>
		</g>
		<g>
			<path style="fill:#020202;" d="M2286.895,1401.841l-18.443-69.129c-0.655-1.973-1.311-4.166-1.986-6.439
				c-3.364-11.268-7.543-25.29-17.533-29.49l0.548-1.297c10.592,4.46,14.878,18.837,18.322,30.385
				c0.675,2.26,1.324,4.44,1.986,6.439l18.456,69.17L2286.895,1401.841z"/>
		</g>
		<g>
			<path style="fill:#331832;" d="M2257.685,1033.318c0,0-0.52-17.703,15.265-17.941c15.785-0.238,11.25,11.203,13.833,14.439
				c2.583,3.236-5.358,11.468-12.986,12.004C2266.169,1042.356,2257.685,1033.318,2257.685,1033.318z"/>
		</g>
		<g>
			<path style="fill:#FFB27D;" d="M2290.847,1107.722c-6.041,6.967-12.822,9.206-21.664,9.206c-13.389,0-7.148-13.679-7.148-13.679
				c3.289-0.078,5.085-1.73,5.36-4.982l0.327-3.997l0.161-1.981l0.529-6.331l0.471-5.685l1.931-23.318l6.173,23.743l1.05,4.033
				l3.618,13.917c1.157,4.437,4.655,7.876,9.123,9.057C2290.8,1107.707,2290.826,1107.719,2290.847,1107.722z"/>
		</g>
		<g>
			<path style="fill:#331832;" d="M2278.038,1084.731c0,0-3.95,6.888-10.155,7.558l0.529-6.331
				C2272.284,1085.196,2278.038,1084.731,2278.038,1084.731z"/>
		</g>
		<g>
			<g>
				<path style="fill:#331832;" d="M2300.675,1062.178c0,0-2.097,3.336-2.525,11.479c-0.626,11.914-14.701,12.221-16.851,8.035
					c-0.266-0.518,6.556-18.838,6.556-18.838l4.808-1.007L2300.675,1062.178z"/>
			</g>
		</g>
		<g>
			
				<ellipse transform="matrix(0.3266 -0.9452 0.9452 0.3266 527.629 2861.575)" style="fill:#FFB27D;" cx="2272.043" cy="1060.502" rx="27.059" ry="22.093"/>
		</g>
		<g>
			<path style="fill:#331832;" d="M2270.446,1038.039c0.313,0.983-7.466,13.048,16.073,24.509s18.837-23.153,0.906-29.957
				c-25.891-9.824-35.66,6.375-35.284,13.52C2252.518,1053.255,2270.446,1038.039,2270.446,1038.039z"/>
		</g>
		<g>
			<path style="fill:#331832;" d="M2285.234,1057.435c0,0,6.477,13.916-0.671,23.489c0,0,7.985-4.352,8.918-6.668
				c0.933-2.317,2.283-11.363,2.283-11.363L2285.234,1057.435z"/>
		</g>
		<g>
			<path style="fill:#FFB27D;" d="M2288.86,1070.49c-3.135,1.445-6.529,0.555-7.58-1.987c-1.051-2.542,0.639-5.775,3.774-7.219
				c3.135-1.445,6.529-0.555,7.58,1.987C2293.685,1065.814,2291.995,1069.046,2288.86,1070.49z"/>
		</g>
		<g>
			<g>
				<path style="fill:#080435;" d="M2269.935,1060.065c-0.126-0.085-0.213-0.225-0.222-0.388c-0.015-0.275,0.196-0.509,0.473-0.524
					c0.163-0.008,3.924-0.561,5.699,3.445c0.112,0.253,0.008,0.547-0.244,0.662c-0.251,0.115-0.498-0.025-0.667-0.244
					c-1.69-2.197-4.596-2.873-4.732-2.866C2270.128,1060.156,2270.022,1060.124,2269.935,1060.065z"/>
			</g>
		</g>
		<g>
			<path style="fill:#080435;" d="M2271.935,1066.528c-0.347,1.139-1.304,1.857-2.137,1.605s-1.227-1.38-0.879-2.519
				s1.304-1.857,2.137-1.605C2271.889,1064.262,2272.282,1065.389,2271.935,1066.528z"/>
		</g>
		<g>
			<g>
				<path style="fill:#080435;" d="M2252.103,1056.787c-0.149-0.031-0.283-0.128-0.354-0.275c-0.119-0.249-0.014-0.546,0.235-0.664
					c0.147-0.07,3.409-2.003,6.586,1.033c0.2,0.191,0.217,0.503,0.028,0.705c-0.188,0.202-0.47,0.166-0.71,0.026
					c-2.404-1.394-5.347-0.921-5.47-0.863C2252.316,1056.797,2252.206,1056.808,2252.103,1056.787z"/>
			</g>
		</g>
		<g>
			<path style="fill:#080435;" d="M2256.43,1062.012c0.116,1.185-0.492,2.212-1.358,2.294s-1.662-0.813-1.779-1.999
				c-0.116-1.185,0.492-2.212,1.358-2.294C2255.517,1059.932,2256.314,1060.827,2256.43,1062.012z"/>
		</g>
		<g style="opacity:0.3;">
			<path style="fill:#FFFFFF;" d="M2282.072,1062.947c-0.157,6.724-4.223,12.956-9.082,13.922c-4.859,0.965-8.67-3.703-8.514-10.427
				c0.156-6.724,4.222-12.957,9.081-13.922S2282.228,1056.224,2282.072,1062.947z"/>
		</g>
		<g style="opacity:0.3;">
			<path style="fill:#FFFFFF;" d="M2259.901,1059.67c-0.897,6.54-5.15,12.411-9.499,13.114c-4.35,0.703-7.148-4.028-6.251-10.568
				c0.897-6.54,5.15-12.411,9.499-13.114C2257.999,1048.399,2260.798,1053.131,2259.901,1059.67z"/>
		</g>
		<g>
			<g>
				<path style="fill:#68A1BF;" d="M2282.313,1065.625c0.183-0.859,0.315-1.745,0.369-2.638c0.025-0.308,0.041-0.62,0.045-0.925
					c0.008-0.522,0.001-1.03-0.036-1.537c-0.24-3.517-1.549-6.474-3.694-8.268c-1.691-1.423-3.727-1.952-5.883-1.542
					c-0.439,0.089-0.879,0.208-1.304,0.371c-3.438,1.274-6.372,4.878-7.76,9.28c-0.16,0.5-0.3,0.998-0.406,1.516
					c-0.283,1.211-0.437,2.456-0.46,3.726c-0.017,1.222,0.083,2.394,0.3,3.487c0.513,2.658,1.696,4.87,3.429,6.317
					c0.7,0.583,1.469,1.021,2.272,1.302c0.242,0.082,0.486,0.154,0.737,0.209c0.917,0.211,1.882,0.22,2.874,0.03
					c1.035-0.195,2.031-0.601,2.969-1.185c2.363-1.459,4.363-4.021,5.6-7.099c0.136-0.31,0.256-0.636,0.368-0.964
					C2281.964,1067.032,2282.161,1066.336,2282.313,1065.625z M2265.652,1072.611c-0.617-1.06-1.082-2.306-1.345-3.672
					c-0.214-1.043-0.311-2.165-0.289-3.315c0.022-1.151,0.158-2.283,0.393-3.382c0.11-0.527,0.243-1.037,0.404-1.537
					c1.323-4.296,4.16-7.793,7.484-8.908c0.32-0.12,0.646-0.198,0.978-0.264c0.876-0.17,1.722-0.161,2.528,0.022
					c0.958,0.205,1.853,0.656,2.66,1.334c1.111,0.93,1.99,2.246,2.573,3.819c0.236,0.625,0.419,1.29,0.557,2
					c0.006,0.042,0.015,0.074,0.02,0.116c0.012,0.024,0.015,0.045,0.018,0.065c0.076,0.363,0.132,0.728,0.163,1.105
					c0.084,0.662,0.108,1.353,0.1,2.053c-0.012,0.768-0.078,1.518-0.191,2.262c-0.071,0.501-0.168,0.993-0.284,1.479
					c-0.125,0.513-0.267,1.019-0.424,1.51l-0.003,0.009c-1.059,3.227-2.967,5.959-5.306,7.525c-0.953,0.658-1.982,1.103-3.05,1.306
					c-1.13,0.212-2.22,0.131-3.238-0.222c-0.695-0.245-1.345-0.623-1.949-1.134c-0.685-0.568-1.277-1.293-1.77-2.132
					C2265.673,1072.638,2265.667,1072.626,2265.652,1072.611z"/>
			</g>
		</g>
		<g>
			<g>
				<path style="fill:#68A1BF;" d="M2259.331,1062.386c0.097-0.344,0.182-0.681,0.261-1.031c-0.15,0.029-0.257,0.052-0.314,0.072
					c-0.336,1.867-0.928,3.637-1.699,5.198c0.003-0.009,0.006-0.018,0.018-0.024c0.099-0.174,0.187-0.343,0.277-0.52
					c0.009-0.027,0.03-0.059,0.039-0.086c0.108-0.201,0.214-0.423,0.307-0.639c0.148-0.316,0.298-0.642,0.431-0.973
					s0.257-0.666,0.375-1.012C2259.134,1063.053,2259.237,1062.721,2259.331,1062.386z M2259.331,1062.386
					c0.097-0.344,0.182-0.681,0.261-1.031c-0.15,0.029-0.257,0.052-0.314,0.072c-0.336,1.867-0.928,3.637-1.699,5.198
					c0.003-0.009,0.006-0.018,0.018-0.024c0.099-0.174,0.187-0.343,0.277-0.52c0.009-0.027,0.03-0.059,0.039-0.086
					c0.108-0.201,0.214-0.423,0.307-0.639c0.148-0.316,0.298-0.642,0.431-0.973s0.257-0.666,0.375-1.012
					C2259.134,1063.053,2259.237,1062.721,2259.331,1062.386z M2259.331,1062.386c0.097-0.344,0.182-0.681,0.261-1.031
					c-0.15,0.029-0.257,0.052-0.314,0.072c-0.336,1.867-0.928,3.637-1.699,5.198c0.003-0.009,0.006-0.018,0.018-0.024
					c0.099-0.174,0.187-0.343,0.277-0.52c0.009-0.027,0.03-0.059,0.039-0.086c0.108-0.201,0.214-0.423,0.307-0.639
					c0.148-0.316,0.298-0.642,0.431-0.973s0.257-0.666,0.375-1.012C2259.134,1063.053,2259.237,1062.721,2259.331,1062.386z
					 M2259.331,1062.386c0.097-0.344,0.182-0.681,0.261-1.031c-0.15,0.029-0.257,0.052-0.314,0.072
					c-0.336,1.867-0.928,3.637-1.699,5.198c0.003-0.009,0.006-0.018,0.018-0.024c0.099-0.174,0.187-0.343,0.277-0.52
					c0.009-0.027,0.03-0.059,0.039-0.086c0.108-0.201,0.214-0.423,0.307-0.639c0.148-0.316,0.298-0.642,0.431-0.973
					s0.257-0.666,0.375-1.012C2259.134,1063.053,2259.237,1062.721,2259.331,1062.386z M2259.331,1062.386
					c0.097-0.344,0.182-0.681,0.261-1.031c-0.15,0.029-0.257,0.052-0.314,0.072c-0.336,1.867-0.928,3.637-1.699,5.198
					c0.003-0.009,0.006-0.018,0.018-0.024c0.099-0.174,0.187-0.343,0.277-0.52c0.009-0.027,0.03-0.059,0.039-0.086
					c0.108-0.201,0.214-0.423,0.307-0.639c0.148-0.316,0.298-0.642,0.431-0.973s0.257-0.666,0.375-1.012
					C2259.134,1063.053,2259.237,1062.721,2259.331,1062.386z M2259.331,1062.386c0.097-0.344,0.182-0.681,0.261-1.031
					c-0.15,0.029-0.257,0.052-0.314,0.072c-0.336,1.867-0.928,3.637-1.699,5.198c0.003-0.009,0.006-0.018,0.018-0.024
					c0.099-0.174,0.187-0.343,0.277-0.52c0.009-0.027,0.03-0.059,0.039-0.086c0.108-0.201,0.214-0.423,0.307-0.639
					c0.148-0.316,0.298-0.642,0.431-0.973s0.257-0.666,0.375-1.012C2259.134,1063.053,2259.237,1062.721,2259.331,1062.386z
					 M2259.331,1062.386c0.097-0.344,0.182-0.681,0.261-1.031c-0.15,0.029-0.257,0.052-0.314,0.072
					c-0.336,1.867-0.928,3.637-1.699,5.198c0.003-0.009,0.006-0.018,0.018-0.024c0.099-0.174,0.187-0.343,0.277-0.52
					c0.009-0.027,0.03-0.059,0.039-0.086c0.108-0.201,0.214-0.423,0.307-0.639c0.148-0.316,0.298-0.642,0.431-0.973
					s0.257-0.666,0.375-1.012C2259.134,1063.053,2259.237,1062.721,2259.331,1062.386z M2259.331,1062.386
					c0.097-0.344,0.182-0.681,0.261-1.031c-0.15,0.029-0.257,0.052-0.314,0.072c-0.336,1.867-0.928,3.637-1.699,5.198
					c0.003-0.009,0.006-0.018,0.018-0.024c0.099-0.174,0.187-0.343,0.277-0.52c0.009-0.027,0.03-0.059,0.039-0.086
					c0.108-0.201,0.214-0.423,0.307-0.639c0.148-0.316,0.298-0.642,0.431-0.973s0.257-0.666,0.375-1.012
					C2259.134,1063.053,2259.237,1062.721,2259.331,1062.386z M2260.139,1061.273c0.094-0.513,0.162-1.034,0.209-1.553
					c0.025-0.279,0.041-0.561,0.057-0.842c0.208-4.336-1.038-8.093-3.31-10.039c-0.545-0.452-1.115-0.802-1.726-1.028
					c-0.495-0.187-1.006-0.3-1.543-0.333c-0.382-0.02-0.759,0.001-1.16,0.064l-0.009-0.003c-0.093,0.008-0.2,0.031-0.296,0.049
					c-4.65,0.934-8.718,7.431-9.047,14.498c-0.199,4.339,1.038,8.093,3.319,10.042c0.578,0.502,1.213,0.865,1.884,1.092
					c0.788,0.266,1.63,0.343,2.491,0.218c0.012-0.006,0.021-0.003,0.033-0.009c0.105-0.014,0.209-0.028,0.317-0.052
					c1.692-0.339,3.301-1.4,4.673-2.966l0.003-0.009l0.009,0.003c1.366-1.548,2.506-3.579,3.283-5.861
					C2259.679,1063.504,2259.964,1062.402,2260.139,1061.273z M2257.467,1066.836c-0.792,1.535-1.762,2.86-2.847,3.85
					c-0.906,0.843-1.888,1.441-2.905,1.732c-0.012,0.006-0.015,0.015-0.024,0.012c-0.003,0.009-0.012,0.006-0.012,0.006
					c-0.036,0.018-0.081,0.032-0.111,0.032c-0.125,0.047-0.254,0.073-0.383,0.098c-0.15,0.029-0.299,0.057-0.452,0.065
					c-1.297,0.146-2.524-0.239-3.557-1.132c-2.055-1.763-3.189-5.176-3.039-9.195c0.003-0.009-0.003-0.021,0-0.03
					c0.003-0.009,0-0.03,0.003-0.038c0.003-0.009,0.003-0.009,0.006-0.018c0-0.03,0-0.059,0-0.089
					c0.319-6.714,4.081-12.869,8.387-13.731c0.278-0.055,0.547-0.083,0.819-0.09c0.547-0.023,1.078,0.057,1.58,0.227
					c0.573,0.193,1.115,0.505,1.61,0.93c0.039,0.033,0.078,0.066,0.113,0.108c0.986,0.887,1.757,2.168,2.259,3.714
					c0.52,1.611,0.754,3.502,0.657,5.549c-0.019,0.32-0.039,0.641-0.067,0.958c-0.056,0.546-0.133,1.094-0.228,1.636
					c-0.336,1.867-0.928,3.637-1.699,5.198C2257.536,1066.691,2257.5,1066.768,2257.467,1066.836z M2259.331,1062.386
					c0.097-0.344,0.182-0.681,0.261-1.031c-0.15,0.029-0.257,0.052-0.314,0.072c-0.336,1.867-0.928,3.637-1.699,5.198
					c0.003-0.009,0.006-0.018,0.018-0.024c0.099-0.174,0.187-0.343,0.277-0.52c0.009-0.027,0.03-0.059,0.039-0.086
					c0.108-0.201,0.214-0.423,0.307-0.639c0.148-0.316,0.298-0.642,0.431-0.973s0.257-0.666,0.375-1.012
					C2259.134,1063.053,2259.237,1062.721,2259.331,1062.386z M2259.331,1062.386c0.097-0.344,0.182-0.681,0.261-1.031
					c-0.15,0.029-0.257,0.052-0.314,0.072c-0.336,1.867-0.928,3.637-1.699,5.198c0.003-0.009,0.006-0.018,0.018-0.024
					c0.099-0.174,0.187-0.343,0.277-0.52c0.009-0.027,0.03-0.059,0.039-0.086c0.108-0.201,0.214-0.423,0.307-0.639
					c0.148-0.316,0.298-0.642,0.431-0.973s0.257-0.666,0.375-1.012C2259.134,1063.053,2259.237,1062.721,2259.331,1062.386z
					 M2259.331,1062.386c0.097-0.344,0.182-0.681,0.261-1.031c-0.15,0.029-0.257,0.052-0.314,0.072
					c-0.336,1.867-0.928,3.637-1.699,5.198c0.003-0.009,0.006-0.018,0.018-0.024c0.099-0.174,0.187-0.343,0.277-0.52
					c0.009-0.027,0.03-0.059,0.039-0.086c0.108-0.201,0.214-0.423,0.307-0.639c0.148-0.316,0.298-0.642,0.431-0.973
					s0.257-0.666,0.375-1.012C2259.134,1063.053,2259.237,1062.721,2259.331,1062.386z M2259.331,1062.386
					c0.097-0.344,0.182-0.681,0.261-1.031c-0.15,0.029-0.257,0.052-0.314,0.072c-0.336,1.867-0.928,3.637-1.699,5.198
					c0.003-0.009,0.006-0.018,0.018-0.024c0.099-0.174,0.187-0.343,0.277-0.52c0.009-0.027,0.03-0.059,0.039-0.086
					c0.108-0.201,0.214-0.423,0.307-0.639c0.148-0.316,0.298-0.642,0.431-0.973s0.257-0.666,0.375-1.012
					C2259.134,1063.053,2259.237,1062.721,2259.331,1062.386z M2259.331,1062.386c0.097-0.344,0.182-0.681,0.261-1.031
					c-0.15,0.029-0.257,0.052-0.314,0.072c-0.336,1.867-0.928,3.637-1.699,5.198c0.003-0.009,0.006-0.018,0.018-0.024
					c0.099-0.174,0.187-0.343,0.277-0.52c0.009-0.027,0.03-0.059,0.039-0.086c0.108-0.201,0.214-0.423,0.307-0.639
					c0.148-0.316,0.298-0.642,0.431-0.973s0.257-0.666,0.375-1.012C2259.134,1063.053,2259.237,1062.721,2259.331,1062.386z
					 M2259.331,1062.386c0.097-0.344,0.182-0.681,0.261-1.031c-0.15,0.029-0.257,0.052-0.314,0.072
					c-0.336,1.867-0.928,3.637-1.699,5.198c0.003-0.009,0.006-0.018,0.018-0.024c0.099-0.174,0.187-0.343,0.277-0.52
					c0.009-0.027,0.03-0.059,0.039-0.086c0.108-0.201,0.214-0.423,0.307-0.639c0.148-0.316,0.298-0.642,0.431-0.973
					s0.257-0.666,0.375-1.012C2259.134,1063.053,2259.237,1062.721,2259.331,1062.386z M2259.331,1062.386
					c0.097-0.344,0.182-0.681,0.261-1.031c-0.15,0.029-0.257,0.052-0.314,0.072c-0.336,1.867-0.928,3.637-1.699,5.198
					c0.003-0.009,0.006-0.018,0.018-0.024c0.099-0.174,0.187-0.343,0.277-0.52c0.009-0.027,0.03-0.059,0.039-0.086
					c0.108-0.201,0.214-0.423,0.307-0.639c0.148-0.316,0.298-0.642,0.431-0.973s0.257-0.666,0.375-1.012
					C2259.134,1063.053,2259.237,1062.721,2259.331,1062.386z"/>
			</g>
		</g>
		<g>
			<g>
				<path style="fill:#331832;" d="M2258.713,1061.444c-0.219-0.074-0.404-0.244-0.486-0.478c-0.143-0.404,0.071-0.845,0.477-0.985
					c0.13-0.045,3.227-1.077,6.91,1.175c0.367,0.225,0.482,0.701,0.257,1.065c-0.225,0.364-0.706,0.476-1.072,0.252
					c-3.057-1.871-5.553-1.04-5.578-1.031C2259.05,1061.501,2258.872,1061.498,2258.713,1061.444z"/>
			</g>
		</g>
		<g>
			<path style="fill:#331832;" d="M2291.618,1039.203c0,0,7.64-15.983,21.828-9.072c14.188,6.911,8.33,14.197,5.729,19.086
				c-1.938,3.643-10.028,7.784-17.077,4.819C2295.048,1051.071,2291.618,1039.203,2291.618,1039.203z"/>
		</g>
		<g>
			<g>
				<path style="fill:#331832;" d="M2289.279,1094.11c0.091,0.016,0.187,0.006,0.278-0.033c0.245-0.106,0.355-0.39,0.248-0.633
					c-0.095-0.214-2.391-5.288-7.874-8.708c-0.228-0.141-0.525-0.074-0.667,0.151c-0.142,0.225-0.073,0.521,0.153,0.662
					c5.234,3.265,7.48,8.231,7.502,8.281C2288.986,1093.982,2289.124,1094.083,2289.279,1094.11z"/>
			</g>
		</g>
		<g>
			<path style="fill:#FFFFFF;" d="M2290.847,1107.722l9.048,1.752c0,0,1.604,4.669-2.827,6.15c-4.431,1.48-5.319,1.48-6.74,4.885
				c-1.421,3.405-6.94,3.553-8.879,2.369c-1.939-1.184-5.342,3.257-8.489,3.257c-3.147,0-5.005-5.534-3.777-9.206
				C2269.183,1116.928,2281.002,1114.919,2290.847,1107.722z"/>
		</g>
		<g>
			<path style="fill:#FFFFFF;" d="M2262.035,1103.249c0,0-5.565,13.355,7.148,13.679c0,0-6.678,6.641-11.353,3.976
				c-4.674-2.665-0.199-5.033-2.188-6.809c-1.989-1.776-4.177-3.059-2.188-5.132c1.989-2.073,0.739-6.184,0.739-6.184
				S2257.358,1099.761,2262.035,1103.249z"/>
		</g>
		<g>
			<path style="fill:#FFFFFF;" d="M2257.593,1136.425c0-1.095-0.895-1.983-1.999-1.983c-1.104,0-1.998,0.888-1.998,1.983
				c0,1.095,0.895,1.983,1.998,1.983C2256.698,1138.408,2257.593,1137.52,2257.593,1136.425z"/>
		</g>
		<g>
			<path style="fill:#FFFFFF;" d="M2249.204,1200.115c0-1.095-0.895-1.983-1.998-1.983s-1.998,0.888-1.998,1.983
				c0,1.095,0.895,1.983,1.998,1.983S2249.204,1201.21,2249.204,1200.115z"/>
		</g>
		<g>
			<path style="fill:#FFFFFF;" d="M2249.204,1171.257c0-1.095-0.895-1.983-1.998-1.983s-1.998,0.888-1.998,1.983
				s0.895,1.983,1.998,1.983S2249.204,1172.352,2249.204,1171.257z"/>
		</g>
		<g>
			<g>
				<path style="fill:#CD614C;" d="M2356.8,1337.446l-4.774-0.094l0.395-19.512c0.194-4.995,3.898-9.188,8.827-10.004l15.567-2.588
					c4.547-0.782,8.934,1.424,11.073,5.41l9.97,20.342l-4.28,2.1l-9.937-20.262c-1.13-2.106-3.571-3.283-6.038-2.882l-15.574,2.588
					c-2.701,0.448-4.734,2.735-4.834,5.437L2356.8,1337.446z"/>
			</g>
			<g>
				<path style="fill:#EF8062;" d="M2344.628,1398.693l73.152-5.19c5.155-0.366,9.048-4.79,8.719-9.909l-3.331-51.839
					c-0.349-5.429-5.282-9.414-10.71-8.651l-87.664,12.322c-6.028,0.847-9.671,7.067-7.429,12.685l17.843,44.707
					C2336.72,1396.606,2340.532,1398.984,2344.628,1398.693z"/>
			</g>
			<g>
				<polygon style="fill:#CD614C;" points="2372.608,1365.358 2372.441,1365.324 2320.129,1355.835 2320.33,1354.752 
					2372.474,1364.207 2423.602,1341.525 2424.057,1342.542 				"/>
			</g>
			<g>
				<path style="fill:#CD614C;" d="M2372.456,1369.555L2372.456,1369.555c1.659-0.276,2.789-1.848,2.511-3.494l-0.488-2.891
					c-0.278-1.646-1.862-2.767-3.521-2.491l0,0c-1.659,0.276-2.788,1.848-2.511,3.494l0.488,2.891
					C2369.213,1368.71,2370.797,1369.831,2372.456,1369.555z"/>
			</g>
		</g>
		<g>
			<path style="fill:#FFB27D;" d="M2348.016,1306.782c1.151-2.216,2.424-5.893,3.697-9.407c1.027-2.832,2.053-5.557,3.015-7.325
				c0.934-1.718,20.428-1.939,20.428-1.939s3.185,5.245,5.821,14.078c0.225,0.469,0.412,1.001,0.546,1.618
				c0.933,4.287,3.046,10.198,0.426,12.467c-2.86,2.476-4.636-1.786-5.358-4.129c0.491,2.143,1.068,6.267-1.038,8.597
				c-2.218,2.453-4.756-4.254-5.86-7.664c-0.01,0.003-0.02,0.005-0.03,0.008c0.784,3.065,1.873,8.998-0.925,10.611
				c-3.309,1.909-5.858-7.216-6.537-9.304c-0.081,0.005-0.164,0.011-0.243,0.015c-1.931,12.986-7.112,6.426-8.281-3.571
				c-1.894,2.079-6.193,5.808-7.579,4.844C2344.488,1314.56,2347.115,1308.518,2348.016,1306.782z"/>
		</g>
		<g>
			<path style="fill:#68A1BF;" d="M2298.999,1111.036c0,0,46.588,10.498,69.406,84.008c13.656,43.996,14.69,73.712,13.523,94.345
				c-0.005,0.093-21.478,12.172-36.341,4.224c0,0-19.808-111.285-45.41-134.833L2298.999,1111.036z"/>
		</g>
		<g>
			<path style="fill:#331832;" d="M2203.348,1176.666c-0.013-0.107-1.104-10.365-4.574-19.111l0.548-0.214
				c3.511,8.82,4.607,19.158,4.614,19.258L2203.348,1176.666z"/>
		</g>
		<g>
			<path style="fill:#331832;" d="M2333.543,1231.425c-6.801-25.598-20.021-53.168-20.154-53.449l0.535-0.254
				c0.134,0.274,13.381,27.898,20.195,53.556L2333.543,1231.425z"/>
		</g>
		<g>
			<path style="fill:#331832;" d="M2206.277,1223.989c-0.823-35.588,15.641-85.178,15.808-85.673l0.562,0.187
				c-0.167,0.495-16.597,49.985-15.781,85.472L2206.277,1223.989z"/>
		</g>
		<g>
			<path style="fill:#020202;" d="M2264.46,1078.542c-2.922,0-7.015-0.769-8.833-4.714c-0.06-0.127,0-0.281,0.127-0.341
				c0.147-0.067,0.281,0.007,0.341,0.127c2.809,6.065,11.441,4.139,11.515,4.106c0.16,0,0.281,0.053,0.314,0.194
				c0.027,0.14-0.06,0.281-0.194,0.314C2267.69,1078.234,2266.313,1078.542,2264.46,1078.542z"/>
		</g>
	</g>
</g>
</svg>
