<?xml version="1.0" encoding="utf-8"?>
<!-- Generator: Adobe Illustrator 27.5.0, SVG Export Plug-In . SVG Version: 6.00 Build 0)  -->
<svg version="1.1" xmlns="http://www.w3.org/2000/svg" xmlns:xlink="http://www.w3.org/1999/xlink" x="0px" y="0px"
	 viewBox="0 0 500 500" style="enable-background:new 0 0 500 500;" xml:space="preserve">
<g id="BACKGROUND">
	<g>
		<rect style="fill:#FFFFFF;" width="500" height="500"/>
		<g style="opacity:0.5;">
			<rect x="0" y="20.134" style="fill:#E7E9F2;" width="500" height="2"/>
			<rect x="0" y="43.021" style="fill:#E7E9F2;" width="500" height="2"/>
			<rect x="0" y="65.907" style="fill:#E7E9F2;" width="500" height="2"/>
			<rect x="0" y="88.794" style="fill:#E7E9F2;" width="500" height="2"/>
			<rect x="0" y="111.68" style="fill:#E7E9F2;" width="500" height="2"/>
			<rect x="0" y="134.567" style="fill:#E7E9F2;" width="500" height="2"/>
			<rect x="0" y="157.454" style="fill:#E7E9F2;" width="500" height="2"/>
			<rect x="0" y="180.34" style="fill:#E7E9F2;" width="500" height="2"/>
			<rect x="0" y="203.227" style="fill:#E7E9F2;" width="500" height="2"/>
			<rect x="0" y="226.113" style="fill:#E7E9F2;" width="500" height="2"/>
			<rect x="0" y="249" style="fill:#E7E9F2;" width="500" height="2"/>
			<rect x="0" y="271.887" style="fill:#E7E9F2;" width="500" height="2"/>
			<rect x="0" y="294.773" style="fill:#E7E9F2;" width="500" height="2"/>
			<rect x="0" y="317.66" style="fill:#E7E9F2;" width="500" height="2"/>
			<rect x="0" y="340.546" style="fill:#E7E9F2;" width="500" height="2"/>
			<rect x="0" y="363.433" style="fill:#E7E9F2;" width="500" height="2"/>
			<rect x="0" y="386.32" style="fill:#E7E9F2;" width="500" height="2"/>
			<rect x="0" y="409.206" style="fill:#E7E9F2;" width="500" height="2"/>
			<rect x="0" y="432.092" style="fill:#E7E9F2;" width="500" height="2"/>
			<rect x="0" y="454.979" style="fill:#E7E9F2;" width="500" height="2"/>
			<rect x="0" y="477.866" style="fill:#E7E9F2;" width="500" height="2"/>
		</g>
	</g>
</g>
<g id="OBJECTS">
	<g>
		<path style="fill:#B7E5DD;" d="M102.249,72.413c-0.229,0-0.457-0.052-0.67-0.158c-0.524-0.261-0.848-0.804-0.829-1.39
			l0.377-11.818c-5.864-0.425-30.361-1.152-64.54,12.256c-0.609,0.239-1.302,0.056-1.714-0.453
			c-0.412-0.508-0.446-1.225-0.085-1.771l9.604-14.521l-13.339-6.784c-0.548-0.279-0.87-0.863-0.813-1.475
			c0.057-0.612,0.481-1.127,1.07-1.301c1.731-0.509,41.94-12.174,68.892-6.477l1.659-10.932c0.085-0.561,0.479-1.026,1.019-1.201
			c0.539-0.175,1.132-0.032,1.531,0.372l23.262,23.525c0.299,0.302,0.455,0.716,0.431,1.14c-0.024,0.424-0.227,0.818-0.558,1.084
			l-24.355,19.573C102.917,72.301,102.584,72.413,102.249,72.413z M95.311,55.829c4.601,0,7.223,0.323,7.555,0.366
			c0.765,0.101,1.329,0.764,1.304,1.535l-0.318,9.97l20.516-16.488l-19.991-20.218l-1.453,9.571
			c-0.063,0.416-0.298,0.786-0.647,1.02c-0.349,0.235-0.781,0.311-1.189,0.212c-21.59-5.233-54.245,2.238-65.202,5.069l11.364,5.78
			c0.381,0.194,0.661,0.541,0.77,0.954c0.109,0.413,0.037,0.854-0.199,1.21l-7.963,12.041
			C65.614,57.385,85.219,55.829,95.311,55.829z"/>
		<path style="fill:#B7E5DD;" d="M46.569,55.484c-0.663,0-1.269-0.442-1.448-1.113c-0.214-0.8,0.261-1.622,1.061-1.837
			c0.335-0.09,34.063-8.905,80.622-2.682c0.821,0.11,1.398,0.865,1.288,1.686c-0.109,0.821-0.868,1.398-1.686,1.288
			c-45.926-6.14-79.118,2.518-79.448,2.606C46.827,55.467,46.697,55.484,46.569,55.484z"/>
	</g>
	<g>
		<path style="fill:#EA5CB8;" d="M59.665,146.459c-0.385,0-0.763-0.148-1.049-0.427l-1.486-1.452l-25.832-25.345
			c-0.295-0.289-0.458-0.687-0.449-1.1c0.008-0.413,0.186-0.804,0.491-1.082l28.759-26.126c0.44-0.398,1.073-0.5,1.615-0.259
			c0.542,0.24,0.892,0.778,0.892,1.371v16.945h24.023c4.431,0.045,8.421-0.395,11.883-1.301c3.888-1.01,7.222-2.641,9.91-4.847
			c3.514-2.871,6.019-6.699,7.66-11.706c1.697-5.141,2.164-10.742,2.366-14.508c0.043-0.796,0.701-1.419,1.498-1.419h20.861
			c0.816,0,1.483,0.653,1.499,1.469c0.165,7.93-0.755,15.152-2.734,21.466c-1.608,5.072-3.911,9.627-6.845,13.542
			c-3.109,4.201-7.048,7.817-11.701,10.739c-3.701,2.318-7.877,4.201-12.415,5.596c-5.903,1.826-11.374,2.504-14.925,2.752
			c-3.998,0.289-6.673,0.135-7.11,0.106H61.164v14.086c0,0.604-0.362,1.148-0.918,1.383
			C60.058,146.421,59.861,146.459,59.665,146.459z M34.534,118.207l23.631,23.185v-12.019c0-0.828,0.671-1.5,1.5-1.5h26.964
			c0.037,0,0.074,0.001,0.111,0.004c0.026,0.002,2.682,0.191,6.734-0.103c3.396-0.237,8.623-0.884,14.253-2.626
			c4.29-1.319,8.228-3.093,11.705-5.271c4.334-2.722,7.998-6.083,10.889-9.99c2.736-3.652,4.885-7.907,6.39-12.652
			c1.758-5.61,2.636-12.007,2.614-19.033h-17.967c-0.256,3.852-0.825,9.011-2.427,13.865c-1.798,5.488-4.695,9.893-8.609,13.09
			c-3.024,2.482-6.744,4.309-11.054,5.429c-3.717,0.972-7.967,1.441-12.654,1.398H61.105c-0.829,0-1.5-0.672-1.5-1.5v-15.06
			L34.534,118.207z"/>
		<path style="fill:#EA5CB8;" d="M138.142,99.19c-0.45,0-0.895-0.201-1.19-0.585c-5.377-6.988-10.754-13.988-16.131-20.987
			c-0.505-0.657-0.381-1.599,0.276-2.103c0.656-0.505,1.599-0.382,2.103,0.276c5.377,6.999,10.753,13.997,16.13,20.985
			c0.505,0.656,0.382,1.598-0.275,2.104C138.783,99.088,138.461,99.19,138.142,99.19z"/>
		<path style="fill:#EA5CB8;" d="M131.529,112.281c-0.462,0-0.918-0.213-1.211-0.614l-14.021-19.171
			c-0.188-0.257-0.29-0.567-0.29-0.886c0-0.828,0.671-1.506,1.5-1.506c0.545,0,1.022,0.288,1.285,0.722l13.946,19.069
			c0.489,0.668,0.344,1.607-0.325,2.096C132.146,112.187,131.836,112.281,131.529,112.281z"/>
		<path style="fill:#EA5CB8;" d="M120.231,122.649c-0.497,0-0.983-0.247-1.269-0.698l-10.856-17.152
			c-0.443-0.7-0.235-1.627,0.465-2.07c0.7-0.443,1.626-0.235,2.07,0.465l10.857,17.152c0.443,0.7,0.235,1.627-0.465,2.07
			C120.783,122.574,120.505,122.649,120.231,122.649z"/>
		<path style="fill:#EA5CB8;" d="M108.172,128.083c-0.556,0-1.09-0.31-1.35-0.844c-2.845-5.846-5.95-11.684-9.229-17.352
			c-0.415-0.717-0.17-1.635,0.547-2.05c0.716-0.415,1.635-0.17,2.049,0.547c3.315,5.729,6.454,11.631,9.33,17.542
			c0.363,0.745,0.053,1.643-0.692,2.005C108.616,128.034,108.392,128.083,108.172,128.083z"/>
		<path style="fill:#EA5CB8;" d="M93.584,130.771c-0.513,0-1.013-0.264-1.293-0.738l-11.094-18.785
			c-0.421-0.713-0.185-1.633,0.529-2.054c0.713-0.421,1.633-0.184,2.054,0.529l11.094,18.785c0.421,0.713,0.185,1.633-0.529,2.054
			C94.106,130.704,93.843,130.771,93.584,130.771z"/>
		<path style="fill:#EA5CB8;" d="M78.179,130.873c-0.546,0-1.074-0.3-1.338-0.821c-3.198-6.295-6.397-12.59-9.607-18.885
			c-0.376-0.738-0.083-1.641,0.655-2.018c0.736-0.375,1.641-0.083,2.018,0.655c3.21,6.296,6.41,12.593,9.609,18.889
			c0.375,0.739,0.081,1.642-0.658,2.017C78.639,130.821,78.407,130.873,78.179,130.873z"/>
		<path style="fill:#EA5CB8;" d="M63.659,130.873c-0.555,0-1.089-0.309-1.349-0.842c-4.469-9.154-8.949-18.307-13.43-27.45
			c-0.364-0.744-0.057-1.643,0.687-2.007c0.743-0.364,1.643-0.057,2.007,0.687c4.481,9.144,8.962,18.299,13.432,27.454
			c0.363,0.744,0.054,1.642-0.69,2.006C64.104,130.824,63.88,130.873,63.659,130.873z"/>
		<path style="fill:#EA5CB8;" d="M58.181,145.016c-0.381,0-0.761-0.145-1.052-0.437l-0.011-0.011
			c-0.106-0.106-0.196-0.227-0.266-0.36c-2.904-5.496-5.81-10.989-8.717-16.482c-2.907-5.493-5.814-10.987-8.718-16.483
			c-0.387-0.732-0.107-1.64,0.625-2.027c0.731-0.387,1.64-0.107,2.027,0.625c2.904,5.496,5.811,10.989,8.717,16.482
			c2.901,5.482,5.802,10.963,8.7,16.448c0.324,0.573,0.246,1.316-0.241,1.803C58.951,144.868,58.566,145.016,58.181,145.016z"/>
	</g>
	<g>
		<path style="fill:#976CD3;" d="M162.759,112.469c-0.108,0-0.218-0.012-0.328-0.036c-0.809-0.181-1.318-0.982-1.137-1.791
			c1.63-7.303,4.648-20.548,7.567-33.356c2.917-12.799,5.933-26.034,7.561-33.327c0.181-0.809,0.985-1.317,1.79-1.137
			c0.809,0.18,1.318,0.982,1.137,1.791c-1.629,7.299-4.646,20.538-7.563,33.34c-2.918,12.806-5.936,26.047-7.564,33.343
			C164.066,111.994,163.446,112.469,162.759,112.469z"/>
		<path style="fill:#976CD3;" d="M183.485,59.784c-0.601,0-1.168-0.364-1.398-0.957l-5.29-13.612
			c-1.888,2.063-3.871,4.324-5.944,6.686l-2.224,2.53c-0.549,0.622-1.496,0.681-2.117,0.134c-0.622-0.548-0.681-1.496-0.134-2.117
			l2.22-2.526c2.693-3.069,5.237-5.968,7.639-8.512c0.353-0.374,0.873-0.542,1.378-0.442c0.505,0.099,0.924,0.449,1.11,0.929
			l6.157,15.845c0.3,0.772-0.082,1.641-0.854,1.941C183.849,59.751,183.665,59.784,183.485,59.784z"/>
	</g>
	<g>
		<path style="fill:#F4A548;" d="M210.517,169.145c-0.525,0-1.015-0.275-1.287-0.73c-11.66-19.493-3.043-36.874-2.671-37.605
			c0.24-0.469,0.708-0.779,1.234-0.815l124.74-8.53c0.652-0.043,1.253,0.335,1.495,0.94c9.454,23.645,2.149,37.077,1.833,37.637
			c-0.248,0.44-0.702,0.726-1.206,0.76l-124.037,8.34C210.585,169.143,210.551,169.145,210.517,169.145z M208.896,132.927
			c-1.415,3.382-6.396,17.624,2.449,33.159l122.231-8.218c1.242-2.897,5.228-14.654-1.936-33.335L208.896,132.927z"/>
		<path style="fill:#F4A548;" d="M218.577,132.261c-0.56,0-1.078-0.313-1.335-0.817c-6.172-12.08-0.621-20.565-0.382-20.92
			c0.257-0.381,0.675-0.624,1.133-0.658l127.143-9.422c0.513-0.036,0.995,0.183,1.302,0.584c9.168,11.985,0.744,21.613,0.658,21.709
			c-0.26,0.289-0.622,0.466-1.01,0.493l-127.402,9.027C218.648,132.26,218.612,132.261,218.577,132.261z M219.004,112.799
			c-0.981,1.884-3.44,8,0.476,16.395l125.74-8.909c1.298-1.753,5.303-8.37-0.689-16.788L219.004,112.799z"/>
		<path style="fill:#F4A548;" d="M193.544,114.756c-0.537,0-1.036-0.288-1.304-0.76c-8.864-15.62-2.395-28.106-2.115-28.63
			c0.237-0.444,0.682-0.74,1.184-0.787l127.19-11.89c0.618-0.06,1.211,0.272,1.485,0.831c9.015,18.305,2.527,30.436,2.246,30.943
			c-0.245,0.443-0.696,0.732-1.201,0.77l-127.374,9.518C193.619,114.754,193.581,114.756,193.544,114.756z M192.441,87.487
			c-1.139,2.647-4.415,12.29,1.952,24.202l125.534-9.381c1.105-2.652,4.329-12.592-2.189-26.534L192.441,87.487z"/>
		<path style="fill:#F4A548;" d="M219.767,84.925c-0.451,0-0.881-0.203-1.167-0.558c-7.58-9.385-1.555-19.509-1.493-19.611
			c0.247-0.404,0.669-0.668,1.141-0.712l108.04-10.095c0.601-0.058,1.184,0.257,1.467,0.795c6.617,12.571,0.113,19.577-0.167,19.87
			c-0.249,0.26-0.585,0.422-0.945,0.455l-106.738,9.849C219.859,84.923,219.813,84.925,219.767,84.925z M219.326,66.957
			c-1.001,2.033-3.531,8.524,1.126,14.899l105.291-9.715c1.038-1.416,3.953-6.531-0.193-15.108L219.326,66.957z"/>
		<path style="fill:#F4A548;" d="M237.515,83.267c-0.556,0-1.091-0.311-1.35-0.845c-4.604-9.478-1.581-18.639-1.451-19.025
			c0.267-0.784,1.12-1.204,1.903-0.938c0.784,0.266,1.204,1.117,0.938,1.901c-0.043,0.131-2.731,8.437,1.308,16.75
			c0.362,0.745,0.051,1.643-0.694,2.005C237.958,83.218,237.735,83.267,237.515,83.267z"/>
		<path style="fill:#F4A548;" d="M246.671,81.767c-0.473,0-0.939-0.223-1.23-0.64c-3.656-5.225-4.817-12.012-3.106-18.154
			c0.222-0.798,1.053-1.264,1.847-1.042c0.798,0.222,1.265,1.05,1.042,1.848c-1.473,5.288-0.474,11.131,2.674,15.629
			c0.475,0.679,0.31,1.614-0.369,2.089C247.268,81.679,246.968,81.767,246.671,81.767z"/>
		<path style="fill:#F4A548;" d="M306.904,106.319c-0.16,0-0.323-0.026-0.484-0.081c-0.784-0.267-1.203-1.119-0.936-1.904
			c4.739-13.911-1.842-27.621-1.909-27.757c-0.364-0.743-0.057-1.642,0.686-2.007c0.745-0.365,1.641-0.059,2.006,0.683
			c0.297,0.603,7.206,14.934,2.057,30.048C308.112,105.926,307.529,106.319,306.904,106.319z"/>
		<path style="fill:#F4A548;" d="M294.595,107.269c-0.16,0-0.323-0.026-0.484-0.08c-0.784-0.267-1.203-1.119-0.936-1.904
			c4.752-13.95-1.841-27.62-1.908-27.756c-0.366-0.743-0.06-1.642,0.683-2.008c0.744-0.366,1.643-0.06,2.008,0.684
			c0.297,0.603,7.205,14.934,2.057,30.048C295.802,106.876,295.219,107.269,294.595,107.269z"/>
		<path style="fill:#F4A548;" d="M281.767,108.258c-0.16,0-0.323-0.026-0.484-0.081c-0.784-0.267-1.203-1.119-0.936-1.904
			c4.739-13.911-1.842-27.621-1.909-27.758c-0.364-0.743-0.057-1.642,0.686-2.007c0.744-0.365,1.641-0.059,2.006,0.683
			c0.297,0.603,7.206,14.934,2.057,30.048C282.975,107.865,282.392,108.258,281.767,108.258z"/>
		<path style="fill:#F4A548;" d="M224.087,121.605c-0.776,0-1.433-0.598-1.494-1.384c-0.064-0.826,0.554-1.547,1.38-1.612
			l42.142-3.266c0.826-0.062,1.547,0.554,1.611,1.38c0.064,0.826-0.554,1.547-1.38,1.612l-42.142,3.266
			C224.165,121.604,224.126,121.605,224.087,121.605z"/>
		<path style="fill:#F4A548;" d="M217.419,168.681c-0.484,0-0.959-0.234-1.248-0.666c-9.003-13.457-3.244-36.388-2.994-37.358
			c0.207-0.803,1.026-1.285,1.826-1.079c0.802,0.206,1.285,1.024,1.079,1.826c-0.058,0.225-5.671,22.606,2.582,34.942
			c0.461,0.689,0.276,1.62-0.413,2.081C217.996,168.599,217.706,168.681,217.419,168.681z"/>
		<path style="fill:#F4A548;" d="M221.101,159.936c-0.602,0-1.15-0.362-1.385-0.924c-5.28-12.701-1.786-21.818-1.634-22.2
			c0.211-0.533,0.707-0.899,1.279-0.943l20.562-1.586c0.595-0.048,1.172,0.272,1.449,0.808c6.222,12.074,1.846,21.966,1.656,22.381
			c-0.227,0.497-0.705,0.831-1.249,0.873l-20.562,1.586C221.179,159.935,221.139,159.936,221.101,159.936z M220.604,138.782
			c-0.633,2.338-1.918,9.186,1.482,18.074l18.509-1.428c0.779-2.346,2.561-9.579-1.452-18.076L220.604,138.782z"/>
	</g>
	<g>
		<path style="fill:#EA5CB8;" d="M264.72,283.726c-9.288,0-19.009-0.877-29.095-2.631c-0.787-0.137-1.328-0.866-1.232-1.659
			c0.037-0.303,3.628-30.77-0.005-73.551c-0.036-0.424,0.11-0.844,0.402-1.154c0.292-0.31,0.711-0.482,1.128-0.472
			c0.361,0.009,36.306,0.736,68.42-7.034c0.707-0.171,1.436,0.19,1.727,0.858c0.085,0.195,8.552,19.814,11.554,47.081
			c0.09,0.823-0.503,1.564-1.327,1.655c-0.827,0.087-1.564-0.504-1.655-1.327c-2.538-23.058-9.033-40.517-10.846-45.053
			c-28.202,6.615-58.88,6.879-66.276,6.838c3.011,37.055,0.659,64.667,0.01,71.098c18.403,3.063,35.524,3.135,50.914,0.214
			c0.816-0.156,1.599,0.38,1.753,1.194c0.154,0.814-0.38,1.599-1.194,1.753C281.303,282.996,273.191,283.726,264.72,283.726z"/>
		<path style="fill:#EA5CB8;" d="M288.716,281.561c-0.438,0-0.864-0.192-1.154-0.542c-0.396-0.476-0.457-1.147-0.156-1.688
			c0.067-0.122,6.797-12.579,2.528-29.407c-0.121-0.479,0.001-0.986,0.327-1.358c0.326-0.372,0.812-0.558,1.304-0.5
			c0.16,0.018,16.105,1.829,23.651-3.931c0.457-0.35,1.074-0.405,1.586-0.146c0.513,0.259,0.833,0.789,0.824,1.363
			c-0.004,0.268-0.76,26.864-28.433,36.132C289.036,281.536,288.875,281.561,288.716,281.561z M293.315,251.228
			c2.503,11.892,0.025,21.378-1.781,26.17c17.839-7.506,21.899-22.817,22.822-29.217
			C307.406,251.684,297.59,251.508,293.315,251.228z"/>
		<path style="fill:#EA5CB8;" d="M250.439,224.296c-0.819,0-1.488-0.659-1.5-1.48c-0.011-0.828,0.652-1.509,1.48-1.52
			c0.261-0.004,26.332-0.414,45.872-6.048c0.796-0.229,1.627,0.23,1.857,1.026c0.229,0.796-0.23,1.627-1.026,1.857
			c-19.933,5.747-46.398,6.161-46.663,6.165C250.452,224.295,250.446,224.296,250.439,224.296z"/>
		<path style="fill:#EA5CB8;" d="M257.764,234.738c-5.556,0-8.962-0.317-9.052-0.326c-0.825-0.081-1.427-0.814-1.347-1.639
			c0.08-0.825,0.806-1.427,1.639-1.347c0.236,0.022,23.945,2.218,48.851-5.312c0.793-0.239,1.63,0.208,1.87,1.002
			c0.24,0.793-0.209,1.63-1.002,1.87C282.701,233.829,267.16,234.738,257.764,234.738z"/>
		<path style="fill:#EA5CB8;" d="M259.384,244.283c-5.556,0-8.962-0.317-9.051-0.326c-0.825-0.081-1.427-0.814-1.347-1.639
			c0.081-0.825,0.808-1.429,1.639-1.347c0.236,0.022,23.945,2.217,48.851-5.313c0.793-0.239,1.63,0.208,1.87,1.002
			c0.24,0.793-0.209,1.63-1.002,1.87C284.321,243.375,268.78,244.283,259.384,244.283z"/>
	</g>
	<g>
		<path style="fill:#B7E5DD;" d="M190.665,444.348c-0.428,0-0.852-0.182-1.148-0.534l-21.121-25.077
			c-0.266-0.316-0.39-0.727-0.343-1.137c0.047-0.41,0.261-0.783,0.591-1.03l155.063-116.151c0.655-0.489,1.58-0.365,2.082,0.278
			l18.27,23.413c0.245,0.315,0.356,0.714,0.306,1.109c-0.049,0.396-0.255,0.755-0.57,1L191.582,444.034
			C191.31,444.245,190.987,444.348,190.665,444.348z M171.714,418.019l19.17,22.761l149.884-116.013l-16.439-21.066L171.714,418.019
			z"/>
		<path style="fill:#B7E5DD;" d="M322.72,327.148c-1.333,0-2.622-0.44-3.629-1.312c-1.732-1.501-2.448-3.999-1.781-6.214
			c0.725-2.408,2.776-3.931,5.353-3.976c2.728-0.053,5.153,1.594,5.997,4.084c0.794,2.339-0.121,4.81-2.33,6.294
			C325.214,326.775,323.949,327.148,322.72,327.148z M322.772,318.645c-0.019,0-0.038,0-0.057,0
			c-0.598,0.01-2.041,0.211-2.532,1.841c0,0,0,0-0.001,0c-0.321,1.068,0.046,2.364,0.874,3.082c1.065,0.923,2.613,0.629,3.602-0.035
			c0.406-0.273,1.689-1.285,1.162-2.84C325.338,319.274,323.952,318.645,322.772,318.645z M318.746,320.054h0.01H318.746z"/>
		<path style="fill:#B7E5DD;" d="M310.449,326.891c-0.452,0-0.898-0.203-1.193-0.59l-6.39-8.372c-0.502-0.659-0.376-1.6,0.282-2.103
			c0.659-0.503,1.599-0.376,2.103,0.282l6.39,8.372c0.502,0.659,0.376,1.6-0.282,2.102
			C311.086,326.791,310.766,326.891,310.449,326.891z"/>
		<path style="fill:#B7E5DD;" d="M304.102,331.735c-0.452,0-0.898-0.203-1.193-0.59l-6.39-8.372c-0.502-0.659-0.376-1.6,0.282-2.103
			c0.659-0.503,1.599-0.376,2.103,0.282l6.39,8.372c0.502,0.659,0.376,1.6-0.282,2.103
			C304.739,331.635,304.419,331.735,304.102,331.735z"/>
		<path style="fill:#B7E5DD;" d="M297.755,336.579c-0.452,0-0.898-0.203-1.193-0.59l-6.389-8.372
			c-0.502-0.659-0.376-1.6,0.282-2.103c0.659-0.503,1.599-0.376,2.103,0.282l6.389,8.372c0.502,0.659,0.376,1.6-0.282,2.103
			C298.392,336.479,298.072,336.579,297.755,336.579z"/>
		<path style="fill:#B7E5DD;" d="M291.408,341.423c-0.452,0-0.898-0.203-1.193-0.59l-6.39-8.372c-0.503-0.659-0.376-1.6,0.282-2.103
			c0.659-0.503,1.599-0.376,2.102,0.282l6.39,8.372c0.502,0.659,0.376,1.6-0.282,2.103
			C292.045,341.323,291.725,341.423,291.408,341.423z"/>
		<path style="fill:#B7E5DD;" d="M285.061,346.267c-0.452,0-0.898-0.203-1.193-0.59l-6.39-8.372c-0.502-0.659-0.376-1.6,0.282-2.103
			c0.659-0.503,1.6-0.376,2.103,0.282l6.39,8.372c0.503,0.659,0.376,1.6-0.282,2.103
			C285.698,346.167,285.378,346.267,285.061,346.267z"/>
		<path style="fill:#B7E5DD;" d="M278.714,351.111c-0.452,0-0.898-0.203-1.193-0.59l-6.39-8.372c-0.502-0.659-0.376-1.6,0.282-2.103
			c0.659-0.503,1.599-0.376,2.103,0.282l6.39,8.372c0.502,0.659,0.376,1.6-0.282,2.103
			C279.351,351.011,279.031,351.111,278.714,351.111z"/>
		<path style="fill:#B7E5DD;" d="M272.367,355.955c-0.452,0-0.898-0.203-1.193-0.59l-6.39-8.373c-0.503-0.659-0.376-1.6,0.282-2.102
			c0.659-0.503,1.599-0.377,2.103,0.282l6.39,8.373c0.502,0.659,0.376,1.6-0.282,2.103
			C273.004,355.855,272.684,355.955,272.367,355.955z"/>
		<path style="fill:#B7E5DD;" d="M266.019,360.799c-0.452,0-0.898-0.203-1.193-0.59l-6.389-8.372
			c-0.502-0.659-0.376-1.6,0.282-2.103c0.658-0.503,1.6-0.377,2.103,0.282l6.389,8.372c0.503,0.659,0.376,1.6-0.282,2.103
			C266.657,360.699,266.337,360.799,266.019,360.799z"/>
		<path style="fill:#B7E5DD;" d="M259.673,365.643c-0.452,0-0.898-0.203-1.193-0.59l-6.39-8.373c-0.502-0.659-0.376-1.6,0.282-2.103
			c0.659-0.503,1.599-0.376,2.102,0.282l6.39,8.372c0.502,0.659,0.376,1.6-0.282,2.103
			C260.31,365.543,259.99,365.643,259.673,365.643z"/>
		<path style="fill:#B7E5DD;" d="M253.326,370.487c-0.452,0-0.898-0.203-1.193-0.59l-6.39-8.372c-0.503-0.659-0.376-1.6,0.282-2.102
			c0.659-0.503,1.599-0.376,2.102,0.282l6.39,8.372c0.502,0.659,0.376,1.6-0.282,2.103
			C253.963,370.387,253.643,370.487,253.326,370.487z"/>
		<path style="fill:#B7E5DD;" d="M246.978,375.331c-0.452,0-0.898-0.203-1.193-0.59l-6.39-8.372c-0.502-0.659-0.376-1.6,0.282-2.103
			c0.658-0.503,1.6-0.376,2.103,0.282l6.39,8.372c0.502,0.659,0.376,1.6-0.282,2.103
			C247.616,375.231,247.296,375.331,246.978,375.331z"/>
		<path style="fill:#B7E5DD;" d="M240.631,380.175c-0.452,0-0.898-0.203-1.193-0.59l-6.39-8.372c-0.502-0.659-0.376-1.6,0.282-2.103
			c0.659-0.503,1.599-0.376,2.103,0.282l6.39,8.372c0.503,0.659,0.376,1.6-0.282,2.103
			C241.268,380.075,240.949,380.175,240.631,380.175z"/>
		<path style="fill:#B7E5DD;" d="M234.284,385.019c-0.452,0-0.898-0.203-1.193-0.59l-6.389-8.372
			c-0.502-0.659-0.376-1.6,0.282-2.103c0.659-0.503,1.6-0.376,2.102,0.282l6.389,8.372c0.502,0.659,0.376,1.6-0.282,2.103
			C234.921,384.919,234.601,385.019,234.284,385.019z"/>
		<path style="fill:#B7E5DD;" d="M227.937,389.863c-0.452,0-0.898-0.203-1.193-0.59l-6.39-8.372c-0.503-0.659-0.376-1.6,0.282-2.102
			c0.659-0.503,1.599-0.377,2.102,0.282l6.39,8.372c0.502,0.659,0.376,1.6-0.282,2.102
			C228.575,389.763,228.255,389.863,227.937,389.863z"/>
		<path style="fill:#B7E5DD;" d="M221.59,394.707c-0.452,0-0.898-0.203-1.193-0.59l-6.39-8.372c-0.502-0.659-0.376-1.6,0.282-2.103
			c0.659-0.503,1.599-0.376,2.103,0.282l6.39,8.372c0.503,0.659,0.376,1.6-0.282,2.103
			C222.227,394.607,221.908,394.707,221.59,394.707z"/>
		<path style="fill:#B7E5DD;" d="M215.243,399.551c-0.452,0-0.898-0.203-1.193-0.59l-6.39-8.372c-0.502-0.659-0.376-1.6,0.282-2.103
			c0.659-0.504,1.6-0.376,2.103,0.282l6.39,8.372c0.502,0.659,0.376,1.6-0.282,2.103C215.88,399.451,215.56,399.551,215.243,399.551
			z"/>
		<path style="fill:#B7E5DD;" d="M208.896,404.395c-0.452,0-0.898-0.203-1.193-0.59l-6.39-8.372c-0.503-0.659-0.376-1.6,0.282-2.102
			c0.659-0.503,1.599-0.376,2.102,0.282l6.39,8.372c0.502,0.659,0.376,1.6-0.282,2.102
			C209.533,404.295,209.213,404.395,208.896,404.395z"/>
		<path style="fill:#B7E5DD;" d="M202.549,409.239c-0.452,0-0.898-0.203-1.193-0.59l-6.389-8.372
			c-0.502-0.659-0.376-1.6,0.282-2.103c0.659-0.503,1.599-0.376,2.103,0.282l6.389,8.372c0.503,0.659,0.376,1.6-0.282,2.103
			C203.186,409.139,202.866,409.239,202.549,409.239z"/>
		<path style="fill:#B7E5DD;" d="M196.201,414.083c-0.452,0-0.898-0.203-1.193-0.59l-6.389-8.372
			c-0.502-0.659-0.376-1.6,0.282-2.103c0.658-0.503,1.6-0.376,2.103,0.282l6.389,8.372c0.503,0.659,0.376,1.6-0.282,2.103
			C196.839,413.983,196.519,414.083,196.201,414.083z"/>
		<path style="fill:#B7E5DD;" d="M189.855,418.927c-0.452,0-0.898-0.203-1.193-0.59l-6.39-8.372c-0.503-0.659-0.376-1.6,0.282-2.103
			c0.659-0.503,1.599-0.376,2.103,0.282l6.39,8.372c0.502,0.659,0.376,1.6-0.282,2.103
			C190.492,418.827,190.172,418.927,189.855,418.927z"/>
	</g>
	<g>
		<path style="fill:#B7E5DD;" d="M415.958,150.164c-4.039,0-8.079-0.482-12.024-1.483c-18.519-4.698-32.3-19.502-35.967-38.634l0,0
			c-2.6-13.565,0.312-27.234,8.198-38.49c9.693-13.836,26.622-22.152,44.169-21.692c16.703,0.434,31.143,8.449,39.617,21.99
			c10.82,17.289,9.985,40.875-2.032,57.355C448.303,142.4,432.157,150.164,415.958,150.164z M370.914,109.482
			c3.445,17.976,16.38,31.882,33.758,36.291c18.615,4.722,39.512-2.816,50.825-18.331c11.313-15.515,12.099-37.719,1.913-53.996
			c-7.932-12.673-21.473-20.175-37.152-20.582c-16.557-0.425-32.511,7.392-41.635,20.414
			C371.206,83.864,368.469,96.721,370.914,109.482L370.914,109.482z"/>
		<path style="fill:#B7E5DD;" d="M416.231,139.854c-3.209,0-6.418-0.383-9.552-1.178c-14.717-3.734-25.669-15.497-28.582-30.699v0
			c-2.065-10.777,0.247-21.637,6.513-30.58c7.702-10.992,21.154-17.592,35.083-17.233c13.273,0.345,24.75,6.716,31.487,17.481
			c8.596,13.735,7.932,32.471-1.614,45.563C441.925,133.686,429.099,139.853,416.231,139.854z M418.599,63.149
			c-12.579,0-24.588,6.057-31.532,15.969c-5.796,8.273-7.936,18.321-6.024,28.294v0c2.692,14.046,12.798,24.912,26.374,28.356
			c14.549,3.691,30.883-2.201,39.726-14.328c8.842-12.126,9.457-29.481,1.495-42.204c-6.194-9.897-16.772-15.756-29.022-16.074
			C419.276,63.153,418.937,63.149,418.599,63.149z"/>
		<path style="fill:#B7E5DD;" d="M387.337,158.663c-0.141,0-0.283-0.02-0.424-0.061l-17.537-5.166
			c-0.45-0.133-0.811-0.467-0.978-0.905c-0.167-0.438-0.119-0.928,0.128-1.326l11.492-18.467c0.438-0.703,1.363-0.919,2.066-0.481
			c0.704,0.438,0.919,1.363,0.481,2.066l-10.45,16.793l14.478,4.265l6.713-12.464c0.394-0.729,1.303-1.002,2.032-0.609
			c0.729,0.393,1.002,1.303,0.609,2.032l-7.29,13.535C388.391,158.37,387.878,158.663,387.337,158.663z"/>
		<path style="fill:#B7E5DD;" d="M428.437,165.905c-0.29,0-0.575-0.084-0.821-0.245c-0.346-0.226-0.582-0.584-0.655-0.99
			l-2.989-16.676c-0.146-0.816,0.396-1.595,1.212-1.741c0.815-0.144,1.595,0.396,1.741,1.212l2.708,15.113l13.611-3.248
			l-5.077-16.054c-0.25-0.79,0.188-1.633,0.978-1.882c0.79-0.25,1.633,0.188,1.882,0.978l5.563,17.591
			c0.125,0.397,0.081,0.829-0.125,1.191c-0.205,0.362-0.552,0.623-0.957,0.72l-16.723,3.991
			C428.671,165.892,428.554,165.905,428.437,165.905z"/>
		<path style="fill:#B7E5DD;" d="M421.385,74.577c-0.099,0-0.2-0.01-0.3-0.03c-0.812-0.165-1.336-0.957-1.171-1.769l2.184-10.732
			c0.165-0.812,0.959-1.335,1.769-1.171c0.812,0.165,1.336,0.957,1.171,1.769l-2.184,10.732
			C422.708,74.087,422.083,74.577,421.385,74.577z"/>
		<path style="fill:#B7E5DD;" d="M411.838,139.738c-0.099,0-0.2-0.01-0.3-0.03c-0.812-0.165-1.337-0.957-1.171-1.769l2.501-12.292
			c0.165-0.812,0.962-1.336,1.769-1.171c0.812,0.165,1.336,0.957,1.171,1.769l-2.501,12.292
			C413.162,139.247,412.536,139.738,411.838,139.738z"/>
		<path style="fill:#B7E5DD;" d="M392.514,96.411c-0.099,0-0.2-0.01-0.3-0.03l-12.803-2.605c-0.812-0.165-1.336-0.957-1.171-1.769
			c0.165-0.812,0.959-1.335,1.769-1.171l12.803,2.605c0.812,0.165,1.336,0.957,1.171,1.769
			C393.837,95.921,393.212,96.411,392.514,96.411z"/>
		<path style="fill:#B7E5DD;" d="M455.202,106.9c-0.099,0-0.2-0.01-0.3-0.03l-12.064-2.454c-0.812-0.165-1.337-0.957-1.171-1.769
			c0.165-0.812,0.958-1.336,1.768-1.171l12.064,2.454c0.812,0.165,1.336,0.957,1.171,1.769
			C456.526,106.41,455.9,106.9,455.202,106.9z"/>
		<path style="fill:#B7E5DD;" d="M422.899,115.208c-0.511,0-1.01-0.261-1.29-0.733l-7.29-12.242
			c-0.191-0.321-0.256-0.701-0.181-1.067l4.113-20.217c0.165-0.812,0.96-1.335,1.768-1.171c0.812,0.165,1.336,0.957,1.171,1.769
			l-3.997,19.649l6.993,11.743c0.424,0.712,0.191,1.633-0.521,2.056C423.424,115.14,423.16,115.208,422.899,115.208z"/>
		<path style="fill:#B7E5DD;" d="M383.937,66.399c-0.586,0-1.142-0.345-1.383-0.919l-1.511-3.59
			c-1.615-3.836-1.628-8.066-0.036-11.911c1.592-3.845,4.591-6.829,8.444-8.4c7.772-3.169,16.77,0.533,20.06,8.254l0.807,1.894
			c0.325,0.762-0.03,1.643-0.792,1.968c-0.762,0.323-1.643-0.03-1.968-0.792l-0.807-1.894c-2.651-6.223-9.905-9.208-16.167-6.652
			c-3.105,1.267-5.522,3.671-6.806,6.77c-1.283,3.099-1.272,6.508,0.029,9.6l1.511,3.59c0.322,0.764-0.037,1.643-0.8,1.965
			C384.328,66.361,384.131,66.399,383.937,66.399z"/>
		<path style="fill:#B7E5DD;" d="M462.334,81.312c-0.391,0-0.782-0.152-1.076-0.455c-0.577-0.594-0.563-1.544,0.031-2.121
			l1.912-1.857c2.406-2.337,3.747-5.471,3.777-8.826c0.03-3.354-1.255-6.511-3.619-8.891c-4.768-4.8-12.609-4.885-17.482-0.193
			c-0.596,0.574-1.546,0.557-2.121-0.04c-0.575-0.597-0.557-1.546,0.04-2.121c6.046-5.823,15.776-5.714,21.69,0.24
			c2.933,2.952,4.528,6.87,4.491,11.032c-0.037,4.162-1.702,8.051-4.686,10.951l-1.913,1.857
			C463.088,81.171,462.711,81.312,462.334,81.312z"/>
	</g>
	<g>
		<path style="fill:#976CD3;" d="M369.345,295.276c-3.255,0-6.57-0.547-9.778-1.639c-10.045-3.418-17.271-12.316-18.858-23.221
			c-1.587-10.904,2.834-21.516,11.54-27.694c11.248-7.983,28.125-6.342,37.625,3.656c4.064,4.277,6.78,9.855,7.647,15.705
			c1.983,13.381-6.479,27.319-19.267,31.732l0,0C375.431,294.789,372.414,295.276,369.345,295.276z M377.766,292.397h0.01H377.766z
			 M368.739,240.634c-5.233,0-10.452,1.482-14.753,4.534c-7.9,5.607-11.754,14.884-10.308,24.816
			c1.424,9.784,7.883,17.759,16.856,20.813c5.605,1.908,11.551,1.974,16.743,0.182l0,0c11.276-3.892,19.027-16.657,17.278-28.457
			c-0.777-5.245-3.211-10.245-6.854-14.078C382.82,243.309,375.767,240.634,368.739,240.634z"/>
		<path style="fill:#976CD3;" d="M369.389,301.002c-3.903,0-7.878-0.656-11.726-1.966c-12.037-4.097-20.697-14.763-22.601-27.835
			c-1.903-13.073,3.396-25.794,13.831-33.2c13.483-9.569,33.715-7.602,45.103,4.382c4.872,5.128,8.128,11.814,9.167,18.827
			c2.377,16.042-7.768,32.752-23.098,38.042l-0.489-1.418l0.489,1.418C376.682,300.419,373.068,301.002,369.389,301.002z
			 M368.653,234.908c-6.393,0-12.77,1.811-18.024,5.54c-9.655,6.853-14.365,18.188-12.598,30.321
			c1.74,11.952,9.633,21.695,20.599,25.427c6.848,2.331,14.113,2.409,20.456,0.22l0,0c13.776-4.754,23.246-20.35,21.109-34.766
			c-0.95-6.407-3.924-12.516-8.375-17.2C385.858,238.176,377.241,234.908,368.653,234.908z"/>
		<path style="fill:#976CD3;" d="M428.827,275.591c-12.435,0-25.253-1.53-27.673-1.834c-0.822-0.103-1.405-0.853-1.302-1.675
			c0.104-0.822,0.862-1.403,1.675-1.302c11.578,1.452,42.966,3.93,49.092-1.966c0.626-0.602,0.887-1.235,0.821-1.992
			c-0.073-0.845-0.52-1.584-1.367-2.26c-7.261-5.796-37.249-3.154-48.19-1.646c-0.817,0.115-1.577-0.46-1.69-1.281
			c-0.113-0.82,0.46-1.578,1.281-1.69c1.658-0.229,40.722-5.509,50.47,2.273c1.503,1.2,2.339,2.662,2.485,4.346
			c0.144,1.659-0.455,3.185-1.73,4.413C448.975,274.56,439.029,275.591,428.827,275.591z"/>
		<path style="fill:#976CD3;" d="M369.216,290.365c-2.765,0-5.529-0.506-8.09-1.514c-4.917-1.937-9.122-5.743-11.537-10.443
			c-0.378-0.737-0.088-1.641,0.649-2.02c0.739-0.378,1.641-0.088,2.02,0.649c2.085,4.061,5.719,7.35,9.967,9.023
			c4.247,1.672,9.148,1.744,13.442,0.196c0.779-0.281,1.639,0.123,1.92,0.902c0.281,0.779-0.123,1.639-0.902,1.92
			C374.303,289.936,371.759,290.365,369.216,290.365z"/>
		<path style="fill:#976CD3;" d="M380.634,286.655c-0.656,0-1.258-0.434-1.443-1.096c-0.223-0.798,0.243-1.625,1.04-1.849
			c0.757-0.212,1.409-0.895,1.585-1.662c0.186-0.808,0.988-1.311,1.798-1.126c0.807,0.186,1.311,0.99,1.126,1.798
			c-0.424,1.846-1.876,3.369-3.7,3.878C380.904,286.637,380.767,286.655,380.634,286.655z"/>
		<path style="fill:#976CD3;" d="M427.532,275.549c-0.215,0-0.433-0.046-0.64-0.145c-0.748-0.354-1.068-1.246-0.716-1.994
			c0.034-0.072,2.995-6.554,0.658-13.452c-0.266-0.785,0.155-1.636,0.939-1.902c0.789-0.264,1.637,0.156,1.902,0.939
			c2.737,8.08-0.641,15.387-0.786,15.694C428.633,275.232,428.094,275.549,427.532,275.549z"/>
		<path style="fill:#976CD3;" d="M434.73,275.441c-0.326,0-0.655-0.106-0.93-0.324c-0.647-0.512-0.758-1.451-0.251-2.1
			c0.163-0.212,3.692-4.952,0.561-12.832c-0.306-0.77,0.07-1.642,0.84-1.948c0.77-0.306,1.642,0.071,1.948,0.84
			c3.804,9.573-0.794,15.545-0.992,15.795C435.611,275.246,435.173,275.441,434.73,275.441z"/>
	</g>
	<g>
		<path style="fill:#EA5CB8;" d="M126.856,453.502c-41.456,0-92.935-19.023-93.505-19.236c-0.697-0.26-1.098-0.993-0.941-1.721
			c7.84-36.439,22.121-76.043,22.265-76.438c0.249-0.685,0.955-1.091,1.669-0.967l91.3,16.037c0.726,0.128,1.252,0.764,1.241,1.501
			c-0.523,33.573-7.892,78.445-7.966,78.895c-0.109,0.66-0.643,1.168-1.309,1.245C135.519,453.288,131.244,453.502,126.856,453.502z
			 M35.62,431.897c8.851,3.16,63.811,22.037,102.52,18.063c1.124-7.051,7.101-45.832,7.722-76.05l-88.79-15.596
			C54.678,365.078,42.698,399.554,35.62,431.897z"/>
		<path style="fill:#EA5CB8;" d="M146.889,387.323c-0.055,0-0.11-0.003-0.166-0.009c-45.647-5.037-94.813-16.556-95.305-16.672
			c-0.806-0.19-1.306-0.997-1.116-1.804c0.19-0.807,1-1.306,1.804-1.116c0.489,0.115,49.484,11.594,94.946,16.61
			c0.823,0.091,1.417,0.832,1.326,1.655C148.294,386.755,147.644,387.323,146.889,387.323z"/>
		<path style="fill:#EA5CB8;" d="M65.191,364.883c-0.086,0-0.174-0.008-0.262-0.023c-0.816-0.144-1.361-0.921-1.217-1.737
			l1.733-9.833c0.144-0.816,0.92-1.362,1.737-1.217c0.816,0.143,1.361,0.921,1.217,1.737l-1.733,9.833
			C66.538,364.371,65.905,364.883,65.191,364.883z"/>
		<path style="fill:#EA5CB8;" d="M73.369,366.325c-0.086,0-0.174-0.008-0.262-0.023c-0.816-0.144-1.361-0.921-1.217-1.737
			l1.733-9.833c0.144-0.816,0.921-1.363,1.737-1.217c0.816,0.144,1.361,0.921,1.217,1.737l-1.733,9.833
			C74.716,365.813,74.083,366.325,73.369,366.325z"/>
		<path style="fill:#EA5CB8;" d="M81.547,367.766c-0.086,0-0.174-0.008-0.262-0.023c-0.816-0.143-1.361-0.921-1.217-1.737
			l1.733-9.834c0.143-0.816,0.922-1.362,1.737-1.217c0.816,0.144,1.361,0.921,1.217,1.737l-1.733,9.833
			C82.894,367.254,82.261,367.766,81.547,367.766z"/>
		<path style="fill:#EA5CB8;" d="M89.725,369.208c-0.086,0-0.174-0.008-0.262-0.023c-0.816-0.143-1.361-0.921-1.217-1.737
			l1.733-9.833c0.143-0.816,0.923-1.363,1.737-1.217c0.816,0.144,1.361,0.921,1.217,1.737l-1.733,9.833
			C91.073,368.695,90.439,369.208,89.725,369.208z"/>
		<path style="fill:#EA5CB8;" d="M97.904,370.649c-0.086,0-0.174-0.008-0.262-0.023c-0.816-0.143-1.361-0.921-1.217-1.737
			l1.733-9.833c0.143-0.816,0.924-1.363,1.737-1.217c0.816,0.144,1.361,0.921,1.217,1.737l-1.733,9.833
			C99.251,370.137,98.618,370.649,97.904,370.649z"/>
		<path style="fill:#EA5CB8;" d="M106.082,372.091c-0.086,0-0.174-0.008-0.262-0.023c-0.816-0.143-1.361-0.921-1.217-1.737
			l1.733-9.833c0.144-0.816,0.921-1.362,1.737-1.217c0.816,0.144,1.361,0.921,1.217,1.737l-1.733,9.833
			C107.429,371.579,106.796,372.091,106.082,372.091z"/>
		<path style="fill:#EA5CB8;" d="M114.261,373.533c-0.086,0-0.174-0.008-0.262-0.023c-0.816-0.143-1.361-0.921-1.217-1.737
			l1.733-9.833c0.144-0.816,0.922-1.363,1.737-1.217c0.816,0.144,1.361,0.921,1.217,1.737l-1.733,9.833
			C115.608,373.02,114.974,373.533,114.261,373.533z"/>
		<path style="fill:#EA5CB8;" d="M122.439,374.974c-0.086,0-0.174-0.008-0.262-0.023c-0.816-0.144-1.361-0.921-1.217-1.737
			l1.733-9.833c0.143-0.816,0.923-1.362,1.737-1.217c0.816,0.144,1.361,0.921,1.217,1.737l-1.733,9.834
			C123.786,374.462,123.153,374.974,122.439,374.974z"/>
		<path style="fill:#EA5CB8;" d="M130.617,376.415c-0.087,0-0.174-0.008-0.262-0.023c-0.816-0.144-1.361-0.921-1.217-1.737
			l1.733-9.833c0.143-0.816,0.923-1.362,1.737-1.217c0.816,0.144,1.361,0.921,1.217,1.737l-1.733,9.833
			C131.964,375.903,131.331,376.415,130.617,376.415z"/>
		<path style="fill:#EA5CB8;" d="M138.795,377.857c-0.086,0-0.174-0.008-0.262-0.023c-0.816-0.144-1.361-0.921-1.217-1.737
			l1.733-9.833c0.143-0.816,0.92-1.363,1.737-1.217c0.816,0.144,1.361,0.921,1.217,1.737l-1.733,9.834
			C140.143,377.345,139.509,377.857,138.795,377.857z"/>
		<path style="fill:#EA5CB8;" d="M69.518,393.425c-0.114,0-0.229-0.013-0.341-0.039l-11.745-2.745
			c-0.411-0.096-0.762-0.36-0.967-0.728c-0.206-0.368-0.248-0.805-0.115-1.205l3.437-10.364c0.244-0.737,1.013-1.165,1.765-0.988
			l10.782,2.519c0.387,0.09,0.723,0.331,0.933,0.669c0.21,0.338,0.277,0.746,0.187,1.133l-2.475,10.59
			c-0.09,0.387-0.331,0.723-0.669,0.933C70.07,393.348,69.796,393.425,69.518,393.425z M59.715,388.094l8.685,2.03l1.792-7.668
			l-7.988-1.866L59.715,388.094z"/>
		<path style="fill:#EA5CB8;" d="M90.915,397.555c-0.068,0-0.138-0.004-0.207-0.014l-11.948-1.65
			c-0.417-0.058-0.791-0.288-1.031-0.635c-0.239-0.347-0.321-0.779-0.226-1.19l2.467-10.637c0.176-0.756,0.901-1.253,1.666-1.147
			l10.968,1.515c0.394,0.054,0.75,0.263,0.991,0.58c0.24,0.317,0.345,0.717,0.29,1.111l-1.488,10.772
			C92.295,397.012,91.652,397.555,90.915,397.555z M80.798,393.144l8.834,1.22l1.078-7.801l-8.125-1.122L80.798,393.144z"/>
		<path style="fill:#EA5CB8;" d="M111.595,401.174c-0.068,0-0.137-0.005-0.205-0.014l-11.948-1.65
			c-0.418-0.058-0.792-0.288-1.031-0.635c-0.239-0.347-0.321-0.779-0.226-1.19l2.467-10.637c0.175-0.756,0.899-1.254,1.666-1.147
			l10.968,1.515c0.821,0.113,1.394,0.871,1.281,1.691l-1.488,10.772c-0.054,0.394-0.263,0.75-0.58,0.991
			C112.239,401.068,111.92,401.174,111.595,401.174z M101.48,396.762l8.834,1.221l1.078-7.801l-8.126-1.123L101.48,396.762z"/>
		<path style="fill:#EA5CB8;" d="M131.607,404.674c-0.068,0-0.138-0.004-0.207-0.014l-11.948-1.65
			c-0.417-0.058-0.791-0.288-1.031-0.635c-0.239-0.347-0.321-0.779-0.226-1.189l2.467-10.637c0.176-0.756,0.9-1.254,1.667-1.147
			l10.968,1.515c0.394,0.054,0.75,0.263,0.991,0.58c0.24,0.317,0.345,0.717,0.29,1.111l-1.488,10.772
			C132.988,404.13,132.345,404.674,131.607,404.674z M121.49,400.263l8.835,1.22l1.078-7.801l-8.125-1.122L121.49,400.263z"/>
		<path style="fill:#EA5CB8;" d="M64.639,412.724c-0.114,0-0.228-0.013-0.341-0.04l-11.745-2.745
			c-0.411-0.096-0.762-0.36-0.967-0.728c-0.206-0.368-0.248-0.805-0.115-1.205l3.437-10.364c0.244-0.737,1.012-1.164,1.765-0.988
			l10.782,2.52c0.807,0.188,1.308,0.995,1.119,1.802L66.1,411.565c-0.09,0.387-0.331,0.723-0.669,0.933
			C65.191,412.647,64.917,412.724,64.639,412.724z M54.836,407.392l8.685,2.029l1.792-7.668l-7.987-1.866L54.836,407.392z"/>
		<path style="fill:#EA5CB8;" d="M86.035,416.854c-0.068,0-0.138-0.004-0.207-0.014l-11.947-1.65
			c-0.417-0.058-0.791-0.288-1.03-0.635c-0.239-0.347-0.321-0.779-0.226-1.189l2.467-10.637c0.176-0.755,0.902-1.254,1.666-1.147
			l10.969,1.515c0.394,0.054,0.75,0.263,0.991,0.58c0.24,0.317,0.345,0.717,0.29,1.111l-1.488,10.772
			C87.416,416.31,86.773,416.854,86.035,416.854z M75.919,412.443l8.834,1.22l1.078-7.801l-8.125-1.122L75.919,412.443z"/>
		<path style="fill:#EA5CB8;" d="M106.718,420.472c-0.068,0-0.138-0.004-0.207-0.014l-11.948-1.65
			c-0.418-0.058-0.792-0.288-1.031-0.635c-0.239-0.347-0.321-0.779-0.226-1.189l2.467-10.637c0.176-0.756,0.9-1.252,1.667-1.147
			l10.968,1.515c0.394,0.054,0.75,0.263,0.991,0.58c0.24,0.317,0.345,0.717,0.29,1.111l-1.488,10.772
			C108.098,419.928,107.455,420.472,106.718,420.472z M96.6,416.061l8.834,1.22l1.078-7.801l-8.126-1.122L96.6,416.061z"/>
		<path style="fill:#EA5CB8;" d="M126.726,423.973c-0.068,0-0.137-0.005-0.205-0.014l-11.948-1.65
			c-0.418-0.058-0.792-0.288-1.031-0.635c-0.239-0.347-0.321-0.779-0.226-1.19l2.467-10.637c0.176-0.756,0.901-1.252,1.666-1.147
			l10.968,1.515c0.821,0.113,1.394,0.871,1.281,1.691l-1.488,10.772c-0.054,0.394-0.263,0.75-0.58,0.991
			C127.369,423.867,127.051,423.973,126.726,423.973z M116.611,419.562l8.835,1.221l1.078-7.801l-8.126-1.123L116.611,419.562z"/>
		<path style="fill:#EA5CB8;" d="M61.276,431.961c-0.113,0-0.228-0.013-0.343-0.04l-11.745-2.744
			c-0.41-0.096-0.762-0.36-0.967-0.728c-0.206-0.368-0.248-0.805-0.115-1.205l3.438-10.365c0.245-0.737,1.013-1.165,1.765-0.988
			l10.782,2.52c0.807,0.189,1.308,0.995,1.119,1.802l-2.474,10.589C62.573,431.494,61.957,431.961,61.276,431.961z M51.47,426.63
			l8.685,2.029l1.792-7.668l-7.987-1.866L51.47,426.63z"/>
		<path style="fill:#EA5CB8;" d="M82.67,436.091c-0.068,0-0.138-0.004-0.207-0.014l-11.947-1.65
			c-0.418-0.058-0.792-0.288-1.03-0.635c-0.239-0.347-0.321-0.779-0.226-1.189l2.467-10.637c0.176-0.756,0.901-1.253,1.667-1.147
			l10.968,1.515c0.394,0.054,0.75,0.263,0.991,0.58c0.24,0.317,0.345,0.717,0.29,1.111l-1.488,10.772
			C84.051,435.547,83.408,436.091,82.67,436.091z M72.554,431.68l8.834,1.22l1.078-7.801l-8.125-1.122L72.554,431.68z"/>
		<path style="fill:#EA5CB8;" d="M103.352,439.709c-0.068,0-0.138-0.004-0.207-0.014l-11.948-1.65
			c-0.417-0.058-0.791-0.288-1.031-0.635c-0.239-0.347-0.321-0.779-0.226-1.19l2.467-10.637c0.176-0.755,0.9-1.254,1.666-1.147
			l10.968,1.515c0.394,0.054,0.75,0.263,0.991,0.58c0.24,0.317,0.345,0.717,0.29,1.111l-1.488,10.772
			C104.733,439.165,104.09,439.709,103.352,439.709z M93.235,435.298l8.834,1.22l1.078-7.801l-8.125-1.122L93.235,435.298z"/>
		<path style="fill:#EA5CB8;" d="M123.361,443.21c-0.068,0-0.137-0.005-0.205-0.014l-11.948-1.65
			c-0.417-0.058-0.791-0.288-1.031-0.635c-0.239-0.347-0.321-0.779-0.226-1.19l2.467-10.637c0.176-0.756,0.9-1.253,1.667-1.147
			l10.968,1.515c0.821,0.113,1.394,0.871,1.281,1.691l-1.488,10.773c-0.054,0.394-0.263,0.75-0.58,0.991
			C124.004,443.104,123.686,443.21,123.361,443.21z M113.245,438.799l8.835,1.221l1.078-7.801l-8.125-1.123L113.245,438.799z"/>
		<path style="fill:#EA5CB8;" d="M127.606,459.861c-16.786,0.001-45.455-2.978-89.009-16.544c-0.763-0.238-1.206-1.032-1.006-1.806
			l1.707-6.626c0.207-0.803,1.027-1.284,1.827-1.079c0.802,0.207,1.285,1.024,1.079,1.827l-1.351,5.243
			c66.701,20.578,98.148,15.735,103.892,14.521c3.034-34.381,0.558-67.195,0.532-67.526c-0.064-0.826,0.554-1.547,1.38-1.611
			c0.818-0.063,1.547,0.554,1.611,1.38c0.026,0.336,2.574,34.085-0.632,69.104c-0.056,0.611-0.479,1.127-1.067,1.301
			C146.026,458.206,140.115,459.861,127.606,459.861z M146.142,456.607h0.01H146.142z"/>
	</g>
	<g>
		<path style="fill:#976CD3;" d="M245.042,467.957c-18.476,0-32.216-0.636-32.499-0.649c-0.162-0.008-0.322-0.042-0.473-0.101
			l-16.752-6.526c-0.541-0.211-0.911-0.714-0.952-1.293c-0.041-0.579,0.256-1.129,0.762-1.413l16.753-9.402
			c0.165-0.093,0.347-0.153,0.535-0.179c49.915-6.708,97.301-0.065,97.773,0.002c0.739,0.106,1.287,0.739,1.287,1.485v12.821
			c0,0.741-0.542,1.371-1.274,1.483C290.259,467.221,264.913,467.957,245.042,467.957z M212.929,464.323
			c4.114,0.183,58.624,2.466,95.546-2.913v-10.213c-7.871-0.998-50.565-5.843-95.377,0.134l-13.734,7.708L212.929,464.323z"/>
		<path style="fill:#976CD3;" d="M212.614,467.31c-0.21,0-0.422-0.044-0.625-0.137c-0.753-0.346-1.083-1.236-0.737-1.989
			c3.443-7.5,0.053-14.567,0.019-14.637c-0.364-0.742-0.061-1.641,0.681-2.008c0.743-0.366,1.638-0.065,2.007,0.674
			c0.169,0.338,4.077,8.385,0.02,17.223C213.725,466.986,213.182,467.31,212.614,467.31z"/>
		<path style="fill:#976CD3;" d="M319.544,462.027h-9.569c-0.829,0-1.5-0.671-1.5-1.5s0.671-1.5,1.5-1.5h9.569
			c1.343,0,2.437-1.093,2.437-2.436c0-1.343-1.093-2.436-2.437-2.436h-9.569c-0.829,0-1.5-0.671-1.5-1.5c0-0.829,0.671-1.5,1.5-1.5
			h9.569c2.998,0,5.437,2.438,5.437,5.436C324.981,459.588,322.542,462.027,319.544,462.027z"/>
		<path style="fill:#976CD3;" d="M275.417,473.525c-0.796,0-1.46-0.626-1.498-1.43c-0.039-0.827,0.601-1.53,1.428-1.569l3.639-0.169
			c11.15-0.514,19.957-0.919,25.305-2.262c2.463-0.619,4.183-2.837,4.183-5.393c0-0.829,0.671-1.5,1.5-1.5
			c0.829,0,1.5,0.671,1.5,1.5c0,3.934-2.653,7.349-6.453,8.303c-5.64,1.417-14.579,1.829-25.897,2.35l-3.637,0.169
			C275.464,473.525,275.44,473.525,275.417,473.525z"/>
		<path style="fill:#976CD3;" d="M229.745,467.826c-0.147,0-0.297-0.022-0.445-0.068c-0.791-0.245-1.234-1.085-0.988-1.877
			c2.93-9.447,0.06-17.214,0.03-17.292c-0.294-0.774,0.096-1.641,0.871-1.934c0.773-0.294,1.641,0.096,1.934,0.871
			c0.135,0.355,3.263,8.82,0.03,19.244C230.978,467.413,230.385,467.826,229.745,467.826z"/>
		<path style="fill:#976CD3;" d="M235.814,467.918c-0.167,0-0.337-0.028-0.504-0.087c-0.78-0.278-1.187-1.136-0.909-1.917
			c3.931-11.025,0.168-17.449,0.129-17.512c-0.429-0.709-0.202-1.631,0.507-2.06c0.71-0.428,1.631-0.201,2.06,0.507
			c0.187,0.309,4.533,7.721,0.129,20.073C237.008,467.535,236.43,467.918,235.814,467.918z"/>
		<path style="fill:#976CD3;" d="M292.696,466.206c-0.188,0-0.379-0.036-0.563-0.111c-0.768-0.311-1.138-1.186-0.826-1.954
			c3.573-8.804,0.225-15.029,0.081-15.29c-0.4-0.722-0.142-1.635,0.579-2.038c0.72-0.404,1.63-0.151,2.037,0.568
			c0.174,0.309,4.226,7.683,0.083,17.887C293.849,465.853,293.288,466.206,292.696,466.206z"/>
		<path style="fill:#976CD3;" d="M298.228,465.682c-0.211,0-0.426-0.045-0.63-0.14c-0.751-0.349-1.078-1.241-0.729-1.992
			c3.478-7.495,0.068-14.202,0.033-14.269c-0.382-0.733-0.1-1.639,0.632-2.023c0.732-0.382,1.636-0.106,2.022,0.625
			c0.172,0.325,4.157,8.049,0.035,16.931C299.336,465.361,298.794,465.682,298.228,465.682z"/>
	</g>
	<g>
		<path style="fill:#F4A548;" d="M404.436,464.206c-3.99,0-8.156-0.26-12.554-0.77c-21.655-2.512-40.213-14.399-49.641-31.799
			c-8.766-16.177-10.858-39.99-5.597-63.699c7.162-32.272,30.632-53.009,61.253-54.119c0.805-0.023,1.509,0.602,1.552,1.419
			l4.217,79.333l40.767,56.285c0.245,0.339,0.338,0.765,0.256,1.175c-0.082,0.41-0.332,0.767-0.689,0.985
			C431.505,460.65,419.187,464.206,404.436,464.206z M396.532,316.886c-28.881,1.653-50.119,20.881-56.959,51.702
			c-5.109,23.024-3.126,46.06,5.306,61.619c8.963,16.542,26.664,27.85,47.349,30.249c19.593,2.272,33.869-0.386,48.815-9.165
			l-40.067-55.318c-0.17-0.234-0.268-0.512-0.283-0.8L396.532,316.886z"/>
		<g>
			<path style="fill:#F4A548;" d="M474.452,401.093c-0.093,0-0.187-0.008-0.282-0.026l-62.467-11.911
				c-0.671-0.128-1.17-0.692-1.216-1.373l-4.772-71.451c-0.052-0.773,0.494-1.458,1.258-1.581
				c1.033-0.167,25.611-3.814,51.659,18.999c27.16,23.787,17.377,65.775,17.275,66.196
				C475.743,400.63,475.132,401.093,474.452,401.093z M413.404,386.426l59.878,11.417c1.393-7.324,6.429-41.646-16.625-61.836
				c-21.545-18.869-42.425-18.817-47.851-18.429L413.404,386.426z"/>
			<path style="fill:#F4A548;" d="M408.427,335.935c-0.392,0-0.784-0.153-1.079-0.458c-0.576-0.596-0.56-1.545,0.036-2.121
				c5.661-5.47,11.194-11.131,16.446-16.828c0.562-0.609,1.511-0.647,2.12-0.086c0.609,0.562,0.648,1.511,0.086,2.12
				c-5.291,5.739-10.865,11.442-16.567,16.952C409.178,335.795,408.802,335.935,408.427,335.935z"/>
			<path style="fill:#F4A548;" d="M409.603,353.658c-0.412,0-0.821-0.168-1.118-0.499c-0.553-0.617-0.501-1.565,0.116-2.118
				c10.263-9.195,20.694-18.896,31.004-28.832c0.596-0.575,1.546-0.557,2.121,0.039c0.575,0.597,0.557,1.546-0.039,2.121
				c-10.336,9.961-20.794,19.687-31.084,28.907C410.317,353.532,409.959,353.658,409.603,353.658z"/>
			<path style="fill:#F4A548;" d="M410.834,372.066c-0.414,0-0.825-0.17-1.122-0.504c-0.55-0.619-0.494-1.567,0.125-2.118
				l3.164-2.811c13.412-11.916,26.813-23.822,40.214-35.74c0.619-0.55,1.567-0.495,2.118,0.125c0.55,0.619,0.495,1.567-0.124,2.118
				c-13.401,11.918-26.803,23.824-40.215,35.741l-3.164,2.811C411.544,371.941,411.188,372.066,410.834,372.066z"/>
			<path style="fill:#F4A548;" d="M412.092,389.201c-0.829,0-1.507-0.671-1.507-1.5c0-0.545,0.288-1.023,0.722-1.286
				c18.42-13.723,35.948-28.958,52.096-45.282c0.583-0.589,1.534-0.594,2.121-0.012c0.589,0.582,0.594,1.532,0.012,2.121
				c-16.287,16.464-33.966,31.827-52.548,45.661C412.728,389.097,412.414,389.201,412.092,389.201z"/>
			<path style="fill:#F4A548;" d="M428.695,392.374c-0.442,0-0.88-0.195-1.177-0.568c-0.514-0.649-0.405-1.593,0.244-2.107
				c14.582-11.554,28.884-23.858,42.508-36.571c0.606-0.566,1.555-0.532,2.12,0.073c0.565,0.606,0.532,1.555-0.073,2.12
				c-13.683,12.768-28.046,25.125-42.691,36.729C429.349,392.268,429.021,392.374,428.695,392.374z"/>
			<path style="fill:#F4A548;" d="M450.37,396.504c-0.434,0-0.864-0.187-1.16-0.548c-0.526-0.641-0.433-1.586,0.207-2.111
				c8.63-7.087,17.137-14.728,25.285-22.71c0.592-0.58,1.542-0.57,2.121,0.022c0.58,0.592,0.57,1.541-0.022,2.121
				c-8.21,8.043-16.783,15.743-25.48,22.885C451.042,396.392,450.705,396.504,450.37,396.504z"/>
			<path style="fill:#F4A548;" d="M465.263,399.348c-0.38,0-0.76-0.144-1.053-0.432c-0.59-0.581-0.597-1.531-0.016-2.121
				c3.611-3.665,7.235-7.331,10.86-10.997c0.582-0.589,1.533-0.595,2.121-0.012c0.589,0.582,0.594,1.532,0.012,2.121
				c-3.623,3.665-7.247,7.329-10.856,10.993C466.037,399.199,465.65,399.348,465.263,399.348z"/>
		</g>
		<g>
			<path style="fill:#F4A548;" d="M452.217,445.825c-0.439,0-0.864-0.193-1.153-0.54l-40.762-48.968
				c-0.411-0.494-0.462-1.194-0.126-1.742c0.335-0.548,0.979-0.823,1.609-0.681l59.776,13.476c0.754,0.17,1.256,0.886,1.158,1.653
				c-4.09,32.092-19.46,36.576-20.112,36.751C452.477,445.809,452.347,445.825,452.217,445.825z M415.433,397.792l37.242,44.739
				c3.044-1.439,13.428-8.066,16.886-32.537L415.433,397.792z"/>
			<path style="fill:#F4A548;" d="M425.302,413.496c-0.777,0-1.415-0.584-1.492-1.34l-2.204-13.936
				c-0.13-0.818,0.429-1.587,1.247-1.716c0.814-0.132,1.586,0.429,1.716,1.247l2.215,14.004c0.012,0.078,0.018,0.156,0.018,0.234
				C426.802,412.818,426.131,413.496,425.302,413.496z"/>
			<path style="fill:#F4A548;" d="M436.584,425.555h-1.5c-0.391-7.851-0.771-15.774-1.151-23.686l-0.05-1.05
				c-0.04-0.827,0.599-1.53,1.426-1.57c0.838-0.058,1.53,0.599,1.57,1.426l0.051,1.05c0.379,7.911,0.76,15.832,1.152,23.742
				L436.584,425.555z"/>
			<path style="fill:#F4A548;" d="M448.672,441.579c-0.779,0-1.436-0.602-1.495-1.391c-0.46-6.275-0.926-12.55-1.393-18.823
				c-0.45-6.045-0.899-12.088-1.342-18.129c-0.061-0.826,0.56-1.545,1.386-1.606c0.842-0.051,1.545,0.56,1.606,1.386
				c0.443,6.039,0.892,12.082,1.342,18.125c0.466,6.274,0.934,12.55,1.393,18.827c0.061,0.826-0.561,1.545-1.387,1.605
				C448.746,441.577,448.709,441.579,448.672,441.579z"/>
			<path style="fill:#F4A548;" d="M459.435,440.745c-0.801,0-1.466-0.633-1.498-1.441c-0.223-5.679-0.45-11.354-0.676-17.027
				l-0.65-16.342c-0.032-0.828,0.612-1.525,1.44-1.558c0.82-0.029,1.525,0.612,1.558,1.44l0.649,16.34
				c0.227,5.674,0.454,11.35,0.677,17.029c0.032,0.828-0.612,1.525-1.44,1.558C459.475,440.744,459.455,440.745,459.435,440.745z"/>
		</g>
	</g>
	<g>
		<path style="fill:#976CD3;" d="M46.129,327.938c-0.394,0-0.772-0.155-1.053-0.432c-0.29-0.286-0.451-0.676-0.447-1.082
			l1.416-147.536c0.008-0.828,0.662-1.485,1.514-1.486c0.829,0.008,1.494,0.686,1.486,1.514l-1.401,145.986
			c34.185-0.792,61.836-0.777,88.591-0.768c27.139,0.013,55.21,0.024,90.08-0.804c0.845-0.026,1.516,0.636,1.535,1.464
			c0.019,0.828-0.636,1.516-1.464,1.535c-34.905,0.829-62.99,0.817-90.153,0.805c-27.138-0.008-55.205-0.024-90.068,0.804
			C46.153,327.938,46.141,327.938,46.129,327.938z"/>
		<g>
			<path style="fill:#976CD3;" d="M70.149,327.491c-0.816,0-1.484-0.654-1.499-1.473l-1.418-77.409
				c-0.009-0.497,0.229-0.967,0.635-1.253l13.725-9.671c0.559-0.393,1.313-0.361,1.835,0.083l11.392,9.671
				c0.333,0.283,0.527,0.698,0.529,1.135l0.419,77.166c0.004,0.829-0.664,1.504-1.492,1.508c-0.003,0-0.006,0-0.008,0
				c-0.825,0-1.496-0.666-1.5-1.492l-0.415-76.477l-9.981-8.474l-12.125,8.544l1.404,76.614c0.016,0.828-0.644,1.512-1.472,1.527
				C70.167,327.491,70.158,327.491,70.149,327.491z"/>
			<path style="fill:#976CD3;" d="M89.408,246.316c-4.986-0.265-9.95-0.376-14.846-0.33c-0.004,0-0.009,0-0.014,0
				c-0.822,0-1.492-0.663-1.499-1.486c-0.008-0.828,0.658-1.506,1.486-1.514c4.959-0.047,9.986,0.066,14.945,0.331
				c0.812,0.044,1.445,0.726,1.423,1.538C90.881,245.668,90.221,246.316,89.408,246.316z"/>
			<path style="fill:#976CD3;" d="M93.874,254.999c-0.014,0-0.028,0-0.042-0.001c-8.364-0.229-16.719-0.467-25.073-0.705
				c-0.828-0.024-1.48-0.714-1.457-1.542c0.024-0.829,0.739-1.478,1.542-1.457c8.354,0.238,16.708,0.476,25.07,0.704
				c0.828,0.023,1.481,0.712,1.459,1.541C95.35,254.354,94.683,254.999,93.874,254.999z"/>
			<path style="fill:#976CD3;" d="M93.919,262.768c-0.02,0-0.039,0-0.059-0.001l-24.98-0.952c-0.828-0.032-1.473-0.729-1.441-1.557
				c0.032-0.828,0.745-1.458,1.557-1.441l24.98,0.952c0.828,0.032,1.473,0.729,1.441,1.557
				C95.386,262.134,94.721,262.768,93.919,262.768z"/>
			<path style="fill:#976CD3;" d="M69.112,270.829c-0.812,0-1.479-0.648-1.499-1.463c-0.02-0.829,0.635-1.516,1.463-1.536
				l0.622-0.015c8.074-0.196,16.14-0.392,24.223-0.58c0.827-0.031,1.515,0.637,1.534,1.465c0.02,0.828-0.637,1.515-1.465,1.534
				c-8.082,0.188-16.146,0.384-24.219,0.58l-0.622,0.015C69.136,270.829,69.124,270.829,69.112,270.829z"/>
			<path style="fill:#976CD3;" d="M94.002,278.744c-0.023,0-0.046,0-0.069-0.001l-24.77-1.125c-0.828-0.038-1.468-0.739-1.431-1.566
				c0.037-0.828,0.742-1.469,1.566-1.431l24.77,1.125c0.828,0.038,1.468,0.739,1.431,1.566
				C95.463,278.116,94.799,278.744,94.002,278.744z"/>
			<path style="fill:#976CD3;" d="M94.048,286.229c-0.013,0-0.026,0-0.04,0c-4.086-0.104-8.173-0.205-12.259-0.305
				c-4.138-0.102-8.275-0.203-12.41-0.309c-0.828-0.021-1.482-0.71-1.461-1.538c0.021-0.828,0.698-1.501,1.538-1.461
				c4.133,0.106,8.269,0.207,12.406,0.309c4.087,0.1,8.175,0.2,12.263,0.305c0.828,0.021,1.482,0.71,1.461,1.538
				C95.525,285.582,94.858,286.229,94.048,286.229z"/>
			<path style="fill:#976CD3;" d="M76.869,294.871c-2.47,0-4.929-0.038-7.374-0.115c-0.828-0.026-1.479-0.718-1.452-1.546
				c0.025-0.828,0.708-1.51,1.546-1.452c8.037,0.25,16.242,0.083,24.387-0.5c0.829-0.064,1.544,0.563,1.604,1.389
				c0.059,0.827-0.563,1.544-1.389,1.603C88.421,294.663,82.62,294.871,76.869,294.871z"/>
			<path style="fill:#976CD3;" d="M94.139,303.12c-0.015,0-0.029,0-0.043-0.001l-24.449-0.686c-0.828-0.023-1.48-0.713-1.458-1.541
				c0.023-0.829,0.757-1.472,1.541-1.458l24.449,0.686c0.828,0.023,1.48,0.713,1.457,1.542
				C95.615,302.476,94.948,303.12,94.139,303.12z"/>
			<path style="fill:#976CD3;" d="M69.862,311.941c-0.82,0-1.489-0.659-1.5-1.482c-0.01-0.828,0.653-1.508,1.481-1.518l24.321-0.293
				c0.842-0.01,1.508,0.653,1.519,1.481c0.01,0.828-0.653,1.508-1.481,1.519l-24.321,0.293
				C69.875,311.941,69.868,311.941,69.862,311.941z"/>
			<path style="fill:#976CD3;" d="M70.009,319.838c-0.822,0-1.492-0.663-1.5-1.486c-0.007-0.829,0.658-1.506,1.486-1.514
				c8.07-0.073,16.14-0.146,24.21-0.229c0.005,0,0.01,0,0.016,0c0.821,0,1.491,0.662,1.499,1.485
				c0.008,0.828-0.656,1.507-1.485,1.515c-8.071,0.082-16.142,0.156-24.213,0.229C70.018,319.838,70.014,319.838,70.009,319.838z"/>
		</g>
		<g>
			<path style="fill:#976CD3;" d="M106.375,327.158c-0.829,0-1.5-0.671-1.5-1.5V210.783c0-0.451,0.203-0.878,0.553-1.163
				l14.794-12.043c0.592-0.482,1.451-0.442,1.997,0.092l10.303,10.105c0.288,0.282,0.45,0.668,0.45,1.071v116.787
				c0,0.829-0.671,1.5-1.5,1.5c-0.829,0-1.5-0.671-1.5-1.5V209.475l-8.896-8.725l-13.201,10.746v114.162
				C107.875,326.487,107.204,327.158,106.375,327.158z"/>
			<path style="fill:#976CD3;" d="M108.092,210.886c-0.82,0-1.49-0.66-1.5-1.482c-0.01-0.828,0.654-1.508,1.482-1.518l23.379-0.275
				c0.785,0.004,1.507,0.654,1.518,1.482c0.01,0.828-0.654,1.508-1.482,1.518l-23.379,0.275
				C108.104,210.886,108.097,210.886,108.092,210.886z"/>
			<path style="fill:#976CD3;" d="M106.372,217.675c-0.828,0-1.499-0.67-1.5-1.498c-0.001-0.829,0.67-1.501,1.498-1.502l0.618-0.001
				c8.158-0.009,16.325-0.018,24.482-0.018c0.829,0,1.5,0.672,1.5,1.5c0,0.828-0.671,1.5-1.5,1.5c-8.157,0-16.322,0.009-24.48,0.018
				l-0.618,0.001C106.373,217.675,106.372,217.675,106.372,217.675z"/>
			<path style="fill:#976CD3;" d="M131.471,227.018c-0.004,0-0.007,0-0.012,0c-8.364-0.064-16.737-0.137-25.101-0.21
				c-0.828-0.007-1.494-0.685-1.487-1.513c0.007-0.824,0.677-1.487,1.499-1.487c0.005,0,0.009,0,0.014,0
				c8.363,0.073,16.735,0.146,25.097,0.21c0.829,0.006,1.495,0.683,1.489,1.511C132.965,226.354,132.294,227.018,131.471,227.018z"
				/>
			<path style="fill:#976CD3;" d="M131.472,234.265c-0.022,0-0.046,0-0.068-0.001l-25.099-1.117
				c-0.828-0.037-1.468-0.738-1.431-1.566c0.037-0.828,0.729-1.469,1.566-1.431l25.099,1.117c0.828,0.037,1.468,0.738,1.431,1.566
				C132.934,233.637,132.27,234.265,131.472,234.265z"/>
			<path style="fill:#976CD3;" d="M106.371,241.951c-0.823,0-1.493-0.664-1.499-1.489c-0.006-0.828,0.66-1.505,1.488-1.511
				c8.364-0.064,16.737-0.128,25.101-0.183c0.003,0,0.007,0,0.01,0c0.824,0,1.495,0.665,1.5,1.49c0.005,0.828-0.662,1.504-1.49,1.51
				c-8.363,0.055-16.735,0.119-25.097,0.183C106.38,241.951,106.375,241.951,106.371,241.951z"/>
			<path style="fill:#976CD3;" d="M131.472,250.635c-0.016,0-0.032,0-0.049-0.001l-25.099-0.787
				c-0.828-0.026-1.478-0.719-1.451-1.547c0.026-0.828,0.69-1.495,1.547-1.451l25.099,0.787c0.828,0.026,1.478,0.719,1.451,1.547
				C132.945,249.994,132.278,250.635,131.472,250.635z"/>
			<path style="fill:#976CD3;" d="M131.472,258.32c-0.03,0-0.061-0.001-0.092-0.003c-8.312-0.5-16.634-0.991-24.947-1.482
				l-0.15-0.009c-0.827-0.049-1.458-0.759-1.409-1.586c0.049-0.827,0.756-1.449,1.586-1.409l0.15,0.009
				c8.314,0.491,16.637,0.982,24.951,1.482c0.827,0.049,1.456,0.76,1.407,1.587C132.92,257.707,132.26,258.32,131.472,258.32z"/>
			<path style="fill:#976CD3;" d="M106.371,267.324c-0.822,0-1.492-0.663-1.499-1.487c-0.007-0.829,0.659-1.506,1.487-1.513
				l25.099-0.229c0.004,0,0.009,0,0.014,0c0.822,0,1.492,0.663,1.5,1.487c0.007,0.829-0.659,1.506-1.487,1.513l-25.099,0.229
				C106.381,267.324,106.376,267.324,106.371,267.324z"/>
			<path style="fill:#976CD3;" d="M106.371,275.367c-0.823,0-1.493-0.664-1.499-1.489c-0.006-0.828,0.66-1.505,1.489-1.511
				c8.372-0.064,16.725-0.128,25.097-0.201c0.004,0,0.009,0,0.014,0c0.822,0,1.492,0.663,1.5,1.487
				c0.007,0.829-0.659,1.506-1.487,1.513c-8.373,0.073-16.728,0.137-25.101,0.201C106.379,275.367,106.375,275.367,106.371,275.367z
				"/>
			<path style="fill:#976CD3;" d="M106.372,282.276c-0.825,0-1.496-0.666-1.5-1.492c-0.004-0.829,0.663-1.504,1.492-1.508
				c8.363-0.045,16.726-0.091,25.098-0.146c0.003,0,0.007,0,0.01,0c0.824,0,1.495,0.665,1.5,1.49c0.005,0.829-0.662,1.504-1.49,1.51
				c-8.373,0.055-16.737,0.101-25.1,0.146C106.377,282.276,106.374,282.276,106.372,282.276z"/>
			<path style="fill:#976CD3;" d="M131.472,290.163c-0.01,0-0.021,0-0.032,0l-25.099-0.522c-0.828-0.017-1.486-0.703-1.468-1.531
				c0.017-0.828,0.657-1.495,1.531-1.468l25.099,0.521c0.828,0.017,1.486,0.703,1.468,1.531
				C132.954,289.512,132.285,290.163,131.472,290.163z"/>
			<path style="fill:#976CD3;" d="M131.471,296.76h-25.099c-0.829,0-1.5-0.671-1.5-1.5s0.671-1.5,1.5-1.5h25.099
				c0.829,0,1.5,0.671,1.5,1.5S132.3,296.76,131.471,296.76z"/>
			<path style="fill:#976CD3;" d="M131.472,305.014c-0.006,0-0.012,0-0.019,0c-8.363-0.101-16.735-0.201-25.098-0.292
				c-0.828-0.009-1.492-0.688-1.483-1.517c0.009-0.829,0.683-1.449,1.517-1.483c8.364,0.091,16.737,0.192,25.1,0.292
				c0.828,0.01,1.492,0.69,1.482,1.518C132.961,304.354,132.291,305.014,131.472,305.014z"/>
			<path style="fill:#976CD3;" d="M131.472,312.17c-0.008,0-0.016,0-0.023,0c-8.363-0.129-16.735-0.256-25.098-0.376
				c-0.828-0.012-1.49-0.693-1.478-1.521c0.012-0.828,0.669-1.478,1.521-1.479c8.364,0.119,16.737,0.247,25.101,0.376
				c0.829,0.013,1.49,0.695,1.477,1.523C132.958,311.513,132.289,312.17,131.472,312.17z"/>
			<path style="fill:#976CD3;" d="M131.472,319.023c-0.005,0-0.01,0-0.015,0c-8.363-0.082-16.735-0.165-25.098-0.238
				c-0.828-0.007-1.494-0.685-1.487-1.513c0.007-0.824,0.677-1.487,1.499-1.487c0.005,0,0.009,0,0.014,0
				c8.364,0.073,16.737,0.155,25.101,0.238c0.829,0.008,1.494,0.686,1.485,1.515C132.963,318.361,132.293,319.023,131.472,319.023z"
				/>
		</g>
		<g>
			<path style="fill:#976CD3;" d="M143.096,327.134c-0.829,0-1.5-0.671-1.5-1.5v-90.412c0-0.43,0.184-0.839,0.507-1.124
				l13.228-11.689c0.576-0.509,1.445-0.5,2.011,0.022l12.664,11.689c0.308,0.284,0.482,0.684,0.482,1.102v90.408
				c0,0.829-0.671,1.5-1.5,1.5c-0.829,0-1.5-0.671-1.5-1.5v-89.751l-11.186-10.324l-11.705,10.344v89.735
				C144.596,326.463,143.925,327.134,143.096,327.134z"/>
			<path style="fill:#976CD3;" d="M164.494,232.581c-0.004,0-0.009,0-0.013,0l-16.562-0.128c-0.828-0.007-1.494-0.684-1.487-1.513
				c0.007-0.828,0.717-1.464,1.513-1.487l16.562,0.128c0.828,0.007,1.494,0.684,1.487,1.513
				C165.987,231.918,165.317,232.581,164.494,232.581z"/>
			<path style="fill:#976CD3;" d="M168.987,241.118c-0.004,0-0.009,0-0.013,0l-0.216-0.002c-8.557-0.073-17.123-0.145-25.68-0.227
				c-0.829-0.008-1.494-0.686-1.486-1.514c0.008-0.829,0.704-1.497,1.514-1.486c8.557,0.082,17.122,0.155,25.677,0.227l0.216,0.002
				c0.829,0.007,1.494,0.685,1.487,1.513C170.48,240.455,169.809,241.118,168.987,241.118z"/>
			<path style="fill:#976CD3;" d="M168.987,247.816c-0.01,0-0.021,0-0.031,0l-25.895-0.521c-0.828-0.017-1.486-0.702-1.469-1.53
				c0.017-0.828,0.703-1.514,1.53-1.469l25.895,0.521c0.828,0.017,1.486,0.702,1.469,1.53
				C170.47,247.164,169.802,247.816,168.987,247.816z"/>
			<path style="fill:#976CD3;" d="M143.091,255.621c-0.814,0-1.482-0.651-1.499-1.468c-0.018-0.828,0.64-1.514,1.468-1.531
				l25.895-0.54c0.822-0.035,1.514,0.64,1.531,1.468c0.018,0.828-0.64,1.514-1.468,1.531l-25.895,0.54
				C143.113,255.621,143.102,255.621,143.091,255.621z"/>
			<path style="fill:#976CD3;" d="M168.987,262.95c-0.011,0-0.021,0-0.032-0.001l-25.895-0.549
				c-0.828-0.018-1.485-0.703-1.468-1.531c0.017-0.828,0.69-1.506,1.531-1.468l25.895,0.549c0.828,0.018,1.485,0.703,1.468,1.531
				C170.469,262.299,169.801,262.95,168.987,262.95z"/>
			<path style="fill:#976CD3;" d="M143.091,270.518c-0.813,0-1.481-0.65-1.499-1.467c-0.019-0.828,0.638-1.514,1.466-1.533
				l25.895-0.567c0.83-0.021,1.514,0.638,1.533,1.466c0.019,0.828-0.638,1.514-1.466,1.533l-25.895,0.567
				C143.114,270.518,143.102,270.518,143.091,270.518z"/>
			<path style="fill:#976CD3;" d="M168.988,278.36c-0.024,0-0.048,0-0.072-0.001l-0.126-0.006c-8.586-0.41-17.181-0.819-25.768-1.22
				c-0.828-0.039-1.467-0.741-1.429-1.568c0.039-0.827,0.736-1.457,1.568-1.429c8.587,0.4,17.184,0.81,25.771,1.22l0.126,0.006
				c0.828,0.039,1.466,0.743,1.427,1.57C170.447,277.734,169.784,278.36,168.988,278.36z"/>
			<path style="fill:#976CD3;" d="M168.987,285.661c-0.002,0-0.004,0-0.006,0l-25.895-0.119c-0.829-0.003-1.497-0.678-1.494-1.506
				c0.003-0.826,0.674-1.494,1.5-1.494c0.002,0,0.004,0,0.006,0l25.895,0.119c0.829,0.003,1.497,0.678,1.494,1.506
				C170.483,284.994,169.812,285.661,168.987,285.661z"/>
			<path style="fill:#976CD3;" d="M168.987,293.897c-0.001,0-0.003,0-0.005,0l-25.895-0.092c-0.829-0.002-1.498-0.676-1.495-1.505
				c0.002-0.827,0.674-1.495,1.5-1.495c0.001,0,0.003,0,0.005,0l25.895,0.092c0.828,0.003,1.497,0.676,1.495,1.505
				C170.484,293.228,169.813,293.897,168.987,293.897z"/>
			<path style="fill:#976CD3;" d="M168.988,300.988c-0.016,0-0.032,0-0.049-0.001l-25.895-0.824
				c-0.828-0.026-1.477-0.719-1.451-1.547c0.026-0.828,0.699-1.504,1.547-1.451l25.895,0.824c0.828,0.026,1.478,0.719,1.451,1.547
				C170.46,300.347,169.794,300.988,168.988,300.988z"/>
			<path style="fill:#976CD3;" d="M168.987,308.308c-0.01,0-0.02,0-0.029,0c-8.628-0.164-17.248-0.338-25.868-0.512
				c-0.828-0.017-1.501-0.702-1.483-1.53c0.016-0.829,0.699-1.517,1.516-1.47c8.647,0.174,17.266,0.348,25.893,0.513
				c0.828,0.016,1.487,0.7,1.471,1.528C170.471,307.655,169.802,308.308,168.987,308.308z"/>
			<path style="fill:#976CD3;" d="M168.987,315.235c-0.01,0-0.021,0-0.031-0.001l-25.895-0.522c-0.828-0.017-1.486-0.702-1.469-1.53
				c0.017-0.828,0.703-1.522,1.53-1.469l25.895,0.522c0.828,0.017,1.486,0.702,1.469,1.53
				C170.47,314.583,169.802,315.235,168.987,315.235z"/>
			<path style="fill:#976CD3;" d="M143.091,321.32c-0.819,0-1.489-0.659-1.5-1.481c-0.01-0.829,0.653-1.508,1.481-1.519l25.895-0.32
				c0.801-0.018,1.508,0.652,1.519,1.481c0.01,0.829-0.653,1.508-1.481,1.519l-25.895,0.32
				C143.104,321.32,143.097,321.32,143.091,321.32z"/>
		</g>
		<g>
			<path style="fill:#976CD3;" d="M182.182,326.601c-0.829,0-1.5-0.671-1.5-1.5V220.828c0-0.451,0.203-0.878,0.552-1.162
				l12.749-10.399c0.559-0.455,1.361-0.449,1.912,0.013l12.397,10.399c0.331,0.278,0.527,0.686,0.536,1.119l2.111,103.655
				c0.017,0.829-0.641,1.514-1.469,1.53c-0.843,0.053-1.513-0.641-1.53-1.469l-2.098-102.975l-10.924-9.164l-11.236,9.165v103.561
				C183.682,325.93,183.011,326.601,182.182,326.601z"/>
			<path style="fill:#976CD3;" d="M186.005,219.213c-0.808,0-1.475-0.643-1.499-1.456c-0.024-0.828,0.628-1.519,1.456-1.543
				l17.028-0.485c0.812-0.026,1.519,0.627,1.543,1.456c0.024,0.828-0.628,1.519-1.456,1.543l-17.028,0.485
				C186.035,219.212,186.02,219.213,186.005,219.213z"/>
			<path style="fill:#976CD3;" d="M207.391,225.242c-0.014,0-0.028,0-0.042-0.001l-0.659-0.018
				c-8.18-0.223-16.368-0.445-24.548-0.659c-0.828-0.021-1.482-0.71-1.46-1.538c0.022-0.829,0.759-1.475,1.539-1.46
				c8.181,0.214,16.37,0.436,24.551,0.659l0.659,0.018c0.828,0.023,1.481,0.712,1.458,1.54
				C208.867,224.597,208.2,225.242,207.391,225.242z"/>
			<path style="fill:#976CD3;" d="M182.18,232.178c-0.809,0-1.477-0.645-1.498-1.46c-0.022-0.828,0.631-1.518,1.459-1.54
				c8.232-0.223,16.457-0.437,24.69-0.651l0.639-0.017c0.836-0.037,1.517,0.632,1.539,1.46c0.021,0.828-0.632,1.517-1.461,1.539
				l-0.64,0.017c-8.232,0.214-16.455,0.428-24.687,0.651C182.208,232.178,182.195,232.178,182.18,232.178z"/>
			<path style="fill:#976CD3;" d="M182.181,237.879c-0.827,0-1.498-0.669-1.5-1.497c-0.002-0.829,0.669-1.501,1.497-1.503
				c8.492-0.019,16.975-0.037,25.467-0.046c0.001,0,0.001,0,0.001,0c0.828,0,1.499,0.67,1.5,1.499
				c0.001,0.828-0.67,1.501-1.499,1.501c-8.491,0.009-16.972,0.027-25.463,0.046C182.183,237.879,182.182,237.879,182.181,237.879z"
				/>
			<path style="fill:#976CD3;" d="M207.785,244.641c-0.015,0-0.03,0-0.044-0.001l-25.602-0.741c-0.828-0.024-1.48-0.715-1.456-1.543
				c0.024-0.828,0.721-1.482,1.543-1.456l25.602,0.741c0.828,0.024,1.48,0.715,1.456,1.543
				C209.26,243.997,208.593,244.641,207.785,244.641z"/>
			<path style="fill:#976CD3;" d="M207.913,251.101c-0.017,0-0.034-0.001-0.051-0.001l-25.73-0.851
				c-0.828-0.027-1.477-0.721-1.45-1.548c0.027-0.828,0.733-1.473,1.548-1.45l25.731,0.851c0.828,0.027,1.477,0.721,1.449,1.549
				C209.384,250.462,208.718,251.101,207.913,251.101z"/>
			<path style="fill:#976CD3;" d="M182.181,257.195c-0.826,0-1.497-0.668-1.5-1.494c-0.003-0.829,0.665-1.503,1.494-1.506
				l25.849-0.119c0.812-0.017,1.503,0.665,1.506,1.494c0.003,0.829-0.665,1.503-1.494,1.506l-25.849,0.119
				C182.186,257.195,182.183,257.195,182.181,257.195z"/>
			<path style="fill:#976CD3;" d="M182.181,264.543c-0.822,0-1.493-0.663-1.5-1.487c-0.007-0.829,0.659-1.506,1.487-1.513
				c8.606-0.073,17.221-0.136,25.827-0.2l0.179-0.001c0.868,0.002,1.505,0.66,1.511,1.489c0.006,0.829-0.661,1.505-1.489,1.511
				l-0.179,0.001c-8.605,0.064-17.219,0.127-25.824,0.2C182.19,264.543,182.185,264.543,182.181,264.543z"/>
			<path style="fill:#976CD3;" d="M182.181,272.22c-0.815,0-1.484-0.653-1.499-1.472c-0.016-0.828,0.643-1.512,1.471-1.528
				l26.151-0.503c0.01-0.001,0.02-0.001,0.029-0.001c0.815,0,1.484,0.653,1.499,1.472c0.016,0.828-0.643,1.512-1.471,1.528
				l-26.151,0.504C182.2,272.22,182.191,272.22,182.181,272.22z"/>
			<path style="fill:#976CD3;" d="M182.18,279.933c-0.809,0-1.475-0.644-1.498-1.457c-0.023-0.828,0.629-1.518,1.457-1.542
				l26.307-0.732c0.835-0.025,1.518,0.629,1.542,1.457c0.023,0.828-0.629,1.519-1.457,1.542l-26.307,0.732
				C182.209,279.933,182.195,279.933,182.18,279.933z"/>
			<path style="fill:#976CD3;" d="M208.654,287.272c-0.017,0-0.034,0-0.051-0.001c-8.54-0.283-17.088-0.558-25.629-0.832
				l-0.841-0.027c-0.828-0.026-1.478-0.719-1.451-1.547c0.026-0.828,0.706-1.479,1.547-1.451l0.841,0.027
				c8.541,0.275,17.091,0.55,25.632,0.833c0.828,0.027,1.477,0.721,1.449,1.549C210.125,286.633,209.459,287.272,208.654,287.272z"
				/>
			<path style="fill:#976CD3;" d="M208.772,293.082c-0.005,0-0.01,0-0.015,0c-8.867-0.083-17.725-0.174-26.592-0.266
				c-0.828-0.009-1.493-0.687-1.484-1.516c0.009-0.823,0.679-1.484,1.5-1.484c0.005,0,0.011,0,0.016,0
				c8.866,0.092,17.723,0.183,26.589,0.266c0.828,0.008,1.494,0.685,1.486,1.514C210.264,292.42,209.594,293.082,208.772,293.082z"
				/>
			<path style="fill:#976CD3;" d="M208.891,299.241h-26.71c-0.829,0-1.5-0.671-1.5-1.5c0-0.829,0.671-1.5,1.5-1.5h26.71
				c0.829,0,1.5,0.671,1.5,1.5C210.391,298.569,209.72,299.241,208.891,299.241z"/>
			<path style="fill:#976CD3;" d="M209.046,306.625c-0.001,0-0.002,0-0.003,0l-26.865-0.064c-0.829-0.002-1.499-0.675-1.497-1.503
				c0.002-0.828,0.673-1.497,1.5-1.497c0.001,0,0.002,0,0.003,0l26.865,0.064c0.829,0.002,1.499,0.675,1.497,1.503
				C210.544,305.955,209.873,306.625,209.046,306.625z"/>
			<path style="fill:#976CD3;" d="M209.194,313.871c-0.017,0-0.033-0.001-0.05-0.001l-27.011-0.878
				c-0.828-0.027-1.477-0.72-1.45-1.548c0.027-0.828,0.733-1.47,1.548-1.45l27.011,0.878c0.828,0.027,1.477,0.72,1.45,1.548
				C210.665,313.231,209.999,313.871,209.194,313.871z"/>
			<path style="fill:#976CD3;" d="M182.18,319.746c-0.809,0-1.476-0.645-1.498-1.459c-0.022-0.828,0.63-1.518,1.458-1.541
				l27.112-0.732c0.833-0.017,1.518,0.63,1.541,1.458c0.022,0.828-0.63,1.518-1.458,1.54l-27.112,0.732
				C182.208,319.746,182.195,319.746,182.18,319.746z"/>
		</g>
	</g>
	<path style="fill:#EA5CB8;" d="M430.199,236.925c-3.36,0-3.668-0.397-4.006-0.835c-0.258-0.335-0.37-0.806-0.303-1.23
		c0.03-0.327,0.093-2.297,0.078-13.1l-14.477,0.031c-0.002,0-0.002,0-0.003,0c-0.43,0-0.84-0.185-1.124-0.507
		c-0.286-0.324-0.418-0.754-0.363-1.182l1.191-9.35c0.095-0.749,0.732-1.311,1.488-1.311h13.253
		c-0.029-6.92-0.063-12.531-0.063-12.531c-0.002-0.399,0.154-0.783,0.436-1.067c0.282-0.284,0.665-0.443,1.064-0.443h11.735
		c0.409,0,0.8,0.167,1.083,0.462c0.283,0.295,0.433,0.693,0.416,1.101l-0.525,12.477h12.207c0.829,0,1.5,0.672,1.5,1.5v9.264
		c0,0.827-0.669,1.498-1.497,1.5l-12.727,0.027l-0.565,13.439c-0.032,0.765-0.635,1.383-1.399,1.434
		C434.177,236.832,431.829,236.925,430.199,236.925z M425.945,234.633c-0.029,0.088-0.044,0.161-0.051,0.203
		C425.906,234.767,425.923,234.699,425.945,234.633z M428.921,233.904c1.51,0.046,4.388-0.051,7.132-0.21l0.569-13.523
		c0.034-0.802,0.693-1.435,1.495-1.437l12.665-0.027v-6.267h-12.271c-0.409,0-0.8-0.167-1.082-0.462
		c-0.283-0.295-0.433-0.693-0.416-1.101l0.525-12.477h-8.662c0.014,2.343,0.04,7.149,0.061,12.534
		c0.001,0.399-0.156,0.782-0.437,1.064c-0.282,0.282-0.664,0.441-1.063,0.441h-13.439l-0.809,6.347l14.271-0.03
		c0.001,0,0.002,0,0.003,0c0.397,0,0.777,0.157,1.059,0.437c0.282,0.281,0.44,0.662,0.441,1.06
		C428.981,228.452,428.962,232.164,428.921,233.904z"/>
	<path style="fill:#F4A548;" d="M363.02,215.719c-0.352,0-0.705-0.123-0.988-0.371c-7.894-6.907-7.803-7.611-7.698-8.426
		c0.054-0.419,0.308-0.831,0.655-1.084c0.303-0.251,1.95-1.819,9.318-9.209l-10.259-10.215c-0.306-0.305-0.465-0.726-0.439-1.156
		c0.027-0.431,0.238-0.829,0.579-1.093l7.454-5.77c0.597-0.462,1.444-0.408,1.979,0.126l9.372,9.372
		c4.873-4.914,8.815-8.905,8.816-8.905c0.28-0.284,0.663-0.445,1.063-0.446c0.001,0,0.003,0,0.004,0
		c0.398,0,0.779,0.158,1.061,0.439l8.298,8.298c0.289,0.289,0.448,0.684,0.439,1.092c-0.008,0.409-0.184,0.796-0.484,1.073
		l-9.194,8.452l8.631,8.631c0.586,0.586,0.586,1.535,0,2.121l-6.55,6.55c-0.585,0.585-1.532,0.586-2.119,0.002l-9.018-8.98
		l-9.903,9.103C363.749,215.586,363.385,215.719,363.02,215.719z M357.808,207.305c1.036,1.1,3.139,3.066,5.192,4.895l9.965-9.16
		c0.59-0.543,1.504-0.525,2.074,0.041l8.974,8.937l4.432-4.431l-8.677-8.677c-0.289-0.289-0.448-0.683-0.439-1.092
		c0.008-0.409,0.184-0.796,0.484-1.073l9.194-8.452l-6.124-6.124c-1.648,1.666-5.027,5.083-8.82,8.906
		c-0.281,0.283-0.663,0.443-1.062,0.444c-0.001,0-0.002,0-0.003,0c-0.398,0-0.779-0.158-1.06-0.439l-9.503-9.503l-5.059,3.916
		l10.113,10.07c0.282,0.281,0.44,0.662,0.441,1.06c0.001,0.398-0.157,0.78-0.438,1.061
		C361.705,203.493,359.067,206.104,357.808,207.305z M355.179,205.721c-0.079,0.04-0.137,0.079-0.17,0.103
		C355.063,205.786,355.12,205.751,355.179,205.721z M355.18,205.72c0,0.001-0.001,0.001-0.001,0.001
		C355.18,205.721,355.18,205.721,355.18,205.72z M355.189,205.716c-0.001,0-0.001,0.001-0.002,0.001
		C355.188,205.717,355.189,205.716,355.189,205.716z"/>
	<g>
		<path style="fill:#EA5CB8;" d="M291.198,431.552c-0.064,0-0.128-0.004-0.192-0.012c-3.645-0.467-6.903-3.114-8.107-6.586
			c-0.782-2.253-0.709-4.608-0.638-6.886c0.08-2.573,0.155-5.003-1.064-6.843c-1.047-1.579-3.086-2.475-4.956-2.174
			c-0.764,0.122-1.502-0.362-1.691-1.117c-0.189-0.755,0.23-1.528,0.965-1.783c3.492-1.206,4.313-6.207,4.481-7.711
			c0.104-0.924,0.162-1.854,0.224-2.839c0.18-2.863,0.366-5.824,1.722-8.541c0.688-1.377,1.528-2.336,2.569-2.935
			c1.476-0.845,3.301-0.8,4.546,0.115c0.668,0.491,0.811,1.43,0.32,2.097c-0.491,0.668-1.431,0.811-2.097,0.32
			c-0.288-0.212-0.836-0.182-1.274,0.07c-0.505,0.29-0.969,0.853-1.379,1.673c-1.084,2.172-1.243,4.707-1.412,7.389
			c-0.061,0.978-0.125,1.988-0.236,2.985c-0.198,1.766-0.853,5.284-2.998,7.802c1.495,0.597,2.815,1.63,3.718,2.991
			c1.747,2.636,1.653,5.665,1.563,8.594c-0.065,2.098-0.126,4.079,0.474,5.81c0.827,2.383,3.152,4.272,5.654,4.593
			c0.822,0.105,1.403,0.857,1.297,1.678C292.587,431,291.942,431.552,291.198,431.552z"/>
		<path style="fill:#EA5CB8;" d="M299.869,431.453c-0.126,0-0.253-0.004-0.382-0.011c-0.827-0.045-1.461-0.753-1.415-1.581
			c0.046-0.827,0.744-1.469,1.581-1.414c2.627,0.152,4.805-2.54,5.496-5.141c0.545-2.056,0.521-4.232,0.496-6.536
			c-0.012-1.075-0.024-2.186,0.025-3.292c0.124-2.795,0.798-6.395,3.126-8.883c-1.399-1.388-2.372-3.186-2.747-5.139
			c-0.348-1.81-0.169-3.574,0.003-5.28c0.045-0.449,0.091-0.898,0.125-1.346c0.181-2.33-0.1-3.927-0.882-5.024
			c-0.442-0.62-1.224-1.081-1.992-1.173c-0.354-0.042-0.857-0.023-1.246,0.311c-0.627,0.54-1.576,0.47-2.115-0.158
			c-0.541-0.628-0.47-1.575,0.158-2.115c0.95-0.817,2.212-1.18,3.563-1.015c1.614,0.195,3.137,1.095,4.075,2.409
			c1.596,2.237,1.581,5.065,1.431,6.999c-0.037,0.471-0.084,0.943-0.132,1.415c-0.158,1.56-0.307,3.034-0.042,4.413
			c0.341,1.776,1.447,3.43,2.958,4.423c0.42,0.276,0.674,0.745,0.676,1.247c0.002,0.503-0.248,0.973-0.666,1.253
			c-2.645,1.769-3.2,5.646-3.296,7.798c-0.046,1.023-0.034,2.044-0.023,3.124c0.027,2.403,0.055,4.888-0.596,7.339
			C307.06,427.801,303.955,431.453,299.869,431.453z"/>
	</g>
	<g>
		<path style="fill:#B7E5DD;" d="M156.256,178.399c-1.209,0-2.313-0.299-3.214-0.884c-1.619-1.051-2.362-2.822-2.829-4.246
			c-0.367-1.118-0.764-2.598-0.575-4.132c0.297-2.415,2.021-4.557,4.391-5.457c2.065-0.784,4.524-0.538,6.748,0.672l0,0
			c1.804,0.981,3.266,2.52,4.011,4.224c0.735,1.681,0.714,3.394-0.062,4.954c-1.273,2.562-4.21,4.072-6.534,4.63
			C157.527,178.32,156.878,178.399,156.256,178.399z M156.559,166.227c-0.517,0-1.012,0.085-1.466,0.258
			c-1.322,0.502-2.317,1.715-2.478,3.018c-0.115,0.939,0.162,1.958,0.448,2.831c0.313,0.957,0.78,2.125,1.613,2.665
			c0.902,0.585,2.15,0.405,2.815,0.245c1.714-0.412,3.786-1.514,4.549-3.049c0.378-0.76,0.378-1.551-0.001-2.416
			c-0.483-1.105-1.466-2.122-2.696-2.791l0,0C158.418,166.484,157.456,166.227,156.559,166.227z"/>
		<path style="fill:#B7E5DD;" d="M158.537,145.592c-1.001,0-2.013-0.214-2.952-0.65c-2.002-0.929-3.545-2.86-4.234-5.297
			c-0.559-1.976-0.479-4.097,0.219-5.82c0.688-1.701,1.929-2.882,3.586-3.418c2.722-0.88,5.855,0.167,7.878,1.439
			c1.704,1.071,2.817,2.539,3.137,4.135c0.379,1.893-0.368,3.662-1.061,4.991c-0.543,1.043-1.325,2.361-2.555,3.299
			C161.411,145.143,159.986,145.592,158.537,145.592z M154.237,138.829c0.451,1.595,1.402,2.831,2.61,3.392
			c1.282,0.596,2.846,0.46,3.89-0.336c0.753-0.574,1.288-1.484,1.713-2.299c0.465-0.893,0.974-2.042,0.779-3.016
			c-0.211-1.053-1.213-1.82-1.792-2.184c-1.493-0.938-3.728-1.65-5.36-1.123c-0.808,0.261-1.373,0.813-1.728,1.689
			C153.898,136.068,153.856,137.482,154.237,138.829z"/>
		<path style="fill:#B7E5DD;" d="M136.456,161.212c-0.392,0-0.769-0.154-1.05-0.428c-0.288-0.282-0.45-0.668-0.45-1.072v-8.463
			c0-0.828,0.671-1.5,1.5-1.5h40.795c0.76,0,1.4,0.569,1.49,1.324l0.901,7.603c0.05,0.42-0.081,0.842-0.358,1.161
			c-0.277,0.319-0.677,0.506-1.101,0.515l-41.697,0.86C136.476,161.212,136.466,161.212,136.456,161.212z M137.956,152.749v5.432
			l38.513-0.794l-0.55-4.638H137.956z"/>
	</g>
	<path style="fill:#F4A548;" d="M172.713,392.853c-0.003,0-0.006,0-0.01,0c-0.69-0.004-1.288-0.479-1.449-1.15l-5.245-21.878
		l-6.372,0.234c-0.826,0.01-1.523-0.616-1.554-1.444c-0.03-0.828,0.616-1.523,1.444-1.554l7.6-0.279
		c0.695-0.017,1.347,0.454,1.513,1.149l4.138,17.259c1.811-6.698,3.665-12.871,5.471-18.883c2.305-7.674,4.689-15.61,6.955-24.548
		c0.204-0.803,1.021-1.287,1.823-1.085c0.803,0.204,1.289,1.02,1.085,1.823c-2.283,9.001-4.676,16.969-6.99,24.674
		c-2.305,7.675-4.688,15.611-6.956,24.551C173.998,392.387,173.399,392.853,172.713,392.853z"/>
	<path style="fill:#F4A548;" d="M96.919,182.884c-0.457,0-0.897-0.21-1.186-0.581c-0.364-0.471-0.416-1.113-0.131-1.636
		l10.237-18.806l-16.016-14.195c-0.416-0.369-0.594-0.938-0.462-1.479c0.132-0.541,0.552-0.963,1.092-1.099l16.851-4.23
		c0.62-0.156,1.269,0.098,1.619,0.631l2.587,3.938c0.455,0.692,0.263,1.623-0.43,2.077c-0.693,0.455-1.622,0.262-2.077-0.43
		l-2.003-3.047l-13.061,3.279l14.782,13.101c0.523,0.463,0.656,1.226,0.322,1.84l-9.172,16.85l15.099-3.791l0.956-4.847
		c0.16-0.813,0.953-1.342,1.762-1.181c0.813,0.16,1.342,0.949,1.182,1.762l-1.14,5.781c-0.112,0.57-0.543,1.023-1.106,1.165
		l-19.34,4.855C97.163,182.869,97.041,182.884,96.919,182.884z"/>
</g>
</svg>
